<svg width="24" height="24" viewBox="0 0 24 24" fill="none" xmlns="http://www.w3.org/2000/svg">
<path d="M10.7173 4.66875C10.4969 4.4479 10.2244 4.2862 9.92489 4.19862C9.62541 4.11104 9.30868 4.1004 9.004 4.1677C8.69933 4.23499 8.41654 4.37803 8.18181 4.5836C7.94707 4.78916 7.76798 5.05061 7.66108 5.34375L2.73921 18.8822C2.63746 19.1621 2.60451 19.4624 2.64312 19.7578C2.68174 20.0531 2.7908 20.3349 2.9611 20.5793C3.1314 20.8236 3.35796 21.0235 3.62167 21.162C3.88539 21.3005 4.17853 21.3735 4.47639 21.375C4.69518 21.3746 4.9122 21.3359 5.11764 21.2606L18.6561 16.3387C18.9495 16.2323 19.2113 16.0535 19.4173 15.8189C19.6233 15.5844 19.7667 15.3017 19.8344 14.9969C19.9021 14.6922 19.8918 14.3753 19.8045 14.0757C19.7171 13.776 19.5556 13.5032 19.3348 13.2825L10.7173 4.66875ZM9.76764 17.1759L6.82389 14.2322L7.77546 11.6156L12.3842 16.2244L9.76764 17.1759ZM5.97827 16.5656L7.43421 18.0244L5.14202 18.8578L5.97827 16.5656ZM14.7186 15.375L8.62483 9.28125L9.56233 6.69562L17.3033 14.4375L14.7186 15.375ZM11.9998 3.75V1.5C11.9998 1.20163 12.1184 0.915483 12.3293 0.704505C12.5403 0.493526 12.8265 0.375 13.1248 0.375C13.4232 0.375 13.7093 0.493526 13.9203 0.704505C14.1313 0.915483 14.2498 1.20163 14.2498 1.5V3.75C14.2498 4.04837 14.1313 4.33452 13.9203 4.5455C13.7093 4.75647 13.4232 4.875 13.1248 4.875C12.8265 4.875 12.5403 4.75647 12.3293 4.5455C12.1184 4.33452 11.9998 4.04837 11.9998 3.75ZM22.9198 11.5791C23.1312 11.7904 23.2499 12.0771 23.2499 12.3759C23.2499 12.6748 23.1312 12.9615 22.9198 13.1728C22.7085 13.3842 22.4218 13.5029 22.123 13.5029C21.8241 13.5029 21.5374 13.3842 21.3261 13.1728L19.8261 11.6728C19.6147 11.4615 19.496 11.1748 19.496 10.8759C19.496 10.5771 19.6147 10.2904 19.8261 10.0791C20.0374 9.86772 20.3241 9.74899 20.623 9.74899C20.9218 9.74899 21.2085 9.86772 21.4198 10.0791L22.9198 11.5791ZM22.8551 7.81687L20.6051 8.56687C20.3221 8.66123 20.0131 8.63928 19.7462 8.50583C19.4793 8.37239 19.2764 8.13839 19.182 7.85531C19.0877 7.57224 19.1096 7.26327 19.2431 6.99638C19.3765 6.72949 19.6105 6.52655 19.8936 6.43219L22.1436 5.68219C22.4267 5.58783 22.7356 5.60979 23.0025 5.74323C23.2694 5.87667 23.4723 6.11067 23.5667 6.39375C23.6611 6.67683 23.6391 6.98579 23.5057 7.25268C23.3722 7.51957 23.1382 7.72252 22.8551 7.81687ZM14.6811 6.18094C14.9839 4.45031 16.2551 3.375 17.9998 3.375C18.6045 3.375 18.8145 3.14156 18.9373 2.91375C19.0466 2.70377 19.1105 2.47315 19.1248 2.23688V2.25C19.1248 1.95163 19.2434 1.66548 19.4543 1.4545C19.6653 1.24353 19.9515 1.125 20.2498 1.125C20.5482 1.125 20.8343 1.24353 21.0453 1.4545C21.2563 1.66548 21.3748 1.95163 21.3748 2.25C21.3748 3.60656 20.4758 5.625 17.9998 5.625C17.5367 5.625 17.0426 5.73656 16.8973 6.56812C16.8519 6.82888 16.716 7.06527 16.5135 7.23571C16.311 7.40616 16.0548 7.49974 15.7901 7.5C15.7248 7.49989 15.6596 7.49424 15.5951 7.48312C15.3013 7.43165 15.0398 7.26554 14.8684 7.02134C14.697 6.77713 14.6296 6.47483 14.6811 6.18094Z" fill="#C37CD2"/>
</svg>
