<svg width="24" height="24" viewBox="0 0 24 24" fill="none" xmlns="http://www.w3.org/2000/svg">
<path d="M12.4399 13.11L12.2699 13C12.0868 12.9246 11.8855 12.9053 11.6915 12.9445C11.4974 12.9837 11.3194 13.0795 11.1799 13.22C11.0834 13.3087 11.0082 13.4181 10.9599 13.54C10.9073 13.6633 10.8801 13.7959 10.8799 13.93C10.8815 14.0606 10.9086 14.1897 10.9599 14.31C11.0673 14.5503 11.2596 14.7425 11.4999 14.85C11.6201 14.9012 11.7492 14.9284 11.8799 14.93C12.0137 14.9275 12.1459 14.9003 12.2699 14.85C12.3899 14.7982 12.4986 14.7235 12.5899 14.63C12.7761 14.4426 12.8807 14.1891 12.8807 13.925C12.8807 13.6608 12.7761 13.4073 12.5899 13.22L12.4399 13.11ZM11.8799 5.99996C11.4027 5.99459 10.9324 6.11347 10.5151 6.3449C10.0979 6.57633 9.74798 6.91236 9.49988 7.31996C9.42753 7.43378 9.37894 7.56106 9.35706 7.69414C9.33517 7.82722 9.34042 7.96335 9.37251 8.09435C9.4046 8.22534 9.46285 8.3485 9.54377 8.45639C9.62468 8.56429 9.72659 8.65471 9.84335 8.7222C9.96012 8.7897 10.0893 8.83288 10.2232 8.84914C10.3571 8.8654 10.4929 8.85441 10.6224 8.81684C10.7519 8.77926 10.8725 8.71587 10.9769 8.63048C11.0813 8.54509 11.1674 8.43947 11.2299 8.31996C11.3037 8.21739 11.4015 8.13454 11.5149 8.07874C11.6283 8.02293 11.7536 7.99588 11.8799 7.99996C12.0788 7.99996 12.2696 8.07898 12.4102 8.21963C12.5509 8.36028 12.6299 8.55105 12.6299 8.74996C12.6299 8.94887 12.5509 9.13964 12.4102 9.28029C12.2696 9.42094 12.0788 9.49996 11.8799 9.49996C11.6147 9.49996 11.3603 9.60532 11.1728 9.79285C10.9852 9.98039 10.8799 10.2347 10.8799 10.5C10.8799 10.7652 10.9852 11.0195 11.1728 11.2071C11.3603 11.3946 11.6147 11.5 11.8799 11.5C12.6092 11.5 13.3087 11.2102 13.8244 10.6945C14.3401 10.1788 14.6299 9.47931 14.6299 8.74996C14.6299 8.02062 14.3401 7.32114 13.8244 6.80542C13.3087 6.28969 12.6092 5.99996 11.8799 5.99996ZM20.4599 9.67996C20.3273 8.21457 19.8166 6.80869 18.9777 5.59987C18.1388 4.39104 17.0005 3.42068 15.6742 2.78371C14.3478 2.14673 12.8788 1.86497 11.4109 1.96598C9.94303 2.06699 8.52649 2.54731 7.29988 3.35996C6.24908 4.06261 5.36693 4.98926 4.71682 6.07335C4.06672 7.15744 3.66478 8.37207 3.53988 9.62996C3.41736 10.8796 3.57455 12.1409 4.00005 13.3222C4.42555 14.5036 5.10868 15.5754 5.99988 16.46L11.2999 21.77C11.3928 21.8637 11.5034 21.9381 11.6253 21.9889C11.7472 22.0396 11.8779 22.0658 12.0099 22.0658C12.1419 22.0658 12.2726 22.0396 12.3945 21.9889C12.5163 21.9381 12.6269 21.8637 12.7199 21.77L17.9999 16.46C18.8911 15.5754 19.5742 14.5036 19.9997 13.3222C20.4252 12.1409 20.5824 10.8796 20.4599 9.62996V9.67996ZM16.5999 15.05L11.9999 19.65L7.39988 15.05C6.72197 14.372 6.20268 13.5523 5.87935 12.6497C5.55601 11.7471 5.43667 10.7842 5.52988 9.82996C5.6237 8.86106 5.93164 7.92512 6.43145 7.0898C6.93126 6.25449 7.61044 5.54067 8.41988 4.99996C9.48083 4.2952 10.7262 3.91926 11.9999 3.91926C13.2736 3.91926 14.5189 4.2952 15.5799 4.99996C16.3869 5.53858 17.0646 6.24924 17.5642 7.0809C18.0639 7.91256 18.3732 8.84456 18.4699 9.80996C18.5661 10.7674 18.4483 11.7342 18.1249 12.6405C17.8014 13.5468 17.2805 14.3698 16.5999 15.05Z" fill="#C37CD2"/>
</svg>
