<svg width="22" height="22" viewBox="0 0 22 22" fill="none" xmlns="http://www.w3.org/2000/svg">
<path fill-rule="evenodd" clip-rule="evenodd" d="M9.857 2.28024C9.8834 2.12275 9.8809 1.96117 9.84965 1.80473C9.81841 1.64829 9.75903 1.50004 9.6749 1.36846C9.59077 1.23688 9.48354 1.12454 9.35933 1.03785C9.23512 0.951166 9.09637 0.891832 8.951 0.863236C8.80563 0.834641 8.65648 0.837345 8.51207 0.871194C8.36766 0.905044 8.23082 0.969375 8.10936 1.06052C7.9879 1.15166 7.8842 1.26782 7.80418 1.40238C7.72417 1.53694 7.6694 1.68725 7.643 1.84474L6.9245 6.12499H3.5C3.20163 6.12499 2.91548 6.25339 2.7045 6.48195C2.49353 6.71051 2.375 7.0205 2.375 7.34374C2.375 7.66697 2.49353 7.97696 2.7045 8.20552C2.91548 8.43408 3.20163 8.56249 3.5 8.56249H6.515L5.6975 13.4375H2C1.70163 13.4375 1.41548 13.5659 1.2045 13.7945C0.993526 14.023 0.875 14.333 0.875 14.6562C0.875 14.9795 0.993526 15.2895 1.2045 15.518C1.41548 15.7466 1.70163 15.875 2 15.875H5.288L4.643 19.7197C4.58969 20.0378 4.6552 20.3658 4.8251 20.6315C4.99501 20.8973 5.25541 21.079 5.549 21.1367C5.8426 21.1945 6.14534 21.1235 6.39064 20.9395C6.63594 20.7554 6.80369 20.4733 6.857 20.1552L7.5755 15.875H12.788L12.143 19.7197C12.1166 19.8772 12.1191 20.0388 12.1503 20.1952C12.1816 20.3517 12.241 20.4999 12.3251 20.6315C12.4092 20.7631 12.5165 20.8754 12.6407 20.9621C12.7649 21.0488 12.9036 21.1081 13.049 21.1367C13.1944 21.1653 13.3435 21.1626 13.4879 21.1288C13.6323 21.0949 13.7692 21.0306 13.8906 20.9395C14.0121 20.8483 14.1158 20.7322 14.1958 20.5976C14.2758 20.463 14.3306 20.3127 14.357 20.1552L15.0755 15.875H18.5C18.7984 15.875 19.0845 15.7466 19.2955 15.518C19.5065 15.2895 19.625 14.9795 19.625 14.6562C19.625 14.333 19.5065 14.023 19.2955 13.7945C19.0845 13.5659 18.7984 13.4375 18.5 13.4375H15.485L16.3025 8.56249H20C20.2984 8.56249 20.5845 8.43408 20.7955 8.20552C21.0065 7.97696 21.125 7.66697 21.125 7.34374C21.125 7.0205 21.0065 6.71051 20.7955 6.48195C20.5845 6.25339 20.2984 6.12499 20 6.12499H16.712L17.357 2.28024C17.3834 2.12275 17.3809 1.96117 17.3497 1.80473C17.3184 1.64829 17.259 1.50004 17.1749 1.36846C17.0908 1.23688 16.9835 1.12454 16.8593 1.03785C16.7351 0.951167 16.5964 0.891832 16.451 0.863236C16.3056 0.834641 16.1565 0.837345 16.0121 0.871194C15.8677 0.905044 15.7308 0.969375 15.6094 1.06052C15.4879 1.15166 15.3842 1.26782 15.3042 1.40238C15.2242 1.53694 15.1694 1.68725 15.143 1.84474L14.4245 6.12499H9.212L9.857 2.28024ZM13.1975 13.4375L14.015 8.56249H8.8025L7.985 13.4375H13.1975Z" fill="#C37CD2"/>
</svg>
