<svg width="45" height="41" viewBox="0 0 45 41" fill="none" xmlns="http://www.w3.org/2000/svg">
<path d="M22.3867 28.1802C21.9911 28.1802 21.6044 28.2975 21.2755 28.5173C20.9466 28.7371 20.6903 29.0494 20.5389 29.4149C20.3875 29.7803 20.3479 30.1825 20.4251 30.5704C20.5023 30.9584 20.6927 31.3147 20.9724 31.5944C21.2521 31.8742 21.6085 32.0646 21.9965 32.1418C22.3844 32.219 22.7866 32.1794 23.152 32.028C23.5175 31.8766 23.8298 31.6203 24.0496 31.2914C24.2694 30.9625 24.3867 30.5758 24.3867 30.1802C24.3867 29.6498 24.1759 29.1411 23.8009 28.766C23.4258 28.3909 22.9171 28.1802 22.3867 28.1802ZM43.7267 31.1202L27.6267 3.12023C27.1063 2.18726 26.3462 1.41015 25.425 0.869168C24.5039 0.32819 23.4549 0.0429687 22.3867 0.0429688C21.3184 0.0429687 20.2695 0.32819 19.3483 0.869168C18.4271 1.41015 17.667 2.18726 17.1467 3.12023L1.14665 31.1202C0.608245 32.0283 0.318939 33.0623 0.307943 34.1179C0.296947 35.1735 0.56465 36.2133 1.08403 37.1323C1.6034 38.0514 2.35606 38.8171 3.26602 39.3523C4.17598 39.8874 5.21102 40.173 6.26665 40.1802H38.5067C39.5708 40.1907 40.6185 39.918 41.5425 39.3901C42.4664 38.8621 43.2334 38.0979 43.7646 37.1759C44.2959 36.2538 44.5723 35.207 44.5657 34.1429C44.559 33.0788 44.2694 32.0356 43.7267 31.1202ZM40.2667 35.1202C40.0914 35.4321 39.8356 35.6913 39.526 35.8707C39.2165 36.0501 38.8644 36.1432 38.5067 36.1402H6.26665C5.90887 36.1432 5.55685 36.0501 5.24729 35.8707C4.93773 35.6913 4.68196 35.4321 4.50665 35.1202C4.33112 34.8162 4.2387 34.4713 4.2387 34.1202C4.2387 33.7692 4.33112 33.4243 4.50665 33.1202L20.5067 5.12023C20.6745 4.79263 20.9295 4.5177 21.2435 4.32572C21.5576 4.13374 21.9186 4.03215 22.2867 4.03215C22.6547 4.03215 23.0157 4.13374 23.3298 4.32572C23.6438 4.5177 23.8988 4.79263 24.0667 5.12023L40.1667 33.1202C40.3651 33.4199 40.4791 33.7675 40.4967 34.1265C40.5143 34.4855 40.4348 34.8426 40.2667 35.1602V35.1202ZM22.3867 12.1802C21.8562 12.1802 21.3475 12.3909 20.9724 12.766C20.5974 13.1411 20.3867 13.6498 20.3867 14.1802V22.1802C20.3867 22.7107 20.5974 23.2194 20.9724 23.5944C21.3475 23.9695 21.8562 24.1802 22.3867 24.1802C22.9171 24.1802 23.4258 23.9695 23.8009 23.5944C24.1759 23.2194 24.3867 22.7107 24.3867 22.1802V14.1802C24.3867 13.6498 24.1759 13.1411 23.8009 12.766C23.4258 12.3909 22.9171 12.1802 22.3867 12.1802Z" fill="url(#paint0_linear_3823_3616)"/>
<defs>
<linearGradient id="paint0_linear_3823_3616" x1="14.5335" y1="-8.77513" x2="-21.3094" y2="21.1363" gradientUnits="userSpaceOnUse">
<stop stop-color="#14B4F9"/>
<stop offset="1" stop-color="#D778CE"/>
</linearGradient>
</defs>
</svg>
