<svg width="88" height="88" viewBox="0 0 88 88" fill="none" xmlns="http://www.w3.org/2000/svg">
<path d="M44 0C19.6996 0 0 19.6996 0 44C0 68.3018 19.6996 88 44 88C68.3018 88 88 68.3018 88 44C88 19.6996 68.3018 0 44 0ZM44 82.5866C22.7714 82.5866 5.5 65.2286 5.5 43.9998C5.5 22.7712 22.7714 5.49983 44 5.49983C65.2286 5.49983 82.5 22.7713 82.5 43.9998C82.5 65.2284 65.2286 82.5866 44 82.5866ZM38.6087 50.8515L35.7444 53.878L24.1188 42.2524C23.0449 41.1785 21.3042 41.1785 20.2289 42.2524C19.155 43.3263 19.155 45.067 20.2289 46.1409L33.84 59.7534C34.9139 60.8259 36.6547 60.8259 37.7299 59.7534C37.8537 59.6296 37.9596 59.4948 38.0559 59.3546L42.5 54.7413C43.5725 53.6674 43.5725 51.9267 42.5 50.8515C41.4248 49.7776 39.684 49.7776 38.6087 50.8515Z" fill="url(#paint0_linear_2586_42323)"/>
<defs>
<linearGradient id="paint0_linear_2586_42323" x1="28.2857" y1="-19.3333" x2="-48.5844" y2="38.8435" gradientUnits="userSpaceOnUse">
<stop stop-color="#14B4F9"/>
<stop offset="1" stop-color="#D778CE"/>
</linearGradient>
</defs>
</svg>
