<svg width="88" height="88" viewBox="0 0 88 88" fill="none" xmlns="http://www.w3.org/2000/svg">
<path d="M44 0C19.6996 0 0 19.6996 0 44C0 68.3018 19.6996 88 44 88C68.3018 88 88 68.3018 88 44C88 19.6996 68.3018 0 44 0ZM44 82.5866C22.7714 82.5866 5.5 65.2286 5.5 43.9998C5.5 22.7712 22.7714 5.49983 44 5.49983C65.2286 5.49983 82.5 22.7713 82.5 43.9998C82.5 65.2284 65.2286 82.5866 44 82.5866ZM28 46L24.1188 42.2524C23.0449 41.1785 21.3042 41.1785 20.2289 42.2524C19.155 43.3263 19.155 45.067 20.2289 46.1409L24.1188 50C24.1188 50 26.6188 52.5 28.6188 50.5C30.6188 48.5 28 46 28 46Z" fill="url(#paint0_linear_2586_42325)"/>
<defs>
<linearGradient id="paint0_linear_2586_42325" x1="28.2857" y1="-19.3333" x2="-48.5844" y2="38.8435" gradientUnits="userSpaceOnUse">
<stop stop-color="#14B4F9"/>
<stop offset="1" stop-color="#D778CE"/>
</linearGradient>
</defs>
</svg>
