<svg width="214" height="51" viewBox="0 0 214 51" fill="none" xmlns="http://www.w3.org/2000/svg">
<path d="M14.168 3.67383V19.5645H12.2871V11.5312H10.5293V18.7559H8.70117V3.97266H10.5293V9.93164H12.2871V3.67383H14.168ZM1.21289 15.6094V5.50195H3.18164V13.8867C4.55273 13.8604 6.04688 13.7373 7.7168 13.4121L7.91016 15.1172C5.76562 15.4951 3.94629 15.6094 2.26758 15.6094H1.21289ZM28.5293 3.67383V9.87891H30.8848V11.5137H28.5293V19.5293H26.5781V3.67383H28.5293ZM15.9961 15.1875C19.8633 13.2539 21.9551 10.5645 22.3418 6.94336H16.8574V5.32617H24.3281C24.3193 9.99316 22.3857 14.0977 17.1035 16.6992L15.9961 15.1875ZM48.4453 3.67383V6.87305H50.6602V8.49023H48.4453V11.6543H46.4941V3.67383H48.4453ZM36.0879 7.76953C36.0791 5.65137 37.8896 4.20117 40.3066 4.20117C42.7236 4.20117 44.5166 5.65137 44.5254 7.76953C44.5166 9.84375 42.7236 11.3291 40.3066 11.3203C37.8896 11.3291 36.0791 9.84375 36.0879 7.76953ZM38.0039 7.76953C37.9863 8.97363 38.9619 9.77344 40.3066 9.77344C41.6426 9.77344 42.6182 8.97363 42.627 7.76953C42.6182 6.56543 41.6426 5.7832 40.3066 5.7832C38.9619 5.7832 37.9863 6.56543 38.0039 7.76953ZM38.0566 13.8516V12.3398H48.4453V16.5059H40.0078V17.8242H48.9375V19.3711H38.0742V15.082H46.4941V13.8516H38.0566ZM64.4414 5.13281V6.66211C64.4238 8.63965 64.4238 10.8457 63.8086 14.168L61.8398 13.957C62.4639 10.8633 62.4639 8.60449 62.4727 6.69727H52.9805V5.13281H64.4414ZM51.4688 17.5078V15.9082H56.8125V10.3887H58.7461V15.9082H65.9531V17.5078H51.4688ZM76.9395 14.0098C76.9395 15.3369 77.5459 16.7168 78.9082 17.5957C80.2969 16.6553 80.9385 15.2139 80.9473 14.0098V13.3594H82.8633V14.0098C82.8545 15.6709 83.8389 17.2354 85.9219 17.8945L84.9727 19.3184C83.4258 18.7998 82.4062 17.7891 81.8525 16.5146C81.334 17.7715 80.4023 18.8789 78.9609 19.459C77.4492 18.9053 76.5 17.833 75.999 16.5762C75.4277 17.7979 74.417 18.791 72.9492 19.3184L71.9824 17.8945C74.0391 17.1738 75.0322 15.5566 75.041 14.0098V13.3594H76.9395V14.0098ZM71.5781 8.31445C71.5781 6.08203 73.4062 4.53516 75.8672 4.53516C78.3193 4.53516 80.1475 6.08203 80.1387 8.31445C80.1475 10.5205 78.3193 12.085 75.8672 12.0762C73.4062 12.085 71.5781 10.5205 71.5781 8.31445ZM73.4941 8.31445C73.4854 9.61523 74.4785 10.4502 75.8672 10.459C77.2295 10.4502 78.2227 9.61523 78.2227 8.31445C78.2227 7.01367 77.2295 6.17871 75.8672 6.1875C74.4785 6.17871 73.4854 7.01367 73.4941 8.31445ZM82.5645 12.6914V3.69141H84.5332V12.6914H82.5645ZM99.7207 8.17383V9.7207H88.7168V4.25391H90.6504V8.17383H99.7207ZM86.8359 13.1133V11.5664H101.355V13.1133H86.8359ZM88.5762 19.1953V14.5195H90.5273V17.6133H99.8262V19.1953H88.5762ZM115.629 4.71094V6.25781H114.24V10.2393C114.935 10.1865 115.611 10.1162 116.262 10.0371L116.402 11.4961C113.221 12.0059 109.521 12.0674 106.857 12.0762L106.646 10.459C107.218 10.459 107.833 10.459 108.475 10.4502V6.25781H107.068V4.71094H115.629ZM108.914 19.3711V13.1133H110.865V14.6777H117.264V13.1133H119.215V19.3711H108.914ZM110.355 10.4238C111.006 10.4062 111.674 10.3799 112.342 10.3535V6.25781H110.355V10.4238ZM110.865 17.7891H117.264V16.207H110.865V17.7891ZM117.264 12.498V3.67383H119.215V7.18945H121.43V8.82422H119.215V12.498H117.264ZM126.65 4.37695C128.707 4.36816 130.324 5.55469 130.72 7.29492H133.594V3.67383H135.545V12.1992H133.594V8.87695H130.737C130.359 10.6611 128.725 11.8652 126.65 11.8652C124.216 11.8652 122.449 10.3008 122.449 8.10352C122.449 5.93262 124.216 4.36816 126.65 4.37695ZM124.312 8.10352C124.312 9.37793 125.279 10.2217 126.65 10.2129C127.986 10.2217 128.944 9.37793 128.953 8.10352C128.944 6.8291 127.986 6.00293 126.65 6.01172C125.279 6.00293 124.312 6.8291 124.312 8.10352ZM125.068 19.3711V12.9375H127.002V14.625H133.594V12.9375H135.545V19.3711H125.068ZM127.002 17.7891H133.594V16.1367H127.002V17.7891ZM151.014 3.67383V19.582H149.045V3.67383H151.014ZM138.305 10.4414C138.296 7.01367 140.045 4.83398 142.453 4.83398C144.835 4.83398 146.593 7.01367 146.602 10.4414C146.593 13.8955 144.835 16.0664 142.453 16.0664C140.045 16.0664 138.296 13.8955 138.305 10.4414ZM140.186 10.4414C140.186 12.8848 141.108 14.2998 142.453 14.3086C143.789 14.2998 144.703 12.8848 144.703 10.4414C144.703 8.01562 143.789 6.5918 142.453 6.5918C141.108 6.5918 140.186 8.01562 140.186 10.4414ZM163.266 14.0098C163.266 15.3369 163.872 16.7168 165.234 17.5957C166.623 16.6553 167.265 15.2139 167.273 14.0098V13.3594H169.189V14.0098C169.181 15.6709 170.165 17.2354 172.248 17.8945L171.299 19.3184C169.752 18.7998 168.732 17.7891 168.179 16.5146C167.66 17.7715 166.729 18.8789 165.287 19.459C163.775 18.9053 162.826 17.833 162.325 16.5762C161.754 17.7979 160.743 18.791 159.275 19.3184L158.309 17.8945C160.365 17.1738 161.358 15.5566 161.367 14.0098V13.3594H163.266V14.0098ZM157.904 8.31445C157.904 6.08203 159.732 4.53516 162.193 4.53516C164.646 4.53516 166.474 6.08203 166.465 8.31445C166.474 10.5205 164.646 12.085 162.193 12.0762C159.732 12.085 157.904 10.5205 157.904 8.31445ZM159.82 8.31445C159.812 9.61523 160.805 10.4502 162.193 10.459C163.556 10.4502 164.549 9.61523 164.549 8.31445C164.549 7.01367 163.556 6.17871 162.193 6.1875C160.805 6.17871 159.812 7.01367 159.82 8.31445ZM168.891 12.6914V3.69141H170.859V12.6914H168.891ZM185.625 3.67383V9.70312H188.068V11.3027H185.625V19.582H183.674V3.67383H185.625ZM173.83 15.6973V5.18555H181.266V6.76758H175.781V14.0625C178.251 14.0537 180.211 13.9307 182.391 13.5527L182.619 15.2051C180.149 15.627 178.014 15.6973 175.148 15.6973H173.83ZM196.893 5.00977V6.27539H200.092V3.69141H202.043V15.2578H200.092V11.25H196.893V12.6211H189.422V5.00977H196.893ZM191.373 11.0918H194.959V6.55664H191.373V11.0918ZM191.566 19.248V14.1855H193.553V17.666H202.395V19.248H191.566ZM196.893 9.68555H200.092V7.875H196.893V9.68555ZM206.982 14.0977C207 11.8564 207.633 11.1709 208.74 10.4941C209.487 10.0107 210.067 9.42188 210.059 8.54297C210.067 7.55859 209.294 6.92578 208.336 6.92578C207.466 6.92578 206.622 7.48828 206.561 8.66602H204.363C204.425 6.30176 206.183 5.09766 208.354 5.09766C210.727 5.09766 212.353 6.41602 212.361 8.50781C212.353 9.94043 211.641 10.8721 210.498 11.5488C209.479 12.1729 209.057 12.7793 209.039 14.0977V14.2559H206.982V14.0977ZM206.701 16.7695C206.692 16.0312 207.316 15.4248 208.072 15.416C208.802 15.4248 209.426 16.0312 209.426 16.7695C209.426 17.5254 208.802 18.1406 208.072 18.1406C207.316 18.1406 206.692 17.5254 206.701 16.7695Z" fill="#0EB5F9"/>
<circle cx="105" cy="49" r="2" fill="#0EB5F9"/>
<circle cx="105" cy="43" r="2" fill="#0EB5F9"/>
<circle cx="105" cy="37" r="2" fill="#0EB5F9"/>
</svg>
