<svg width="217" height="38" viewBox="0 0 217 38" fill="none" xmlns="http://www.w3.org/2000/svg">
<g filter="url(#filter0_d_1626_21165)">
<path fill-rule="evenodd" clip-rule="evenodd" d="M14.5464 3.5C9.02354 3.5 4.54639 7.97715 4.54639 13.5V17.5C4.54639 21.5417 6.94412 25.0233 10.3947 26.6001L13.1625 31.83C13.5381 32.5396 14.5547 32.5396 14.9302 31.83L17.2218 27.5H202.546C208.069 27.5 212.546 23.0228 212.546 17.5V13.5C212.546 7.97715 208.069 3.5 202.546 3.5H14.5464Z" fill="white"/>
</g>
<path d="M21.1128 10.0312V12.3867H22.6831V13.1602H21.1128V15.375H20.1987V10.0312H21.1128ZM18.23 10.7227V14.9648H13.4136V10.7227H18.23ZM14.3159 11.4727V14.2266H17.3394V11.4727H14.3159ZM14.9722 16.3125V19.4062C15.5757 19.3887 16.3784 19.3008 17.1167 19.0547L17.2573 19.793C16.2378 20.1328 15.2534 20.168 14.5737 20.168H14.0815V16.3125H14.9722ZM22.1558 16.418V17.1211H16.894V16.418H19.0854V15.4922H19.9878V16.418H22.1558ZM19.519 17.4961C20.6558 17.5078 21.4644 18.0586 21.4761 18.9609C21.4644 19.8633 20.6558 20.4258 19.519 20.4258C18.3706 20.4258 17.5737 19.8633 17.5854 18.9609C17.5737 18.0586 18.3706 17.5078 19.519 17.4961ZM19.519 18.1523C18.8745 18.1523 18.4058 18.4688 18.4058 18.9609C18.4058 19.4531 18.8745 19.7812 19.519 19.7695C20.1753 19.7812 20.6323 19.4531 20.6323 18.9609C20.6323 18.4688 20.1753 18.1523 19.519 18.1523ZM32.8315 15.5273V16.2773H23.3394V15.5273H32.8315ZM31.7769 19.4531V20.2266H24.5698V17.1914H25.4956V19.4531H31.7769ZM28.0854 10.4062C30.3237 10.3945 31.7651 11.168 31.7651 12.4688C31.7651 13.7695 30.3237 14.543 28.0854 14.543C25.8237 14.543 24.394 13.7695 24.394 12.4688C24.394 11.168 25.8237 10.3945 28.0854 10.4062ZM28.0854 11.1445C26.4097 11.1445 25.3315 11.6484 25.3433 12.4688C25.3315 13.2891 26.4097 13.793 28.0854 13.793C29.7495 13.793 30.8276 13.2891 30.8276 12.4688C30.8276 11.6484 29.7495 11.1445 28.0854 11.1445ZM46.2495 15.9727V16.7344H43.73V20.4492H42.8042V16.7344H40.1323V20.4492H39.1831V16.7344H36.7104V15.9727H46.2495ZM41.4565 10.4531C43.6479 10.4531 45.1245 11.332 45.1245 12.7266C45.1245 14.1094 43.6479 14.9883 41.4565 14.9766C39.2651 14.9883 37.7886 14.1094 37.7886 12.7266C37.7886 11.332 39.2651 10.4531 41.4565 10.4531ZM41.4565 11.2031C39.8276 11.2031 38.7261 11.8008 38.7378 12.7266C38.7261 13.6523 39.8276 14.2383 41.4565 14.2383C43.0737 14.2383 44.187 13.6523 44.187 12.7266C44.187 11.8008 43.0737 11.2031 41.4565 11.2031ZM55.73 10.0312V20.4727H54.8042V14.5898H52.519V13.8281H54.8042V10.0312H55.73ZM50.7026 13.125C50.7026 14.8594 51.9448 16.7461 53.4683 17.4375L52.9175 18.1758C51.728 17.5957 50.7261 16.3359 50.2573 14.8828C49.7769 16.4238 48.7515 17.7598 47.562 18.3867L46.9995 17.6719C48.5112 16.9336 49.7651 14.9766 49.7769 13.125V11.8711H47.3979V11.1094H53.0933V11.8711H50.7026V13.125ZM66.9683 14.4141V15.1523H57.4644V14.4141H66.9683ZM65.8315 12.8086V13.5586H58.73V10.3945H65.7261V11.1328H59.6558V12.8086H65.8315ZM65.7378 16.0898V18.5039H59.5503V19.582H66.0542V20.332H58.6362V17.8125H64.8354V16.8047H58.6128V16.0898H65.7378ZM76.4253 10.0312V20.4727H75.4995V10.0312H76.4253ZM70.8823 10.8398C72.4292 10.8516 73.5425 12.2578 73.5425 14.4727C73.5425 16.6875 72.4292 18.0938 70.8823 18.0938C69.3237 18.0938 68.2222 16.6875 68.2222 14.4727C68.2222 12.2578 69.3237 10.8516 70.8823 10.8398ZM70.8823 11.6602C69.8394 11.6719 69.1128 12.7734 69.1128 14.4727C69.1128 16.1719 69.8394 17.2734 70.8823 17.2734C71.9253 17.2734 72.6519 16.1719 72.6519 14.4727C72.6519 12.7734 71.9253 11.6719 70.8823 11.6602ZM86.9956 10.8398V11.3906C86.9839 12.0703 86.9839 13.1133 86.7261 14.4727L85.8003 14.4023C86.0522 13.1543 86.0757 12.2695 86.0933 11.6133H81.8042V10.8398H86.9956ZM84.312 13.1484V15.3867C85.4663 15.3398 86.6616 15.2578 87.7456 15.1055L87.8042 15.7852C85.6245 16.1602 83.105 16.207 81.2534 16.207L81.1597 15.4453C81.8335 15.4395 82.5952 15.4336 83.3979 15.4102V13.1484H84.312ZM89.3862 10.0312V13.4297H90.9097V14.2148H89.3862V17.8711H88.4487V10.0312H89.3862ZM89.7261 19.4531V20.2266H82.7651V17.168H83.6909V19.4531H89.7261ZM100.191 10.043V15.9609H99.2769V10.043H100.191ZM100.191 16.5586V20.3086H93.4175V16.5586H100.191ZM94.3198 17.3086V19.5586H99.2886V17.3086H94.3198ZM95.2808 11.4727C95.269 12.9492 96.394 14.25 97.9292 14.7891L97.4604 15.4922C96.2534 15.0762 95.2925 14.1973 94.8237 13.0547C94.3608 14.2734 93.3882 15.2344 92.1401 15.6914L91.6714 14.9648C93.2534 14.4141 94.3433 13.0078 94.3433 11.4727V10.4531H95.2808V11.4727ZM110.925 10.7695V11.5195H109.859V14.4727C110.392 14.4434 110.919 14.3965 111.417 14.332L111.488 15.0352C109.367 15.3516 106.894 15.3867 105.113 15.3984L105.007 14.6133C105.423 14.6133 105.88 14.6133 106.355 14.6016V11.5195H105.3V10.7695H110.925ZM113.117 10.0312V12.457H114.687V13.2422H113.117V15.7969H112.203V10.0312H113.117ZM107.433 16.2539V17.5078H112.203V16.2539H113.117V20.3086H106.519V16.2539H107.433ZM107.433 19.5586H112.203V18.2461H107.433V19.5586ZM107.257 14.5898C107.814 14.5781 108.382 14.5605 108.957 14.5312V11.5195H107.257V14.5898ZM118.214 10.5234C119.615 10.5117 120.675 11.3262 120.875 12.5273H123.054V10.0312H123.98V15.6211H123.054V13.2891H120.886C120.699 14.5195 119.626 15.3398 118.214 15.3398C116.632 15.3398 115.507 14.3555 115.507 12.9258C115.507 11.5078 116.632 10.5117 118.214 10.5234ZM118.214 11.3086C117.148 11.2969 116.386 11.9648 116.386 12.9258C116.386 13.875 117.148 14.5664 118.214 14.5664C119.269 14.5664 120.019 13.875 120.019 12.9258C120.019 11.9648 119.269 11.2969 118.214 11.3086ZM118.191 16.1484V17.4727H123.054V16.1484H123.98V20.3086H117.265V16.1484H118.191ZM118.191 19.5586H123.054V18.2109H118.191V19.5586ZM130.46 10.7109C132.64 10.7109 134.269 11.8477 134.269 13.5703C134.269 15.3047 132.64 16.4414 130.46 16.4297C128.281 16.4414 126.652 15.3047 126.652 13.5703C126.652 11.8477 128.281 10.7109 130.46 10.7109ZM130.46 11.4609C128.785 11.4492 127.519 12.3281 127.531 13.5703C127.519 14.8359 128.785 15.6797 130.46 15.6797C132.125 15.6797 133.378 14.8359 133.378 13.5703C133.378 12.3281 132.125 11.4492 130.46 11.4609ZM135.253 18.293V19.0664H125.714V18.293H135.253ZM145.625 18.3867V19.1602H136.085V18.3867H140.375V16.418H137.281V13.207H143.515V11.5664H137.257V10.8047H144.417V13.957H138.195V15.6562H144.664V16.418H141.277V18.3867H145.625ZM158.972 14.9883V15.7617H149.468V14.9883H158.972ZM157.859 13.2422V13.9922H150.675V10.4531H157.789V11.2266H151.578V13.2422H157.859ZM154.214 16.6758C156.453 16.6758 157.789 17.3555 157.8 18.5508C157.789 19.7578 156.453 20.4258 154.214 20.4258C151.964 20.4258 150.617 19.7578 150.617 18.5508C150.617 17.3555 151.964 16.6758 154.214 16.6758ZM154.214 17.3906C152.539 17.4023 151.542 17.8242 151.554 18.5508C151.542 19.2891 152.539 19.6992 154.214 19.6992C155.867 19.6992 156.875 19.2891 156.875 18.5508C156.875 17.8242 155.867 17.4023 154.214 17.3906ZM169.367 15.7734V16.5352H159.828V15.7734H164.14V14.6719H161.07V12.1289H167.21V11.0508H161.035V10.3008H168.136V12.8203H161.984V13.9336H168.359V14.6719H165.042V15.7734H169.367ZM168.195 17.332V20.3555H167.269V18.082H160.894V17.332H168.195ZM179.058 10.043V16.5H178.179V13.6758H176.82V16.3359H175.941V10.207H176.82V12.9141H178.179V10.043H179.058ZM175.496 11.2266V11.9883H170.152V11.2266H172.378V10.0781H173.292V11.2266H175.496ZM172.835 12.5156C174.16 12.5156 175.062 13.207 175.074 14.2969C175.062 15.3633 174.16 16.0781 172.835 16.0781C171.523 16.0781 170.597 15.3633 170.609 14.2969C170.597 13.207 171.523 12.5156 172.835 12.5156ZM172.835 13.207C172.003 13.207 171.429 13.6289 171.429 14.2969C171.429 14.9531 172.003 15.3867 172.835 15.3867C173.667 15.3867 174.242 14.9531 174.242 14.2969C174.242 13.6289 173.667 13.207 172.835 13.207ZM173.902 17.168C173.89 18.0586 174.376 18.9844 175.367 19.5117C176.351 18.9375 176.855 17.9297 176.867 17.168V16.793H177.769V17.168C177.757 18.1875 178.554 19.2188 179.89 19.6289L179.457 20.332C178.408 19.9688 177.669 19.2598 177.312 18.4102C176.99 19.2363 176.357 20.0273 175.378 20.4141C174.371 20.0391 173.738 19.3008 173.433 18.457C173.046 19.2656 172.32 19.9688 171.324 20.332L170.878 19.6289C172.179 19.1836 173 18.1172 173 17.168V16.793H173.902V17.168ZM183.382 10.8398C184.8 10.8516 185.82 12.0645 185.972 14.0156H188.304V10.0312H189.218V20.4727H188.304V14.7773H185.984C185.873 16.8164 184.835 18.0938 183.382 18.0938C181.847 18.0938 180.769 16.6875 180.769 14.4727C180.769 12.2578 181.847 10.8516 183.382 10.8398ZM183.382 11.6602C182.351 11.6719 181.648 12.7734 181.648 14.4727C181.648 16.1719 182.351 17.2734 183.382 17.2734C184.402 17.2734 185.117 16.1719 185.117 14.4727C185.117 12.7734 184.402 11.6719 183.382 11.6602ZM200.492 18.3398V19.1133H190.953V18.3398H193.32V15.5273C192.429 15.0645 191.89 14.3145 191.89 13.3711C191.89 11.7539 193.472 10.6992 195.699 10.6875C197.925 10.6992 199.507 11.7539 199.507 13.3711C199.507 14.2969 198.986 15.041 198.125 15.5039V18.3398H200.492ZM195.699 11.4492C193.988 11.4375 192.781 12.2109 192.781 13.3711C192.781 14.5312 193.988 15.3164 195.699 15.3164C197.398 15.3164 198.617 14.5312 198.617 13.3711C198.617 12.2109 197.398 11.4375 195.699 11.4492ZM194.222 18.3398H197.199V15.8555C196.748 15.9785 196.244 16.043 195.699 16.043C195.166 16.043 194.667 15.9844 194.222 15.8672V18.3398ZM203.011 11.0156L202.929 17.1094H201.945L201.863 11.0156H203.011ZM202.437 19.5703C202.027 19.5703 201.675 19.2305 201.687 18.8086C201.675 18.3984 202.027 18.0586 202.437 18.0586C202.847 18.0586 203.187 18.3984 203.187 18.8086C203.187 19.2305 202.847 19.5703 202.437 19.5703Z" fill="black"/>
<defs>
<filter id="filter0_d_1626_21165" x="0.546387" y="0.5" width="216" height="36.8622" filterUnits="userSpaceOnUse" color-interpolation-filters="sRGB">
<feFlood flood-opacity="0" result="BackgroundImageFix"/>
<feColorMatrix in="SourceAlpha" type="matrix" values="0 0 0 0 0 0 0 0 0 0 0 0 0 0 0 0 0 0 127 0" result="hardAlpha"/>
<feOffset dy="1"/>
<feGaussianBlur stdDeviation="2"/>
<feComposite in2="hardAlpha" operator="out"/>
<feColorMatrix type="matrix" values="0 0 0 0 0 0 0 0 0 0 0 0 0 0 0 0 0 0 0.25 0"/>
<feBlend mode="normal" in2="BackgroundImageFix" result="effect1_dropShadow_1626_21165"/>
<feBlend mode="normal" in="SourceGraphic" in2="effect1_dropShadow_1626_21165" result="shape"/>
</filter>
</defs>
</svg>
