<svg width="156" height="133" viewBox="0 0 156 133" fill="none" xmlns="http://www.w3.org/2000/svg">
<ellipse cx="78" cy="118" rx="78" ry="15" fill="url(#paint0_radial_7706_25571)"/>
<path d="M77.2695 65.8941L77.9534 63.4894L76.3106 63.0222L75.2781 64.3827L77.2695 65.8941ZM58.4915 90.6358L56.5001 89.1244H56.5001L58.4915 90.6358ZM54.0006 35.2572L56.5001 35.3079L56.5008 35.2749L56.5006 35.2419L54.0006 35.2572ZM79.3153 1.1577C77.9608 1.42565 77.08 2.74088 77.348 4.09534C77.6159 5.4498 78.9311 6.33059 80.2856 6.06264L79.3153 1.1577ZM69.6363 10.4769C70.7836 9.70876 71.091 8.15598 70.3229 7.00865C69.5548 5.86132 68.002 5.55391 66.8547 6.32203L69.6363 10.4769ZM57.322 15.8547C56.5539 17.002 56.8613 18.5548 58.0087 19.3229C59.156 20.091 60.7088 19.7836 61.4769 18.6363L57.322 15.8547ZM57.0626 29.2856C57.3306 27.9311 56.4498 26.6159 55.0953 26.348C53.7409 26.08 52.4257 26.9608 52.1577 28.3153L57.0626 29.2856ZM51.5 35.1106C51.5022 36.4913 52.6232 37.6089 54.0039 37.6068C55.3846 37.6047 56.5021 36.4837 56.5 35.103L51.5 35.1106ZM56.5003 35.1956C56.494 33.8149 55.3696 32.7008 53.9889 32.7071C52.6082 32.7134 51.494 33.8379 51.5004 35.2186L56.5003 35.1956ZM51.5007 35.2329C51.4797 36.6135 52.5818 37.7496 53.9624 37.7706C55.343 37.7916 56.4791 36.6894 56.5001 35.3089L51.5007 35.2329ZM56.5001 35.3109C56.507 33.9302 55.3934 32.8053 54.0127 32.7984C52.632 32.7914 51.5071 33.905 51.5001 35.2857L56.5001 35.3109ZM51.5001 42.0386C51.5001 43.4193 52.6193 44.5386 54.0001 44.5386C55.3808 44.5386 56.5001 43.4193 56.5001 42.0386H51.5001ZM56.5001 55.4917C56.5001 54.1109 55.3808 52.9917 54.0001 52.9917C52.6193 52.9917 51.5001 54.1109 51.5001 55.4917H56.5001ZM51.5001 68.9447C51.5001 70.3255 52.6193 71.4447 54.0001 71.4447C55.3808 71.4447 56.5001 70.3255 56.5001 68.9447H51.5001ZM56.5001 82.3978C56.5001 81.0171 55.3808 79.8978 54.0001 79.8978C52.6193 79.8978 51.5001 81.0171 51.5001 82.3978H56.5001ZM65.1774 85.9617C66.0121 84.8619 65.7972 83.2937 64.6974 82.4589C63.5975 81.6242 62.0293 81.8391 61.1946 82.9389L65.1774 85.9617ZM70.5836 70.5681C69.7489 71.6679 69.9638 73.2362 71.0636 74.0709C72.1634 74.9056 73.7317 74.6907 74.5664 73.5909L70.5836 70.5681ZM78.9148 68.874C80.266 69.158 81.5916 68.2929 81.8756 66.9417C82.1597 65.5905 81.2946 64.2649 79.9434 63.9809L78.9148 68.874ZM84.0043 64.5433C82.6268 64.4489 81.4336 65.4891 81.3393 66.8666C81.2449 68.2441 82.2851 69.4372 83.6626 69.5316L84.0043 64.5433ZM92.7981 68.9557C94.1526 68.6877 95.0333 67.3725 94.7654 66.018C94.4974 64.6635 93.1822 63.7828 91.8277 64.0507L92.7981 68.9557ZM102.477 59.6365C101.33 60.4046 101.022 61.9574 101.79 63.1047C102.559 64.252 104.111 64.5594 105.259 63.7913L102.477 59.6365ZM114.791 54.2587C115.559 53.1113 115.252 51.5586 114.105 50.7904C112.957 50.0223 111.405 50.3297 110.636 51.4771L114.791 54.2587ZM115.051 40.8278C114.783 42.1822 115.664 43.4974 117.018 43.7654C118.372 44.0333 119.688 43.1526 119.956 41.7981L115.051 40.8278ZM119.956 28.3153C119.688 26.9608 118.372 26.08 117.018 26.348C115.664 26.6159 114.783 27.9311 115.051 29.2856L119.956 28.3153ZM110.636 18.6363C111.405 19.7836 112.957 20.091 114.105 19.3229C115.252 18.5548 115.559 17.002 114.791 15.8547L110.636 18.6363ZM105.259 6.32203C104.111 5.55391 102.559 5.86132 101.79 7.00865C101.022 8.15598 101.33 9.70875 102.477 10.4769L105.259 6.32203ZM91.8278 6.06264C93.1822 6.33059 94.4974 5.4498 94.7654 4.09534C95.0333 2.74088 94.1526 1.42565 92.7981 1.1577L91.8278 6.06264ZM82.0601 45.1271C80.7847 44.5982 79.3221 45.2034 78.7932 46.4788C78.2643 47.7542 78.8695 49.2168 80.1449 49.7457L82.0601 45.1271ZM71.4289 41.0297C71.9577 42.3051 73.4204 42.9103 74.6958 42.3814C75.9712 41.8525 76.5764 40.3898 76.0475 39.1144L71.4289 41.0297ZM76.0475 30.6147C76.5764 29.3393 75.9712 27.8767 74.6958 27.3478C73.4204 26.8189 71.9577 27.424 71.4289 28.6994L76.0475 30.6147ZM80.1449 19.9834C78.8695 20.5123 78.2643 21.975 78.7932 23.2504C79.3221 24.5258 80.7847 25.131 82.0601 24.6021L80.1449 19.9834ZM90.5598 24.6021C91.8352 25.131 93.2979 24.5258 93.8268 23.2504C94.3557 21.975 93.7505 20.5123 92.4751 19.9834L90.5598 24.6021ZM101.191 28.6994C100.662 27.424 99.1996 26.8189 97.9242 27.3478C96.6488 27.8767 96.0436 29.3393 96.5725 30.6147L101.191 28.6994ZM96.5725 39.1144C96.0436 40.3898 96.6488 41.8525 97.9242 42.3814C99.1996 42.9103 100.662 42.3051 101.191 41.0297L96.5725 39.1144ZM92.4751 49.7457C93.7505 49.2168 94.3557 47.7542 93.8268 46.4788C93.2979 45.2034 91.8352 44.5982 90.5598 45.1271L92.4751 49.7457ZM86.0567 0.5C83.752 0.5 81.4976 0.725963 79.3153 1.1577L80.2856 6.06264C82.1501 5.69378 84.0795 5.5 86.0567 5.5V0.5ZM66.8547 6.32203C63.0873 8.84423 59.8442 12.0873 57.322 15.8547L61.4769 18.6363C63.6355 15.412 66.412 12.6355 69.6363 10.4769L66.8547 6.32203ZM52.1577 28.3153C51.726 30.4976 51.5 32.752 51.5 35.0567H56.5C56.5 33.0795 56.6938 31.1501 57.0626 29.2856L52.1577 28.3153ZM51.5 35.0567C51.5 35.0747 51.5 35.0927 51.5 35.1106L56.5 35.103C56.5 35.0875 56.5 35.0721 56.5 35.0567H51.5ZM51.5004 35.2186C51.5005 35.2365 51.5006 35.2545 51.5007 35.2725L56.5006 35.2419C56.5005 35.2265 56.5004 35.211 56.5003 35.1956L51.5004 35.2186ZM51.5011 35.2065C51.5009 35.2153 51.5008 35.2241 51.5007 35.2329L56.5001 35.3089C56.5001 35.3085 56.5001 35.3082 56.5001 35.3079L51.5011 35.2065ZM51.5001 35.2857C51.5001 35.2945 51.5001 35.3032 51.5001 35.312H56.5001C56.5001 35.3117 56.5001 35.3113 56.5001 35.3109L51.5001 35.2857ZM51.5001 35.312V42.0386H56.5001V35.312H51.5001ZM51.5001 55.4917V68.9447H56.5001V55.4917H51.5001ZM51.5001 82.3978V89.1244H56.5001V82.3978H51.5001ZM51.5001 89.1244C51.5001 93.915 57.5866 95.9632 60.4829 92.1472L56.5001 89.1244C56.4898 89.1379 56.483 89.1447 56.4807 89.1469C56.4784 89.149 56.479 89.1481 56.4827 89.1456C56.4863 89.1432 56.4914 89.1403 56.4974 89.1375C56.5034 89.1348 56.509 89.1328 56.514 89.1314C56.5238 89.1287 56.5275 89.1293 56.5237 89.1292C56.5219 89.1292 56.5187 89.1289 56.5143 89.1281C56.51 89.1273 56.5051 89.1261 56.5001 89.1244C56.495 89.1227 56.4904 89.1207 56.4864 89.1187C56.4825 89.1167 56.4798 89.115 56.4783 89.1139C56.4752 89.1117 56.4785 89.1134 56.4847 89.1216C56.4878 89.1256 56.4911 89.1306 56.4942 89.1364C56.4974 89.1423 56.4996 89.1476 56.501 89.1518C56.5024 89.156 56.5024 89.1571 56.5019 89.154C56.5014 89.1509 56.5001 89.1414 56.5001 89.1244H51.5001ZM60.4829 92.1472L65.1774 85.9617L61.1946 82.9389L56.5001 89.1244L60.4829 92.1472ZM74.5664 73.5909L79.2609 67.4055L75.2781 64.3827L70.5836 70.5681L74.5664 73.5909ZM76.5856 68.2987C77.3516 68.5165 78.1283 68.7086 78.9148 68.874L79.9434 63.9809C79.2713 63.8396 78.6077 63.6755 77.9534 63.4894L76.5856 68.2987ZM83.6626 69.5316C84.4539 69.5858 85.2523 69.6133 86.0567 69.6133V64.6133C85.3664 64.6133 84.682 64.5897 84.0043 64.5433L83.6626 69.5316ZM86.0567 69.6133C88.3614 69.6133 90.6157 69.3874 92.7981 68.9557L91.8277 64.0507C89.9632 64.4196 88.0338 64.6133 86.0567 64.6133V69.6133ZM105.259 63.7913C109.026 61.2691 112.269 58.026 114.791 54.2587L110.636 51.4771C108.478 54.7013 105.701 57.4779 102.477 59.6365L105.259 63.7913ZM119.956 41.7981C120.387 39.6157 120.613 37.3614 120.613 35.0567H115.613C115.613 37.0338 115.42 38.9632 115.051 40.8278L119.956 41.7981ZM120.613 35.0567C120.613 32.752 120.387 30.4976 119.956 28.3153L115.051 29.2856C115.42 31.1501 115.613 33.0795 115.613 35.0567H120.613ZM114.791 15.8547C112.269 12.0873 109.026 8.84422 105.259 6.32203L102.477 10.4769C105.701 12.6355 108.478 15.412 110.636 18.6363L114.791 15.8547ZM92.7981 1.1577C90.6157 0.725963 88.3614 0.5 86.0567 0.5V5.5C88.0338 5.5 89.9632 5.69378 91.8278 6.06264L92.7981 1.1577ZM86.31 45.9687C84.7998 45.9687 83.3659 45.6686 82.0601 45.1271L80.1449 49.7457C82.0471 50.5345 84.131 50.9687 86.31 50.9687V45.9687ZM76.0475 39.1144C75.506 37.8086 75.2059 36.3748 75.2059 34.8646H70.2059C70.2059 37.0435 70.64 39.1274 71.4289 41.0297L76.0475 39.1144ZM75.2059 34.8646C75.2059 33.3543 75.506 31.9205 76.0475 30.6147L71.4289 28.6994C70.64 30.6017 70.2059 32.6856 70.2059 34.8646H75.2059ZM82.0601 24.6021C83.3659 24.0606 84.7998 23.7605 86.31 23.7605V18.7605C84.131 18.7605 82.0471 19.1946 80.1449 19.9834L82.0601 24.6021ZM86.31 23.7605C87.8202 23.7605 89.2541 24.0606 90.5598 24.6021L92.4751 19.9834C90.5728 19.1946 88.489 18.7605 86.31 18.7605V23.7605ZM96.5725 30.6147C97.114 31.9205 97.4141 33.3543 97.4141 34.8646H102.414C102.414 32.6856 101.98 30.6017 101.191 28.6994L96.5725 30.6147ZM97.4141 34.8646C97.4141 36.3748 97.114 37.8086 96.5725 39.1144L101.191 41.0297C101.98 39.1274 102.414 37.0435 102.414 34.8646H97.4141ZM90.5598 45.1271C89.2541 45.6686 87.8202 45.9687 86.31 45.9687V50.9687C88.489 50.9687 90.5728 50.5345 92.4751 49.7457L90.5598 45.1271Z" fill="#0EB5F9"/>
<defs>
<radialGradient id="paint0_radial_7706_25571" cx="0" cy="0" r="1" gradientUnits="userSpaceOnUse" gradientTransform="translate(78 118) rotate(90) scale(15 78)">
<stop stop-color="#D9D9D9"/>
<stop offset="1" stop-color="#D9D9D9" stop-opacity="0"/>
</radialGradient>
</defs>
</svg>
