<svg width="343" height="260" viewBox="0 0 343 260" fill="none" xmlns="http://www.w3.org/2000/svg">
<rect x="6" y="20.0895" width="332" height="226.911" rx="20" stroke="#F2F4F6" stroke-width="2"/>
<path d="M31.0293 50.7461C33.6133 50.7598 35.4727 52.0176 35.4727 53.9317C35.4727 55.7432 33.8594 56.9395 31.5488 57.0967V59.6465H36.6211V60.5488H25.4922V59.6465H30.4961V57.0967C28.1992 56.9326 26.5859 55.7363 26.5859 53.9317C26.5859 52.0176 28.4521 50.7598 31.0293 50.7461ZM27.625 53.9317C27.6182 55.333 29.0605 56.2422 31.0293 56.2559C32.998 56.2422 34.4336 55.333 34.4336 53.9317C34.4336 52.5576 32.998 51.6279 31.0293 51.6348C29.0605 51.6279 27.6182 52.5576 27.625 53.9317ZM47.3945 52.8789V53.7676H39.0957V50.1582H40.1484V52.8789H47.3945ZM37.5781 55.8457V54.9707H48.707V55.8457H37.5781ZM38.9727 57.7871V56.9395H47.2715V59.7832H40.0801V61.082H47.709V61.9434H39V58.9629H46.2188V57.7871H38.9727ZM57.3887 51.8672C57.375 53.6035 58.6123 55.1279 60.3965 55.7363L59.7949 56.5703C58.4551 56.0713 57.4023 55.0801 56.876 53.8018C56.3564 55.2578 55.249 56.3858 53.7793 56.9395L53.1914 56.0645C55.0645 55.4082 56.3086 53.7949 56.3223 51.9082V50.6504H57.3887V51.8672ZM55.1738 59.8106C55.167 58.3477 56.7188 57.5069 59.248 57.5137C61.7705 57.5069 63.3223 58.3477 63.3223 59.8106C63.3223 61.2598 61.7705 62.0801 59.248 62.0801C56.7188 62.0801 55.167 61.2598 55.1738 59.8106ZM56.2402 59.8106C56.2334 60.6924 57.3818 61.2256 59.248 61.2188C61.1074 61.2256 62.2559 60.6924 62.2559 59.8106C62.2559 58.9014 61.1074 58.3613 59.248 58.3613C57.3818 58.3613 56.2334 58.9014 56.2402 59.8106ZM59.4941 53.4531V52.5645H62.2012V49.9531H63.2812V57.1582H62.2012V53.4531H59.4941ZM71.4023 51.0879C71.4092 52.8037 73.6377 54.2803 75.832 54.5879L75.3945 55.4629C73.5078 55.1485 71.6348 54.1026 70.8555 52.6123C70.0762 54.1162 68.21 55.1485 66.3164 55.4629L65.8789 54.5879C68.0732 54.2803 70.2949 52.8311 70.2949 51.0879V50.3906H71.4023V51.0879ZM65.3047 57.7051V56.8027H76.3789V57.7051H71.3477V62.1074H70.2949V57.7051H65.3047ZM88.5332 59.7012V60.6035H77.4043V59.7012H82.4082V57.4043H78.7988V53.6582H86.0723V51.7442H78.7715V50.8555H87.125V54.5332H79.8652V56.5156H87.4121V57.4043H83.4609V59.7012H88.5332ZM102.82 52.8516V53.7402H99.0879V55.0664H104.133V55.9688H93.0039V55.0664H98.0352V53.7402H94.5215V50.1582H95.5742V52.8516H102.82ZM94.3984 57.8145V56.9668H102.697V59.7559H95.5059V61.082H103.135V61.9434H94.4258V58.9629H101.645V57.8145H94.3984ZM115.18 49.9531V62.1348H114.113V55.5313H111.748V54.6289H114.113V49.9531H115.18ZM105.541 51.9766V51.0879H111.01V55.3399H106.648V58.293C108.747 58.293 110.265 58.2246 112.035 57.8965L112.117 58.7988C110.292 59.127 108.713 59.2022 106.512 59.209H105.582V54.4512H109.971V51.9766H105.541ZM126.719 49.9531V52.7012H128.551V53.6035H126.719V56.1465H125.652V49.9531H126.719ZM117.23 55.5586C120.259 54.875 122.05 53.3711 122.234 51.4434H117.777V50.5547H123.41C123.417 53.6104 121.188 55.6133 117.654 56.461L117.23 55.5586ZM118.967 57.5684V56.6934H126.719V59.7012H120.047V61.1094H127.17V61.9981H118.994V58.8672H125.652V57.5684H118.967ZM139.393 49.9668V58.9492H138.312V54.6152H135.619V53.7129H138.312V49.9668H139.393ZM129.508 56.666C132.304 55.7432 134.252 53.9932 134.498 51.7988H130.123V50.8965H135.674C135.66 54.0205 133.425 56.3994 129.973 57.5274L129.508 56.666ZM131.654 61.8477V58.0332H132.748V60.9453H139.707V61.8477H131.654ZM151.82 49.9531V62.1074H150.781V49.9531H151.82ZM141.895 59.1817V51.457H146.475V52.3457H142.934V58.2793C144.69 58.2656 145.798 58.2041 147.104 57.9102L147.213 58.8262C145.805 59.1133 144.615 59.1748 142.66 59.1817H141.895ZM145.654 55.5039V54.6016H148.307V50.2539H149.332V61.4785H148.307V55.5039H145.654ZM167.092 49.9531V62.1074H166.025V55.7363H163.127V54.8477H166.025V49.9531H167.092ZM157.043 58.9356C160.331 57.3428 161.855 54.9981 162.074 52.1543H157.576V51.2793H163.154C163.147 54.7246 161.691 57.7803 157.631 59.7969L157.043 58.9356ZM179.178 49.9531V62.1074H178.098V49.9531H179.178ZM169.279 58.9492C172.567 57.3906 174.249 55.0596 174.488 52.1543H169.84V51.2793H175.582C175.568 54.7725 173.941 57.8692 169.867 59.8242L169.279 58.9492ZM194.408 50.6914V51.6348C194.408 52.6602 194.408 53.8906 194.087 55.5449H195.871V56.4473H184.742V55.5449H193.021C193.349 53.8633 193.349 52.667 193.342 51.6348V51.5664H186.15V50.6914H194.408ZM186.219 61.834V57.8145H187.285V60.9317H194.777V61.834H186.219ZM206.918 49.9531V62.1348H205.838V55.7363H203.172V54.8477H205.838V49.9531H206.918ZM196.869 58.9219C198.653 58.0879 199.986 56.0098 199.986 53.918V52.9473H197.197V52.0723H199.986V50.1856H201.053V52.0723H203.801V52.9473H201.039V53.918C201.039 55.9209 202.413 57.8965 204.211 58.7031L203.596 59.5371C202.208 58.9082 201.066 57.5752 200.526 55.9756C200 57.6709 198.872 59.086 197.484 59.7559L196.869 58.9219ZM219.359 49.9531V62.1074H218.32V49.9531H219.359ZM209.092 55.2031C209.099 52.6192 210.124 50.9854 211.703 50.9785C213.18 50.9854 214.178 52.4072 214.314 54.6973H215.887V50.2129H216.912V61.4922H215.887V55.586H214.321C214.219 57.9512 213.2 59.4346 211.703 59.4277C210.124 59.4346 209.099 57.7871 209.092 55.2031ZM210.104 55.2031C210.09 57.1719 210.719 58.416 211.703 58.4024C212.694 58.416 213.323 57.1719 213.316 55.2031C213.323 53.2276 212.694 51.9902 211.703 51.9902C210.719 51.9902 210.09 53.2276 210.104 55.2031ZM234.357 52.8516V53.7402H230.625V55.0664H235.67V55.9688H224.541V55.0664H229.572V53.7402H226.059V50.1582H227.111V52.8516H234.357ZM225.936 57.8145V56.9668H234.234V59.7559H227.043V61.082H234.672V61.9434H225.963V58.9629H233.182V57.8145H225.936ZM249.834 50.5547V51.4024C249.827 52.3252 249.827 53.3916 249.506 54.834L248.453 54.711C248.768 53.3027 248.768 52.3047 248.768 51.416H241.494V50.5547H249.834ZM240.182 56.5293V55.668H244.762V53.207H245.814V55.668H251.242V56.5293H240.182ZM240.975 61.2188C243.176 60.8906 245.11 59.6738 245.117 58.0606V57.5H246.197V58.0606C246.204 59.6738 248.139 60.8906 250.354 61.2188L249.943 62.0527C248.091 61.752 246.396 60.877 245.657 59.5508C244.919 60.877 243.224 61.752 241.371 62.0527L240.975 61.2188ZM258.201 57.0899V58.6074H260.416V57.0899H261.414V61.9434H257.189V57.0899H258.201ZM255.973 53.2891C255.966 51.6279 257.278 50.5 259.131 50.5C260.765 50.5 262.002 51.4229 262.234 52.8242H264.777V49.9531H265.857V56.3926H264.777V53.7129H262.241C262.029 55.1485 260.778 56.0918 259.131 56.0918C257.278 56.0918 255.966 54.957 255.973 53.2891ZM256.998 53.2891C256.998 54.4033 257.88 55.1963 259.131 55.2031C260.354 55.1963 261.236 54.4033 261.236 53.2891C261.236 52.1817 260.354 51.4024 259.131 51.4024C257.88 51.4024 256.998 52.1817 256.998 53.2891ZM258.201 61.0957H260.416V59.4277H258.201V61.0957ZM261.578 61.2188C263.041 60.6104 263.813 59.2774 263.82 58.0469V57.0078H264.887V58.0469C264.873 59.3252 265.646 60.6719 267.129 61.2188L266.568 62.0391C265.447 61.5947 264.716 60.7334 264.34 59.7285C263.957 60.7197 263.212 61.5811 262.139 62.0391L261.578 61.2188ZM279.256 54.8067V55.709H277.287V62.1074H276.221V49.9531H277.287V54.8067H279.256ZM268.387 59.0176V51.1563H269.453V58.1152C271.23 58.1152 273.042 57.9785 275.045 57.5547L275.182 58.4707C273.083 58.8945 271.196 59.0176 269.357 59.0176H268.387ZM281.922 58.1426C281.936 56.3106 282.496 55.75 283.439 55.1758C284.007 54.834 284.438 54.2871 284.438 53.5215C284.438 52.5918 283.713 51.9971 282.811 52.0039C282.031 51.9971 281.245 52.4619 281.17 53.5899H279.926C279.994 51.9287 281.245 50.9649 282.811 50.9649C284.526 50.9649 285.641 52.0654 285.641 53.5762C285.641 54.6494 285.135 55.3945 284.287 55.9141C283.433 56.4336 283.125 56.96 283.098 58.1426V58.211H281.922V58.1426ZM281.676 60.1934C281.662 59.7149 282.072 59.3184 282.551 59.3184C283.036 59.3184 283.433 59.7149 283.426 60.1934C283.433 60.6787 283.036 61.0752 282.551 61.082C282.072 61.0752 281.662 60.6787 281.676 60.1934Z" fill="#9F9F9F"/>
<path d="M54.0723 77.3711C54.0723 79.3945 55.2617 81.5274 57.2578 82.3613L56.4238 83.5645C54.9609 82.9287 53.8945 81.6367 53.3271 80.0645C52.7598 81.7598 51.6729 83.1817 50.2305 83.8652L49.3555 82.6758C51.3037 81.7735 52.5205 79.4697 52.5273 77.3711V76.332H49.8066V75.0742H56.7793V76.332H54.0723V77.3711ZM58.1602 86.2168V73.8574H59.6914V86.2168H58.1602ZM71.8594 81.7461V86.2168H70.3418V82.9492H63.4375V81.7461H71.8594ZM61.6738 77.5352C61.6738 75.7852 63.0752 74.5274 64.9414 74.541C65.96 74.5342 66.8486 74.917 67.4297 75.5664H70.3418V73.8574H71.8594V81.1582H70.3418V79.5176H67.4434C66.8555 80.1738 65.9668 80.5703 64.9414 80.5703C63.0752 80.5703 61.6738 79.3125 61.6738 77.5352ZM63.123 77.5352C63.123 78.6084 63.8818 79.2783 64.9414 79.2852C65.9531 79.2783 66.7256 78.6084 66.7324 77.5352C66.7256 76.5029 65.9531 75.8194 64.9414 75.8262C63.8818 75.8194 63.123 76.5029 63.123 77.5352ZM68.0859 78.2871H70.3418V76.8106H68.0928C68.1475 77.043 68.1816 77.2822 68.1816 77.5352C68.1816 77.7949 68.1475 78.0479 68.0859 78.2871ZM151.416 73.8574V86.2305H149.885V73.8574H151.416ZM141.531 79.1211C141.524 76.4551 142.885 74.7598 144.758 74.7598C146.61 74.7598 147.978 76.4551 147.984 79.1211C147.978 81.8076 146.61 83.4961 144.758 83.4961C142.885 83.4961 141.524 81.8076 141.531 79.1211ZM142.994 79.1211C142.994 81.0215 143.712 82.1221 144.758 82.1289C145.797 82.1221 146.508 81.0215 146.508 79.1211C146.508 77.2344 145.797 76.127 144.758 76.127C143.712 76.127 142.994 77.2344 142.994 79.1211ZM164.514 80.1465V81.3496H153.221V80.1465H164.514ZM154.615 75.3067V74.1172H163.119V77.2891H156.16V78.1777H163.365V79.3399H154.656V76.1817H161.602V75.3067H154.615ZM154.697 86.0664V82.2383H163.16V86.0664H154.697ZM156.188 84.836H161.656V83.4414H156.188V84.836ZM167.74 84.0293L166.592 87.8574H165.293L166.004 84.0293H167.74ZM179.43 75.0742C179.416 78.7998 178.295 82.0537 173.701 84.3027L172.895 83.127C175.021 82.0879 176.34 80.8506 177.099 79.3672L173.168 79.7227L172.977 78.4238L177.584 78.1367C177.755 77.5625 177.857 76.9473 177.912 76.3047H173.605V75.0742H179.43ZM181.521 86.2168V73.8574H183.053V86.2168H181.521ZM195.262 73.8711V86.2031H193.717V83.3731H191.092V82.2246H193.717V73.8711H195.262ZM184.775 80.2149C187.1 80.208 190.189 80.2012 192.869 79.832L192.965 80.9531C191.83 81.1445 190.661 81.2676 189.52 81.3428V85.834H187.988V81.418C186.908 81.459 185.883 81.459 184.967 81.459L184.775 80.2149ZM185.664 76.9063C185.664 75.4365 186.977 74.4043 188.836 74.4043C190.654 74.4043 191.98 75.4365 191.98 76.9063C191.98 78.4102 190.654 79.3877 188.836 79.3945C186.977 79.3877 185.664 78.4102 185.664 76.9063ZM187.1 76.9063C187.093 77.7334 187.797 78.2324 188.836 78.2324C189.82 78.2324 190.531 77.7334 190.531 76.9063C190.531 76.0996 189.827 75.5664 188.836 75.5664C187.797 75.5664 187.093 76.0996 187.1 76.9063ZM206.965 79.6543V80.8711H198.297V74.9375H206.869V76.168H199.801V79.6543H206.965ZM196.93 84.6445V83.3867H208.223V84.6445H196.93Z" fill="#C37CD2"/>
<path d="M83.7129 73.9531V86.1348H82.6328V73.9531H83.7129ZM74.1426 79.1348C74.1494 76.5508 75.4346 74.9033 77.2461 74.8965C79.0508 74.9033 80.3564 76.5508 80.3496 79.1348C80.3564 81.7256 79.0508 83.3662 77.2461 83.3594C75.4346 83.3662 74.1494 81.7256 74.1426 79.1348ZM75.1816 79.1348C75.1816 81.1104 76.0293 82.4092 77.2461 82.4024C78.4697 82.4092 79.3105 81.1104 79.3105 79.1348C79.3105 77.1592 78.4697 75.8604 77.2461 75.8535C76.0293 75.8604 75.1816 77.1592 75.1816 79.1348ZM97.166 78.8067V79.709H95.1973V86.1074H94.1309V73.9531H95.1973V78.8067H97.166ZM86.2969 83.0176V75.1563H87.3633V82.1152C89.1406 82.1152 90.9521 81.9785 92.9551 81.5547L93.0918 82.4707C90.9932 82.8945 89.1064 83.0176 87.2676 83.0176H86.2969ZM108.35 74.8145V75.6895H107.105V79.1485C107.728 79.1006 108.343 79.0459 108.924 78.9707L109.006 79.791C106.531 80.167 103.646 80.2012 101.568 80.2149L101.445 79.2988C101.931 79.2988 102.464 79.2988 103.018 79.292V75.6895H101.787V74.8145H108.35ZM103.209 85.9434V81.2129H104.275V82.6758H109.84V81.2129H110.906V85.9434H103.209ZM104.07 79.2783C104.72 79.2647 105.383 79.2442 106.053 79.21V75.6895H104.07V79.2783ZM104.275 85.0684H109.84V83.5371H104.275V85.0684ZM109.84 80.6797V73.9531H110.906V76.7832H112.738V77.6992H110.906V80.6797H109.84ZM116.854 74.5274C118.48 74.5205 119.725 75.4707 119.957 76.8652H122.5V73.9531H123.58V80.4746H122.5V77.7539H119.964C119.752 79.1895 118.501 80.1465 116.854 80.1465C115.001 80.1465 113.688 78.9981 113.695 77.3301C113.688 75.6826 115.001 74.5205 116.854 74.5274ZM114.721 77.3301C114.721 78.4375 115.603 79.2373 116.854 79.2442C118.077 79.2373 118.959 78.4375 118.959 77.3301C118.959 76.209 118.077 75.4297 116.854 75.4434C115.603 75.4297 114.721 76.209 114.721 77.3301ZM115.746 85.9434V81.0899H116.826V82.6348H122.5V81.0899H123.58V85.9434H115.746ZM116.826 85.0684H122.5V83.4961H116.826V85.0684ZM129.582 74.8418C131.489 74.8486 132.843 76.0108 132.85 77.6992C132.843 79.3945 131.489 80.5498 129.582 80.5567C127.661 80.5498 126.294 79.3945 126.301 77.6992C126.294 76.0108 127.661 74.8486 129.582 74.8418ZM125.672 82.5391C127.914 82.5459 131.011 82.5254 133.697 82.1289L133.779 82.9219C130.997 83.4414 128.01 83.4551 125.822 83.4551L125.672 82.5391ZM127.354 77.6992C127.347 78.834 128.283 79.6133 129.582 79.6133C130.867 79.6133 131.804 78.834 131.797 77.6992C131.804 76.5713 130.867 75.7852 129.582 75.7852C128.283 75.7852 127.347 76.5713 127.354 77.6992ZM134.504 86.1348V73.9531H135.57V86.1348H134.504ZM220.227 79.5996V80.4473H209.098V79.5996H220.227ZM210.438 82.2246V81.418H218.832V84.002H211.531V85.1641H219.229V85.9434H210.451V83.2637H217.766V82.2246H210.438ZM210.506 75.1016V74.3223H218.791V76.8379H211.613V77.9043H219.01V78.6836H210.547V76.0996H217.711V75.1016H210.506ZM231 74.7461C230.993 77.7949 228.812 79.9824 225.312 80.9805L224.861 80.1328C227.767 79.3125 229.626 77.6992 229.858 75.6348H225.49V74.7461H231ZM226.912 85.9434V81.418H234.801V85.9434H226.912ZM227.951 85.0684H233.734V82.2793H227.951V85.0684ZM231.027 78V77.0977H233.721V73.9668H234.801V80.8985H233.721V78H231.027ZM240.447 76.332C240.454 77.7197 241.377 79.1143 242.936 79.7227L242.361 80.5567C241.206 80.085 240.372 79.1895 239.941 78.1162C239.49 79.292 238.615 80.3311 237.426 80.8574L236.838 80.0235C238.438 79.3125 239.415 77.7197 239.422 76.332V74.7051H240.447V76.332ZM238.957 82.8672V81.9785H247.146V86.1074H246.094V82.8672H238.957ZM243.496 81.2402V74.1856H244.508V77.1387H246.121V73.9668H247.146V81.3086H246.121V78.041H244.508V81.2402H243.496ZM254.994 76.0586V76.9336H248.896V76.0586H251.426V74.3223H252.492V76.0586H254.994ZM249.334 80.5156C249.334 78.9024 250.435 77.7608 251.945 77.7539C253.477 77.7608 254.57 78.9024 254.584 80.5156C254.57 82.1494 253.477 83.2979 251.945 83.3047C250.435 83.2979 249.334 82.1494 249.334 80.5156ZM250.291 80.5156C250.291 81.5957 250.981 82.3682 251.945 82.3613C252.916 82.3682 253.627 81.5957 253.627 80.5156C253.627 79.4492 252.916 78.6699 251.945 78.6563C250.981 78.6699 250.291 79.4492 250.291 80.5156ZM255.623 85.5059V74.2539H256.635V79.0801H258.248V73.9531H259.273V86.1074H258.248V79.9688H256.635V85.5059H255.623ZM275.666 83.6602V84.5488H264.537V83.6602H269.541V81.0352H265.85V74.8145H266.93V77.0156H273.246V74.8145H274.299V81.0352H270.594V83.6602H275.666ZM266.93 80.1602H273.246V77.8906H266.93V80.1602ZM280.246 77.4121C280.246 79.3467 281.189 81.4317 282.803 82.3887L282.188 83.2227C281.012 82.5117 280.171 81.2129 279.747 79.7295C279.303 81.3496 278.4 82.7442 277.184 83.4824L276.5 82.6758C278.182 81.6914 279.207 79.5381 279.207 77.4531V75.1016H280.246V77.4121ZM281.463 79.2305V78.3145H283.527V74.2129H284.539V85.4922H283.527V79.2305H281.463ZM286.016 86.1074V73.9531H287.055V86.1074H286.016ZM299.865 83.6465V84.5488H288.736V83.6465H291.498V80.3721C290.459 79.832 289.83 78.957 289.83 77.8496C289.83 75.9697 291.676 74.7324 294.273 74.7188C296.871 74.7324 298.717 75.9697 298.717 77.8496C298.717 78.9365 298.108 79.7979 297.104 80.3379V83.6465H299.865ZM290.869 77.8496C290.862 79.21 292.277 80.1192 294.273 80.1192C296.249 80.1192 297.678 79.21 297.678 77.8496C297.678 76.4893 296.249 75.5938 294.273 75.6074C292.277 75.5938 290.862 76.4893 290.869 77.8496ZM292.551 83.6465H296.023V80.7549C295.497 80.8916 294.909 80.9668 294.273 80.9668C293.651 80.9668 293.07 80.8985 292.551 80.7617V83.6465Z" fill="black"/>
<rect x="25" y="70" width="20" height="20" rx="10" fill="#EDFAFF"/>
<path d="M30.7659 76.7763L34.8239 80.1892C35.0228 80.3564 35.0584 80.6591 34.9042 80.8718L30.8461 86.4707C30.5733 86.8471 30 86.6451 30 86.1726V77.1608C30 76.7468 30.4576 76.5171 30.7659 76.7763Z" fill="#0EB5F9"/>
<path fill-rule="evenodd" clip-rule="evenodd" d="M35.5 71.6667C32.4624 71.6667 30 74.1291 30 77.1667C30 80.2042 32.4624 82.6667 35.5 82.6667C38.5376 82.6667 41 80.2042 41 77.1667C41 74.1291 38.5376 71.6667 35.5 71.6667ZM35.5434 79.4678C36.8325 79.4678 37.8775 78.4228 37.8775 77.1337C37.8775 75.8446 36.8325 74.7996 35.5434 74.7996C34.2543 74.7996 33.2093 75.8446 33.2093 77.1337C33.2093 78.4228 34.2543 79.4678 35.5434 79.4678Z" fill="#0EB5F9"/>
<path d="M36.6211 115.646V116.549H25.4922V115.646H28.2539V112.372C27.2148 111.832 26.5859 110.957 26.5859 109.85C26.5859 107.97 28.4316 106.732 31.0293 106.719C33.627 106.732 35.4727 107.97 35.4727 109.85C35.4727 110.937 34.8643 111.798 33.8594 112.338V115.646H36.6211ZM27.625 109.85C27.6182 111.21 29.0332 112.119 31.0293 112.119C33.0049 112.119 34.4336 111.21 34.4336 109.85C34.4336 108.489 33.0049 107.594 31.0293 107.607C29.0332 107.594 27.6182 108.489 27.625 109.85ZM29.3066 115.646H32.7793V112.755C32.2529 112.892 31.665 112.967 31.0293 112.967C30.4072 112.967 29.8262 112.898 29.3066 112.762V115.646ZM47.6816 106.5V107.375H43.8262C43.8604 108.763 45.8906 109.836 48.0508 110.068L47.6543 110.916C45.665 110.684 43.7988 109.788 43.1289 108.435C42.4658 109.795 40.6064 110.684 38.6035 110.916L38.2207 110.068C40.3467 109.836 42.3975 108.776 42.4316 107.375H38.6035V106.5H47.6816ZM37.5918 112.529V111.668H48.666V112.529H37.5918ZM38.9453 117.943V113.842H47.3125V117.943H38.9453ZM40.0117 117.068H46.2598V114.703H40.0117V117.068ZM60.1504 106.814V107.689H58.9062V111.148C59.5283 111.101 60.1436 111.046 60.7246 110.971L60.8066 111.791C58.332 112.167 55.4473 112.201 53.3691 112.215L53.2461 111.299C53.7314 111.299 54.2646 111.299 54.8184 111.292V107.689H53.5879V106.814H60.1504ZM55.0098 117.943V113.213H56.0762V114.676H61.6406V113.213H62.707V117.943H55.0098ZM55.8711 111.278C56.5205 111.265 57.1836 111.244 57.8535 111.21V107.689H55.8711V111.278ZM56.0762 117.068H61.6406V115.537H56.0762V117.068ZM61.6406 112.68V105.953H62.707V108.783H64.5391V109.699H62.707V112.68H61.6406ZM68.6543 106.527C70.2812 106.521 71.5254 107.471 71.7578 108.865H74.3008V105.953H75.3809V112.475H74.3008V109.754H71.7646C71.5527 111.189 70.3018 112.146 68.6543 112.146C66.8018 112.146 65.4893 110.998 65.4961 109.33C65.4893 107.683 66.8018 106.521 68.6543 106.527ZM66.5215 109.33C66.5215 110.438 67.4033 111.237 68.6543 111.244C69.8779 111.237 70.7598 110.438 70.7598 109.33C70.7598 108.209 69.8779 107.43 68.6543 107.443C67.4033 107.43 66.5215 108.209 66.5215 109.33ZM67.5469 117.943V113.09H68.627V114.635H74.3008V113.09H75.3809V117.943H67.5469ZM68.627 117.068H74.3008V115.496H68.627V117.068ZM87.4258 105.953V118.135H86.3457V105.953H87.4258ZM77.8555 111.135C77.8623 108.551 79.1475 106.903 80.959 106.896C82.7637 106.903 84.0693 108.551 84.0625 111.135C84.0693 113.726 82.7637 115.366 80.959 115.359C79.1475 115.366 77.8623 113.726 77.8555 111.135ZM78.8945 111.135C78.8945 113.11 79.7422 114.409 80.959 114.402C82.1826 114.409 83.0234 113.11 83.0234 111.135C83.0234 109.159 82.1826 107.86 80.959 107.854C79.7422 107.86 78.8945 109.159 78.8945 111.135ZM102.52 105.953V108.701H104.352V109.604H102.52V112.188H101.453V105.953H102.52ZM93.5371 111.709V106.76H99.1562V111.709H93.5371ZM94.3164 117.779V113.281H95.3555V116.897C96.0596 116.87 96.9961 116.768 97.8574 116.48L98.0215 117.342C96.8389 117.731 95.6836 117.786 94.8906 117.779H94.3164ZM94.5898 110.848H98.1172V107.635H94.5898V110.848ZM97.5977 114.225V113.404H100.154V112.324H101.207V113.404H103.736V114.225H97.5977ZM98.4043 116.371C98.3975 115.318 99.3203 114.669 100.66 114.662C101.993 114.669 102.93 115.318 102.943 116.371C102.93 117.424 101.993 118.08 100.66 118.08C99.3203 118.08 98.3975 117.424 98.4043 116.371ZM99.3613 116.371C99.3613 116.952 99.9014 117.328 100.66 117.314C101.419 117.328 101.959 116.952 101.959 116.371C101.959 115.804 101.419 115.435 100.66 115.428C99.9014 115.435 99.3613 115.804 99.3613 116.371ZM116.191 112.365V113.24H105.117V112.365H116.191ZM106.348 108.797C106.348 107.272 108.016 106.377 110.654 106.391C113.266 106.377 114.94 107.272 114.947 108.797C114.94 110.308 113.266 111.217 110.654 111.217C108.016 111.217 106.348 110.308 106.348 108.797ZM106.553 117.848V114.307H107.633V116.945H114.961V117.848H106.553ZM107.455 108.797C107.448 109.761 108.692 110.342 110.654 110.342C112.603 110.342 113.847 109.761 113.854 108.797C113.847 107.847 112.603 107.252 110.654 107.252C108.692 107.252 107.448 107.847 107.455 108.797ZM127.621 105.953V118.107H126.582V105.953H127.621ZM117.695 115.182V107.457H122.275V108.346H118.734V114.279C120.491 114.266 121.599 114.204 122.904 113.91L123.014 114.826C121.605 115.113 120.416 115.175 118.461 115.182H117.695ZM121.455 111.504V110.602H124.107V106.254H125.133V117.479H124.107V111.504H121.455ZM143.945 113.021V113.91H138.873V118.107H137.82V113.91H132.816V113.021H143.945ZM134.252 111.367V106.637H142.496V111.367H134.252ZM135.305 110.52H141.43V107.512H135.305V110.52ZM156.004 112.283V113.172H144.93V112.283H156.004ZM145.613 110.369C147.746 110.021 149.92 108.571 149.92 106.91V106.281H151.027V106.91C151.021 108.537 153.215 110.021 155.32 110.369L154.883 111.217C153.058 110.882 151.239 109.829 150.474 108.387C149.708 109.836 147.883 110.875 146.051 111.217L145.613 110.369ZM146.365 117.848V114.348H147.445V116.945H154.773V117.848H146.365ZM167.488 106.814V107.689H166.244V111.148C166.866 111.101 167.481 111.046 168.062 110.971L168.145 111.791C165.67 112.167 162.785 112.201 160.707 112.215L160.584 111.299C161.069 111.299 161.603 111.299 162.156 111.292V107.689H160.926V106.814H167.488ZM162.348 117.943V113.213H163.414V114.676H168.979V113.213H170.045V117.943H162.348ZM163.209 111.278C163.858 111.265 164.521 111.244 165.191 111.21V107.689H163.209V111.278ZM163.414 117.068H168.979V115.537H163.414V117.068ZM168.979 112.68V105.953H170.045V108.783H171.877V109.699H170.045V112.68H168.979ZM175.992 106.527C177.619 106.521 178.863 107.471 179.096 108.865H181.639V105.953H182.719V112.475H181.639V109.754H179.103C178.891 111.189 177.64 112.146 175.992 112.146C174.14 112.146 172.827 110.998 172.834 109.33C172.827 107.683 174.14 106.521 175.992 106.527ZM173.859 109.33C173.859 110.438 174.741 111.237 175.992 111.244C177.216 111.237 178.098 110.438 178.098 109.33C178.098 108.209 177.216 107.43 175.992 107.443C174.741 107.43 173.859 108.209 173.859 109.33ZM174.885 117.943V113.09H175.965V114.635H181.639V113.09H182.719V117.943H174.885ZM175.965 117.068H181.639V115.496H175.965V117.068ZM190.279 106.172C192.979 106.172 194.565 106.917 194.572 108.264C194.565 109.645 192.979 110.39 190.279 110.396C187.565 110.39 185.973 109.645 185.973 108.264C185.973 106.917 187.565 106.172 190.279 106.172ZM184.742 112.092V111.217H195.816V112.092H184.742ZM186.082 113.965V113.145H194.395V115.865H187.176V117.123H194.764V117.971H186.109V115.072H193.342V113.965H186.082ZM187.094 108.264C187.08 109.111 188.263 109.576 190.279 109.576C192.296 109.576 193.472 109.111 193.479 108.264C193.472 107.464 192.296 106.985 190.279 106.979C188.263 106.985 187.08 107.464 187.094 108.264ZM209.762 105.953V110.902H211.73V111.805H209.762V118.107H208.695V105.953H209.762ZM200.438 114.949C203.575 113.391 205.284 111.046 205.53 108.168H200.998V107.266H206.617C206.61 110.704 204.997 113.842 201.039 115.797L200.438 114.949ZM223.584 115.66V116.549H212.455V115.66H217.459V113.035H213.768V106.814H214.848V109.016H221.164V106.814H222.217V113.035H218.512V115.66H223.584ZM214.848 112.16H221.164V109.891H214.848V112.16ZM230.707 107.02V108.1H233.551V105.967H234.631V114.84H233.551V111.6H230.707V112.693H225.129V107.02H230.707ZM226.195 111.832H229.654V107.908H226.195V111.832ZM226.77 117.848V114.047H227.85V116.945H234.904V117.848H226.77ZM230.707 110.711H233.551V109.002H230.707V110.711ZM246.225 109.576V111.012H251.283V111.9H240.154V111.012H245.172V109.576H246.225ZM240.756 109.508C242.854 109.337 244.898 108.428 245.001 107.184H241.18V106.336H250.258V107.184H246.409C246.512 108.428 248.535 109.337 250.654 109.508L250.299 110.314C248.275 110.123 246.368 109.33 245.712 108.052C245.056 109.33 243.142 110.123 241.111 110.314L240.756 109.508ZM241.207 114.361V113.514H245.172V112.365H246.238V113.514H250.23V114.361H241.207ZM242.041 116.563C242.034 115.51 243.34 114.97 245.705 114.963C248.05 114.97 249.383 115.51 249.383 116.563C249.383 117.629 248.05 118.183 245.705 118.176C243.34 118.183 242.034 117.629 242.041 116.563ZM243.121 116.563C243.121 117.123 244.064 117.438 245.705 117.424C247.353 117.438 248.282 117.123 248.289 116.563C248.282 116.002 247.353 115.722 245.705 115.715C244.064 115.722 243.121 116.002 243.121 116.563ZM257.805 106.746C260.341 106.753 262.248 108.079 262.248 110.082C262.248 112.105 260.341 113.432 257.805 113.418C255.269 113.432 253.361 112.105 253.361 110.082C253.361 108.079 255.269 106.753 257.805 106.746ZM252.268 116.494V115.592H263.396V116.494H252.268ZM254.387 110.082C254.373 111.559 255.843 112.543 257.805 112.543C259.753 112.543 261.209 111.559 261.209 110.082C261.209 108.626 259.753 107.614 257.805 107.621C255.843 107.614 254.373 108.626 254.387 110.082ZM274.43 105.953V118.135H273.363V112.953H270.834V112.051H273.363V109.631H270.93V108.729H273.363V105.953H274.43ZM264.791 107.949V107.061H270.137V111.381H265.898V114.375C267.724 114.375 269.234 114.307 271.08 114.02L271.176 114.922C269.234 115.223 267.676 115.291 265.734 115.291H264.832V110.506H269.084V107.949H264.791ZM287.842 110.807V111.709H285.873V118.107H284.807V105.953H285.873V110.807H287.842ZM276.973 115.018V107.156H278.039V114.115C279.816 114.115 281.628 113.979 283.631 113.555L283.768 114.471C281.669 114.895 279.782 115.018 277.943 115.018H276.973ZM289.852 117.082C289.373 117.075 288.963 116.679 288.977 116.193C288.963 115.715 289.373 115.318 289.852 115.318C290.337 115.318 290.733 115.715 290.727 116.193C290.733 116.679 290.337 117.075 289.852 117.082ZM293.406 117.082C292.928 117.075 292.518 116.679 292.531 116.193C292.518 115.715 292.928 115.318 293.406 115.318C293.892 115.318 294.288 115.715 294.281 116.193C294.288 116.679 293.892 117.075 293.406 117.082Z" fill="#9F9F9F"/>
<path d="M53.6348 132.496C53.6416 133.952 54.8584 135.285 56.6562 135.818L56.1504 136.639C54.749 136.215 53.6621 135.313 53.1221 134.157C52.5957 135.429 51.4678 136.413 50.0254 136.885L49.4922 136.037C51.3037 135.49 52.5752 134.096 52.582 132.496V132.264H49.834V131.375H52.582V129.898H53.6621V131.375H56.3828V132.264H53.6348V132.496ZM50.7227 141.232C52.6777 140.918 54.4551 139.852 54.6328 138.553H51.2012V137.678H59.2129V138.553H55.7676C55.9385 139.824 57.7295 140.918 59.6777 141.232L59.2812 142.066C57.5039 141.772 55.8906 140.891 55.1934 139.674C54.5029 140.884 52.8965 141.752 51.1328 142.053L50.7227 141.232ZM57.9277 137.021V129.953H58.9941V132.961H60.8262V133.863H58.9941V137.021H57.9277ZM71.6406 129.953V142.107H70.5605V129.953H71.6406ZM61.7422 138.949C65.0303 137.391 66.7119 135.06 66.9512 132.154H62.3027V131.279H68.0449C68.0312 134.772 66.4043 137.869 62.3301 139.824L61.7422 138.949ZM83.3438 130.869V136.242H77.7246V130.869H83.3438ZM78.75 138.676V137.814H86.707V142.135H85.6406V138.676H78.75ZM78.7773 135.367H82.3047V131.73H78.7773V135.367ZM85.6406 137.158V129.953H86.707V133.125H88.5391V134.027H86.707V137.158H85.6406ZM95.4434 130.869V136.242H89.8242V130.869H95.4434ZM90.8496 138.676V137.814H98.8066V142.135H97.7402V138.676H90.8496ZM90.877 135.367H94.4043V131.73H90.877V135.367ZM97.7402 137.158V129.953H98.8066V133.125H100.639V134.027H98.8066V137.158H97.7402ZM110.906 129.912V132.865H112.752V133.754H110.906V136.639H109.84V129.912H110.906ZM101.432 131.922V131.061H104.521V129.83H105.588V131.061H108.678V131.922H101.432ZM102.129 134.465C102.122 133.234 103.284 132.476 105.055 132.469C106.818 132.476 107.967 133.234 107.98 134.465C107.967 135.702 106.818 136.454 105.055 136.461C103.284 136.454 102.122 135.702 102.129 134.465ZM103.154 138.074V137.268H110.906V139.961H104.234V141.15H111.357V141.971H103.182V139.168H109.84V138.074H103.154ZM103.154 134.465C103.147 135.196 103.899 135.654 105.055 135.654C106.203 135.654 106.955 135.196 106.969 134.465C106.955 133.74 106.203 133.269 105.055 133.262C103.899 133.269 103.147 133.74 103.154 134.465ZM125.098 130.199V133.521H126.506V129.953H127.531V138.99H126.506V134.396H125.098V138.594H124.086V130.199H125.098ZM117.4 136.721V131.143H119.957V132.018H118.398V135.825C118.856 135.812 119.451 135.757 120.094 135.6L120.203 136.488C119.178 136.714 118.385 136.714 117.865 136.721H117.4ZM119.314 141.848V137.938H120.395V140.945H127.873V141.848H119.314ZM120.572 136.721V131.143H123.238V132.018H121.584V135.832C122.11 135.818 122.739 135.764 123.443 135.586L123.566 136.488C122.541 136.714 121.728 136.714 121.078 136.721H120.572ZM217.41 130.746C219.946 130.753 221.854 132.079 221.854 134.082C221.854 136.105 219.946 137.432 217.41 137.418C214.874 137.432 212.967 136.105 212.967 134.082C212.967 132.079 214.874 130.753 217.41 130.746ZM211.873 140.494V139.592H223.002V140.494H211.873ZM213.992 134.082C213.979 135.559 215.448 136.543 217.41 136.543C219.358 136.543 220.814 135.559 220.814 134.082C220.814 132.626 219.358 131.614 217.41 131.621C215.448 131.614 213.979 132.626 213.992 134.082ZM235.102 139.701V140.604H223.973V139.701H228.977V137.404H225.367V133.658H232.641V131.744H225.34V130.855H233.693V134.533H226.434V136.516H233.98V137.404H230.029V139.701H235.102ZM249.662 129.953V136.242H248.582V133.084H245.875V132.195H248.582V129.953H249.662ZM239.572 135.408C241.404 134.8 242.662 133.275 242.676 131.498V130.35H243.729V131.498C243.715 133.091 244.973 134.554 246.75 135.135L246.176 135.969C244.829 135.49 243.756 134.533 243.216 133.303C242.696 134.69 241.596 135.75 240.16 136.27L239.572 135.408ZM241.787 137.719V136.857H249.662V139.756H242.867V141.082H250.113V141.943H241.814V138.936H248.596V137.719H241.787ZM261.762 129.953V137.199H260.682V134.014H258.234V133.125H260.682V129.953H261.762ZM251.74 136.229C253.545 135.579 254.83 133.932 254.83 132.195V131.744H252.082V130.842H258.631V131.744H255.91V132.182C255.91 133.768 257.127 135.278 258.904 135.887L258.344 136.748C256.983 136.256 255.924 135.23 255.397 133.98C254.878 135.401 253.75 136.536 252.301 137.09L251.74 136.229ZM253.654 139.838C253.647 138.409 255.199 137.575 257.729 137.582C260.251 137.575 261.803 138.409 261.803 139.838C261.803 141.273 260.251 142.094 257.729 142.107C255.199 142.094 253.647 141.273 253.654 139.838ZM254.721 139.838C254.714 140.72 255.862 141.253 257.729 141.246C259.588 141.253 260.736 140.72 260.736 139.838C260.736 138.949 259.588 138.416 257.729 138.416C255.862 138.416 254.714 138.949 254.721 139.838ZM273.191 129.953V134.971H275.229V135.859H273.191V142.107H272.125V129.953H273.191ZM263.717 132.797V131.908H266.848V130.104H267.914V131.908H270.949V132.797H263.717ZM264.414 136.598C264.407 134.957 265.665 133.809 267.395 133.809C269.11 133.809 270.361 134.957 270.375 136.598C270.361 138.245 269.11 139.387 267.395 139.387C265.665 139.387 264.407 138.245 264.414 136.598ZM265.439 136.598C265.433 137.705 266.26 138.484 267.395 138.471C268.516 138.484 269.336 137.705 269.35 136.598C269.336 135.497 268.516 134.704 267.395 134.711C266.26 134.704 265.433 135.497 265.439 136.598ZM285.633 131.184V132.4C285.619 133.891 285.619 135.559 285.182 138.006L284.088 137.883C284.546 135.559 284.546 133.856 284.553 132.4V132.072H277.061V131.184H285.633ZM275.885 140.385V139.496H280.232V135.148H281.285V139.496H286.959V140.385H275.885ZM53.1289 153.385C53.1289 155.381 54.0928 157.445 55.7129 158.32L55.0703 159.168C53.8945 158.498 53.0537 157.254 52.6162 155.791C52.165 157.384 51.2627 158.744 50.0527 159.469L49.3555 158.676C51.0508 157.705 52.0967 155.538 52.0898 153.453V151.102H53.1289V153.385ZM56.1641 161.492V150.213H57.2031V154.848H58.8711V149.953H59.9102V162.107H58.8711V155.736H57.2031V161.492H56.1641ZM72.7207 159.701V160.604H61.5918V159.701H66.5957V157.404H62.9863V153.658H70.2598V151.744H62.959V150.855H71.3125V154.533H64.0527V156.516H71.5996V157.404H67.6484V159.701H72.7207ZM84.8066 156.133V157.021H79.8711V159.51H78.791V157.021H73.6777V156.133H84.8066ZM74.9355 152.715C74.9287 151.204 76.6309 150.274 79.2285 150.268C81.8262 150.274 83.5078 151.204 83.5078 152.715C83.5078 154.212 81.8262 155.142 79.2285 155.135C76.6309 155.142 74.9287 154.212 74.9355 152.715ZM75.1133 161.848V158.293H76.1934V160.932H83.5625V161.848H75.1133ZM76.084 152.715C76.0703 153.658 77.335 154.26 79.2285 154.26C81.1152 154.26 82.373 153.658 82.373 152.715C82.373 151.744 81.1152 151.149 79.2285 151.143C77.335 151.149 76.0703 151.744 76.084 152.715ZM96.25 150.814V151.689H95.0059V155.148C95.6279 155.101 96.2432 155.046 96.8242 154.971L96.9062 155.791C94.4316 156.167 91.5469 156.201 89.4688 156.215L89.3457 155.299C89.8311 155.299 90.3643 155.299 90.918 155.292V151.689H89.6875V150.814H96.25ZM91.1094 161.943V157.213H92.1758V158.676H97.7402V157.213H98.8066V161.943H91.1094ZM91.9707 155.278C92.6201 155.265 93.2832 155.244 93.9531 155.21V151.689H91.9707V155.278ZM92.1758 161.068H97.7402V159.537H92.1758V161.068ZM97.7402 156.68V149.953H98.8066V152.783H100.639V153.699H98.8066V156.68H97.7402ZM104.754 150.527C106.381 150.521 107.625 151.471 107.857 152.865H110.4V149.953H111.48V156.475H110.4V153.754H107.864C107.652 155.189 106.401 156.146 104.754 156.146C102.901 156.146 101.589 154.998 101.596 153.33C101.589 151.683 102.901 150.521 104.754 150.527ZM102.621 153.33C102.621 154.438 103.503 155.237 104.754 155.244C105.978 155.237 106.859 154.438 106.859 153.33C106.859 152.209 105.978 151.43 104.754 151.443C103.503 151.43 102.621 152.209 102.621 153.33ZM103.646 161.943V157.09H104.727V158.635H110.4V157.09H111.48V161.943H103.646ZM104.727 161.068H110.4V159.496H104.727V161.068ZM119.041 150.172C121.741 150.172 123.327 150.917 123.334 152.264C123.327 153.645 121.741 154.39 119.041 154.396C116.327 154.39 114.734 153.645 114.734 152.264C114.734 150.917 116.327 150.172 119.041 150.172ZM113.504 156.092V155.217H124.578V156.092H113.504ZM114.844 157.965V157.145H123.156V159.865H115.938V161.123H123.525V161.971H114.871V159.072H122.104V157.965H114.844ZM115.855 152.264C115.842 153.111 117.024 153.576 119.041 153.576C121.058 153.576 122.233 153.111 122.24 152.264C122.233 151.464 121.058 150.985 119.041 150.979C117.024 150.985 115.842 151.464 115.855 152.264ZM138.879 153.221V154.082H130.594V150.432H138.756V151.32H131.674V153.221H138.879ZM129.117 155.955V155.066H140.191V155.955H135.174V157.172H138.77V159.879H131.551V161.109H139.139V161.971H130.484V159.086H137.717V157.992H130.457V157.172H134.121V155.955H129.117ZM151.279 149.953V162.135H150.213V155.531H147.848V154.629H150.213V149.953H151.279ZM141.641 151.977V151.088H147.109V155.34H142.748V158.293C144.847 158.293 146.364 158.225 148.135 157.896L148.217 158.799C146.392 159.127 144.812 159.202 142.611 159.209H141.682V154.451H146.07V151.977H141.641ZM164.445 159.66V160.549H153.316V159.66H158.32V157.035H154.629V150.814H155.709V153.016H162.025V150.814H163.078V157.035H159.373V159.66H164.445ZM155.709 156.16H162.025V153.891H155.709V156.16ZM169.025 153.412C169.025 155.347 169.969 157.432 171.582 158.389L170.967 159.223C169.791 158.512 168.95 157.213 168.526 155.73C168.082 157.35 167.18 158.744 165.963 159.482L165.279 158.676C166.961 157.691 167.986 155.538 167.986 153.453V151.102H169.025V153.412ZM170.242 155.23V154.314H172.307V150.213H173.318V161.492H172.307V155.23H170.242ZM174.795 162.107V149.953H175.834V162.107H174.795ZM188.645 159.646V160.549H177.516V159.646H180.277V156.372C179.238 155.832 178.609 154.957 178.609 153.85C178.609 151.97 180.455 150.732 183.053 150.719C185.65 150.732 187.496 151.97 187.496 153.85C187.496 154.937 186.888 155.798 185.883 156.338V159.646H188.645ZM179.648 153.85C179.642 155.21 181.057 156.119 183.053 156.119C185.028 156.119 186.457 155.21 186.457 153.85C186.457 152.489 185.028 151.594 183.053 151.607C181.057 151.594 179.642 152.489 179.648 153.85ZM181.33 159.646H184.803V156.755C184.276 156.892 183.688 156.967 183.053 156.967C182.431 156.967 181.85 156.898 181.33 156.762V159.646Z" fill="black"/>
<path d="M137.416 136.475V138.478C138.489 138.416 139.569 138.32 140.588 138.17L140.711 139.291C137.942 139.804 134.976 139.831 132.795 139.824L132.604 138.594C133.567 138.587 134.702 138.58 135.898 138.546V136.475H137.416ZM132.891 135.723C134.75 135.21 135.775 133.986 135.864 132.605H133.26V131.375H135.898V129.967H137.416V131.375H140.082V132.605H137.437C137.519 133.925 138.564 135.107 140.424 135.586L139.727 136.775C138.264 136.379 137.218 135.524 136.657 134.431C136.117 135.579 135.085 136.475 133.615 136.871L132.891 135.723ZM141.326 142.23V129.857H142.844V142.23H141.326ZM154.561 130.568V131.594C154.567 132.633 154.567 133.829 154.28 135.395H155.941V136.639H144.648V135.395H152.735C153.022 133.904 153.043 132.804 153.043 131.799H146.043V130.568H154.561ZM146.111 141.957V137.814H147.615V140.727H154.916V141.957H146.111ZM163.502 130.404C165.102 130.397 166.359 131.32 166.667 132.674H168.902V129.857H170.42V136.488H168.902V133.904H166.681C166.387 135.292 165.115 136.229 163.502 136.229C161.608 136.229 160.234 135.012 160.234 133.303C160.234 131.614 161.608 130.397 163.502 130.404ZM161.684 133.303C161.684 134.294 162.436 134.95 163.502 134.943C164.541 134.95 165.286 134.294 165.293 133.303C165.286 132.312 164.541 131.669 163.502 131.676C162.436 131.669 161.684 132.312 161.684 133.303ZM162.271 142.066V137.063H163.775V138.375H168.902V137.063H170.42V142.066H162.271ZM163.775 140.836H168.902V139.551H163.775V140.836ZM183.463 139.523V140.781H172.17V139.523H177.037V137.514H173.51V133.467H180.619V131.936H173.482V130.705H182.123V134.67H175.027V136.27H182.41V137.514H178.541V139.523H183.463ZM194.305 135.654V136.871H185.637V130.938H194.209V132.168H187.141V135.654H194.305ZM184.27 140.645V139.387H195.562V140.645H184.27ZM206.104 130.65C206.104 132.106 207.819 133.617 210.342 133.973L209.768 135.176C207.737 134.861 206.117 133.877 205.331 132.544C204.538 133.891 202.904 134.889 200.881 135.203L200.307 134.014C202.829 133.638 204.538 132.154 204.545 130.65V130.172H206.104V130.65ZM199.678 137.227V135.996H210.971V137.227H206.199V139.482H204.695V137.227H199.678ZM201.045 141.971V138.375H202.562V140.74H209.727V141.971H201.045Z" fill="#C37CD2"/>
<rect x="25" y="126" width="20" height="20" rx="10" fill="#EDFAFF"/>
<path d="M30.7659 132.776L34.8239 136.189C35.0228 136.356 35.0584 136.659 34.9042 136.872L30.8461 142.471C30.5733 142.847 30 142.645 30 142.173V133.161C30 132.747 30.4576 132.517 30.7659 132.776Z" fill="#0EB5F9"/>
<path fill-rule="evenodd" clip-rule="evenodd" d="M35.5 127.667C32.4624 127.667 30 130.129 30 133.167C30 136.204 32.4624 138.667 35.5 138.667C38.5376 138.667 41 136.204 41 133.167C41 130.129 38.5376 127.667 35.5 127.667ZM35.5434 135.468C36.8325 135.468 37.8775 134.423 37.8775 133.134C37.8775 131.845 36.8325 130.8 35.5434 130.8C34.2543 130.8 33.2093 131.845 33.2093 133.134C33.2093 134.423 34.2543 135.468 35.5434 135.468Z" fill="#0EB5F9"/>
<path d="M32.4375 182.814V183.689H31.1934V187.148C31.8154 187.101 32.4307 187.046 33.0117 186.971L33.0938 187.791C30.6191 188.167 27.7344 188.201 25.6562 188.215L25.5332 187.299C26.0186 187.299 26.5518 187.299 27.1055 187.292V183.689H25.875V182.814H32.4375ZM27.2969 193.943V189.213H28.3633V190.676H33.9277V189.213H34.9941V193.943H27.2969ZM28.1582 187.278C28.8076 187.265 29.4707 187.244 30.1406 187.21V183.689H28.1582V187.278ZM28.3633 193.068H33.9277V191.537H28.3633V193.068ZM33.9277 188.68V181.953H34.9941V184.783H36.8262V185.699H34.9941V188.68H33.9277ZM40.9414 182.527C42.5684 182.521 43.8125 183.471 44.0449 184.865H46.5879V181.953H47.668V188.475H46.5879V185.754H44.0518C43.8398 187.189 42.5889 188.146 40.9414 188.146C39.0889 188.146 37.7764 186.998 37.7832 185.33C37.7764 183.683 39.0889 182.521 40.9414 182.527ZM38.8086 185.33C38.8086 186.438 39.6904 187.237 40.9414 187.244C42.165 187.237 43.0469 186.438 43.0469 185.33C43.0469 184.209 42.165 183.43 40.9414 183.443C39.6904 183.43 38.8086 184.209 38.8086 185.33ZM39.834 193.943V189.09H40.9141V190.635H46.5879V189.09H47.668V193.943H39.834ZM40.9141 193.068H46.5879V191.496H40.9141V193.068ZM60.7656 188.365V189.24H49.6914V188.365H60.7656ZM50.9219 184.797C50.9219 183.272 52.5898 182.377 55.2285 182.391C57.8398 182.377 59.5146 183.272 59.5215 184.797C59.5146 186.308 57.8398 187.217 55.2285 187.217C52.5898 187.217 50.9219 186.308 50.9219 184.797ZM51.127 193.848V190.307H52.207V192.945H59.5352V193.848H51.127ZM52.0293 184.797C52.0225 185.761 53.2666 186.342 55.2285 186.342C57.1768 186.342 58.4209 185.761 58.4277 184.797C58.4209 183.847 57.1768 183.252 55.2285 183.252C53.2666 183.252 52.0225 183.847 52.0293 184.797ZM74.8066 181.953V184.701H76.6387V185.604H74.8066V188.188H73.7402V181.953H74.8066ZM65.8242 187.709V182.76H71.4434V187.709H65.8242ZM66.6035 193.779V189.281H67.6426V192.897C68.3467 192.87 69.2832 192.768 70.1445 192.48L70.3086 193.342C69.126 193.731 67.9707 193.786 67.1777 193.779H66.6035ZM66.877 186.848H70.4043V183.635H66.877V186.848ZM69.8848 190.225V189.404H72.4414V188.324H73.4941V189.404H76.0234V190.225H69.8848ZM70.6914 192.371C70.6846 191.318 71.6074 190.669 72.9473 190.662C74.2803 190.669 75.2168 191.318 75.2305 192.371C75.2168 193.424 74.2803 194.08 72.9473 194.08C71.6074 194.08 70.6846 193.424 70.6914 192.371ZM71.6484 192.371C71.6484 192.952 72.1885 193.328 72.9473 193.314C73.7061 193.328 74.2461 192.952 74.2461 192.371C74.2461 191.804 73.7061 191.435 72.9473 191.428C72.1885 191.435 71.6484 191.804 71.6484 192.371ZM88.4785 188.365V189.24H77.4043V188.365H88.4785ZM78.6348 184.797C78.6348 183.272 80.3027 182.377 82.9414 182.391C85.5527 182.377 87.2275 183.272 87.2344 184.797C87.2275 186.308 85.5527 187.217 82.9414 187.217C80.3027 187.217 78.6348 186.308 78.6348 184.797ZM78.8398 193.848V190.307H79.9199V192.945H87.248V193.848H78.8398ZM79.7422 184.797C79.7354 185.761 80.9795 186.342 82.9414 186.342C84.8896 186.342 86.1338 185.761 86.1406 184.797C86.1338 183.847 84.8896 183.252 82.9414 183.252C80.9795 183.252 79.7354 183.847 79.7422 184.797ZM99.9082 181.953V194.107H98.8691V181.953H99.9082ZM89.9824 191.182V183.457H94.5625V184.346H91.0215V190.279C92.7783 190.266 93.8857 190.204 95.1914 189.91L95.3008 190.826C93.8926 191.113 92.7031 191.175 90.748 191.182H89.9824ZM93.7422 187.504V186.602H96.3945V182.254H97.4199V193.479H96.3945V187.504H93.7422ZM115.494 181.953V194.107H114.441V187.818H112.691V193.479H111.68V182.227H112.691V186.902H114.441V181.953H115.494ZM105.732 190.963V183.443H106.799V190.006C108.002 189.999 109.301 189.91 110.777 189.609L110.914 190.566C109.219 190.874 107.824 190.963 106.484 190.963H105.732ZM126.623 181.953V186.902H128.592V187.805H126.623V194.107H125.557V181.953H126.623ZM117.299 190.949C120.437 189.391 122.146 187.046 122.392 184.168H117.859V183.266H123.479C123.472 186.704 121.858 189.842 117.9 191.797L117.299 190.949ZM142.236 181.953V186.902H144.205V187.805H142.236V194.107H141.17V181.953H142.236ZM132.912 190.949C136.05 189.391 137.759 187.046 138.005 184.168H133.473V183.266H139.092C139.085 186.704 137.472 189.842 133.514 191.797L132.912 190.949ZM154.678 183.184V184.4C154.664 185.891 154.664 187.559 154.227 190.006L153.133 189.883C153.591 187.559 153.591 185.856 153.598 184.4V184.072H146.105V183.184H154.678ZM144.93 192.385V191.496H149.277V187.148H150.33V191.496H156.004V192.385H144.93ZM167.064 181.967V188.721H165.998V181.967H167.064ZM157.111 187.613C158.943 186.978 160.242 185.371 160.242 183.607V182.418H161.336V183.607C161.322 185.296 162.635 186.8 164.439 187.395L163.92 188.242C162.491 187.757 161.35 186.738 160.803 185.433C160.256 186.834 159.107 187.941 157.658 188.461L157.111 187.613ZM158.861 193.943V193.068H160.68V190.32H158.971V189.445H167.146V190.32H165.465V193.068H167.27V193.943H158.861ZM161.732 193.068H164.398V190.32H161.732V193.068ZM180.203 188.365V189.24H169.129V188.365H180.203ZM170.359 184.797C170.359 183.272 172.027 182.377 174.666 182.391C177.277 182.377 178.952 183.272 178.959 184.797C178.952 186.308 177.277 187.217 174.666 187.217C172.027 187.217 170.359 186.308 170.359 184.797ZM170.564 193.848V190.307H171.645V192.945H178.973V193.848H170.564ZM171.467 184.797C171.46 185.761 172.704 186.342 174.666 186.342C176.614 186.342 177.858 185.761 177.865 184.797C177.858 183.847 176.614 183.252 174.666 183.252C172.704 183.252 171.46 183.847 171.467 184.797ZM191.688 182.814V183.689H190.443V187.148C191.065 187.101 191.681 187.046 192.262 186.971L192.344 187.791C189.869 188.167 186.984 188.201 184.906 188.215L184.783 187.299C185.269 187.299 185.802 187.299 186.355 187.292V183.689H185.125V182.814H191.688ZM186.547 193.943V189.213H187.613V190.676H193.178V189.213H194.244V193.943H186.547ZM187.408 187.278C188.058 187.265 188.721 187.244 189.391 187.21V183.689H187.408V187.278ZM187.613 193.068H193.178V191.537H187.613V193.068ZM193.178 188.68V181.953H194.244V184.783H196.076V185.699H194.244V188.68H193.178ZM200.191 182.527C201.818 182.521 203.062 183.471 203.295 184.865H205.838V181.953H206.918V188.475H205.838V185.754H203.302C203.09 187.189 201.839 188.146 200.191 188.146C198.339 188.146 197.026 186.998 197.033 185.33C197.026 183.683 198.339 182.521 200.191 182.527ZM198.059 185.33C198.059 186.438 198.94 187.237 200.191 187.244C201.415 187.237 202.297 186.438 202.297 185.33C202.297 184.209 201.415 183.43 200.191 183.443C198.94 183.43 198.059 184.209 198.059 185.33ZM199.084 193.943V189.09H200.164V190.635H205.838V189.09H206.918V193.943H199.084ZM200.164 193.068H205.838V191.496H200.164V193.068ZM220.016 188.365V189.24H208.941V188.365H220.016ZM210.172 184.797C210.172 183.272 211.84 182.377 214.479 182.391C217.09 182.377 218.765 183.272 218.771 184.797C218.765 186.308 217.09 187.217 214.479 187.217C211.84 187.217 210.172 186.308 210.172 184.797ZM210.377 193.848V190.307H211.457V192.945H218.785V193.848H210.377ZM211.279 184.797C211.272 185.761 212.517 186.342 214.479 186.342C216.427 186.342 217.671 185.761 217.678 184.797C217.671 183.847 216.427 183.252 214.479 183.252C212.517 183.252 211.272 183.847 211.279 184.797ZM234.617 181.953V188.311H233.551V186.752H230.68V187.818H225.17V182.527H226.236V184.277H229.627V182.527H230.68V183.703H233.551V181.953H234.617ZM226.236 186.943H229.627V185.125H226.236V186.943ZM226.742 189.76V188.898H234.617V191.756H227.836V193.082H235.082V193.943H226.77V190.936H233.551V189.76H226.742ZM230.68 185.904H233.551V184.537H230.68V185.904ZM247.783 191.701V192.604H236.654V191.701H241.658V189.404H238.049V185.658H245.322V183.744H238.021V182.855H246.375V186.533H239.115V188.516H246.662V189.404H242.711V191.701H247.783ZM254.688 189.09V190.607H256.902V189.09H257.9V193.943H253.676V189.09H254.688ZM252.459 185.289C252.452 183.628 253.765 182.5 255.617 182.5C257.251 182.5 258.488 183.423 258.721 184.824H261.264V181.953H262.344V188.393H261.264V185.713H258.728C258.516 187.148 257.265 188.092 255.617 188.092C253.765 188.092 252.452 186.957 252.459 185.289ZM253.484 185.289C253.484 186.403 254.366 187.196 255.617 187.203C256.841 187.196 257.723 186.403 257.723 185.289C257.723 184.182 256.841 183.402 255.617 183.402C254.366 183.402 253.484 184.182 253.484 185.289ZM254.688 193.096H256.902V191.428H254.688V193.096ZM258.064 193.219C259.527 192.61 260.3 191.277 260.307 190.047V189.008H261.373V190.047C261.359 191.325 262.132 192.672 263.615 193.219L263.055 194.039C261.934 193.595 261.202 192.733 260.826 191.729C260.443 192.72 259.698 193.581 258.625 194.039L258.064 193.219ZM266.035 183.279V190.088C267.354 190.074 268.599 189.999 270.055 189.691L270.205 190.621C268.585 190.963 267.218 191.024 265.734 191.031H264.969V183.279H266.035ZM268.373 186.943V186.055H271.148V182.254H272.174V193.492H271.148V186.943H268.373ZM273.746 194.107V181.953H274.771V194.107H273.746ZM277.752 193.082C277.273 193.075 276.863 192.679 276.877 192.193C276.863 191.715 277.273 191.318 277.752 191.318C278.237 191.318 278.634 191.715 278.627 192.193C278.634 192.679 278.237 193.075 277.752 193.082ZM281.307 193.082C280.828 193.075 280.418 192.679 280.432 192.193C280.418 191.715 280.828 191.318 281.307 191.318C281.792 191.318 282.188 191.715 282.182 192.193C282.188 192.679 281.792 193.075 281.307 193.082Z" fill="#9F9F9F"/>
<path d="M59.7188 205.857V212.229H58.2012V205.857H59.7188ZM49.6152 210.711C50.0596 210.711 50.5312 210.704 51.0234 210.697V207.826H49.9434V206.65H56.6562V207.826H55.5488V210.513C56.1094 210.472 56.6562 210.417 57.1758 210.355L57.2441 211.449C54.7832 211.839 51.9395 211.914 49.7793 211.914L49.6152 210.711ZM51.4336 213.938V212.748H59.7188V215.934H52.9648V216.904H60.1152V218.107H51.4609V214.826H58.2148V213.938H51.4336ZM52.4863 210.663C53.0195 210.649 53.5596 210.629 54.0996 210.602V207.826H52.4863V210.663ZM71.873 205.857V218.23H70.3691V211.559H68.0449V210.328H70.3691V205.857H71.873ZM62.0703 215.387V206.924H67.8535V208.168H63.6016V210.383H67.3613V211.586H63.6016V214.129C65.4814 214.122 66.8896 214.054 68.4824 213.801L68.6328 215.031C66.835 215.305 65.249 215.373 63.041 215.387H62.0703ZM87.2812 205.857V212.188H85.7637V209.057H83.3027V207.84H85.7637V205.857H87.2812ZM76.8633 211.039C78.8525 210.438 79.8848 208.913 79.8848 207.252V206.268H81.416V207.252C81.4092 208.776 82.4072 210.219 84.3281 210.807L83.5215 211.982C82.1816 211.538 81.2109 210.663 80.6641 209.542C80.1309 210.793 79.1123 211.777 77.6562 212.256L76.8633 211.039ZM79.1465 213.91V212.721H87.2812V215.92H80.6504V216.863H87.6777V218.066H79.1602V214.785H85.7773V213.91H79.1465ZM99.3809 205.857V213.199H97.8633V210.178H95.7578V208.934H97.8633V205.857H99.3809ZM88.9902 211.969C90.9795 211.285 92.0254 209.624 92.0254 207.99V207.895H89.4551V206.664H96.127V207.895H93.5703V207.977C93.5703 209.48 94.5684 210.998 96.4824 211.641L95.7168 212.844C94.3428 212.379 93.3721 211.436 92.8252 210.273C92.2852 211.586 91.2529 212.652 89.7832 213.172L88.9902 211.969ZM91 215.865C90.9863 214.382 92.5928 213.514 95.1973 213.514C97.8154 213.514 99.415 214.382 99.4219 215.865C99.415 217.349 97.8154 218.21 95.1973 218.217C92.5928 218.21 90.9863 217.349 91 215.865ZM92.5039 215.865C92.4971 216.631 93.4814 217.048 95.1973 217.041C96.9268 217.048 97.9043 216.631 97.9043 215.865C97.9043 215.093 96.9268 214.676 95.1973 214.676C93.4814 214.676 92.4971 215.093 92.5039 215.865Z" fill="#C37CD2"/>
<path d="M106.75 206.746C109.286 206.753 111.193 208.079 111.193 210.082C111.193 212.105 109.286 213.432 106.75 213.418C104.214 213.432 102.307 212.105 102.307 210.082C102.307 208.079 104.214 206.753 106.75 206.746ZM101.213 216.494V215.592H112.342V216.494H101.213ZM103.332 210.082C103.318 211.559 104.788 212.543 106.75 212.543C108.698 212.543 110.154 211.559 110.154 210.082C110.154 208.626 108.698 207.614 106.75 207.621C104.788 207.614 103.318 208.626 103.332 210.082ZM124.441 215.701V216.604H113.312V215.701H118.316V213.404H114.707V209.658H121.98V207.744H114.68V206.855H123.033V210.533H115.773V212.516H123.32V213.404H119.369V215.701H124.441ZM139.303 205.953V218.107H138.25V211.818H136.5V217.479H135.488V206.227H136.5V210.902H138.25V205.953H139.303ZM129.541 214.963V207.443H130.607V214.006C131.811 213.999 133.109 213.91 134.586 213.609L134.723 214.566C133.027 214.874 131.633 214.963 130.293 214.963H129.541ZM149.119 208.25C149.126 209.48 150.329 210.52 152.059 210.902L151.621 211.764C150.22 211.415 149.14 210.677 148.606 209.692C148.087 210.759 146.993 211.572 145.551 211.928L145.086 211.066C146.843 210.677 148.053 209.549 148.053 208.25V208.195H145.346V207.348H148.053V205.994H149.119V207.348H151.826V208.195H149.119V208.25ZM144.512 212.789C146.843 212.782 149.926 212.769 152.619 212.42L152.688 213.199C151.525 213.391 150.322 213.507 149.146 213.582V217.752H148.08V213.637C146.85 213.685 145.681 213.691 144.662 213.691L144.512 212.789ZM153.508 218.121V205.967H154.561V218.121H153.508ZM167.945 208.086V208.975H166.141V210.656H167.945V211.559H166.141V213.801H165.074V205.953H166.141V208.086H167.945ZM156.666 208.195V207.348H159.756V205.857H160.822V207.348H163.912V208.195H156.666ZM157.363 210.971C157.356 209.672 158.525 208.831 160.289 208.824C162.032 208.831 163.201 209.672 163.215 210.971C163.201 212.283 162.032 213.124 160.289 213.117C158.525 213.124 157.356 212.283 157.363 210.971ZM158.32 215.988C158.313 214.662 159.817 213.89 162.299 213.883C164.773 213.89 166.277 214.662 166.277 215.988C166.277 217.308 164.773 218.08 162.299 218.08C159.817 218.08 158.313 217.308 158.32 215.988ZM158.389 210.971C158.382 211.771 159.141 212.283 160.289 212.283C161.424 212.283 162.189 211.771 162.203 210.971C162.189 210.171 161.424 209.645 160.289 209.631C159.141 209.645 158.382 210.171 158.389 210.971ZM159.387 215.988C159.373 216.774 160.48 217.253 162.299 217.246C164.11 217.253 165.218 216.774 165.211 215.988C165.218 215.182 164.11 214.73 162.299 214.73C160.48 214.73 159.373 215.182 159.387 215.988ZM178.773 205.967V214.854H177.707V205.967H178.773ZM169.025 209.795C169.019 208.045 170.393 206.821 172.211 206.814C174.029 206.821 175.39 208.045 175.396 209.795C175.39 211.565 174.029 212.796 172.211 212.789C170.393 212.796 169.019 211.565 169.025 209.795ZM170.078 209.795C170.064 211.005 170.98 211.846 172.211 211.846C173.421 211.846 174.344 211.005 174.344 209.795C174.344 208.605 173.421 207.758 172.211 207.758C170.98 207.758 170.064 208.605 170.078 209.795ZM170.926 217.848V213.951H171.992V216.945H179.156V217.848H170.926ZM191.297 206.814V207.689H190.053V211.148C190.675 211.101 191.29 211.046 191.871 210.971L191.953 211.791C189.479 212.167 186.594 212.201 184.516 212.215L184.393 211.299C184.878 211.299 185.411 211.299 185.965 211.292V207.689H184.734V206.814H191.297ZM186.156 217.943V213.213H187.223V214.676H192.787V213.213H193.854V217.943H186.156ZM187.018 211.278C187.667 211.265 188.33 211.244 189 211.21V207.689H187.018V211.278ZM187.223 217.068H192.787V215.537H187.223V217.068ZM192.787 212.68V205.953H193.854V208.783H195.686V209.699H193.854V212.68H192.787ZM199.801 206.527C201.428 206.521 202.672 207.471 202.904 208.865H205.447V205.953H206.527V212.475H205.447V209.754H202.911C202.699 211.189 201.448 212.146 199.801 212.146C197.948 212.146 196.636 210.998 196.643 209.33C196.636 207.683 197.948 206.521 199.801 206.527ZM197.668 209.33C197.668 210.438 198.55 211.237 199.801 211.244C201.024 211.237 201.906 210.438 201.906 209.33C201.906 208.209 201.024 207.43 199.801 207.443C198.55 207.43 197.668 208.209 197.668 209.33ZM198.693 217.943V213.09H199.773V214.635H205.447V213.09H206.527V217.943H198.693ZM199.773 217.068H205.447V215.496H199.773V217.068ZM214.689 207.061V212.652H209.07V207.061H214.689ZM210.123 211.791H213.65V207.936H210.123V211.791ZM210.451 217.848V214.02H211.504V216.945H218.613V217.848H210.451ZM216.986 214.867V205.953H218.053V209.658H219.885V210.561H218.053V214.867H216.986ZM233.83 206.459V207.238C233.823 208.024 233.823 208.954 233.598 210.137L232.531 210.027C232.757 208.906 232.764 208.086 232.764 207.334H225.49V206.459H233.83ZM224.178 211.682V210.807H228.758V208.701H229.811V210.807H235.238V211.682H224.178ZM225.49 213.691V212.816H233.871V215.701H226.584V217.096H234.186V217.971H225.504V214.936H232.805V213.691H225.49ZM245.67 205.953V210.793H247.707V211.695H245.67V218.135H244.604V205.953H245.67ZM236.742 207.977V207.088H242.266V211.436H237.836V214.279C240.092 214.286 241.671 214.197 243.51 213.855L243.619 214.744C241.705 215.093 240.085 215.182 237.74 215.195H236.77V210.547H241.199V207.977H236.742ZM250.906 206.158V207.32H256.922V206.158H257.988V210.15H254.406V211.354H259.438V212.229H248.363V211.354H253.354V210.15H249.84V206.158H250.906ZM249.703 214.061V213.24H258.016V215.934H250.797V217.123H258.385V217.971H249.73V215.141H256.963V214.061H249.703ZM250.906 209.316H256.922V208.141H250.906V209.316ZM270.074 207.088C270.081 208.804 272.31 210.28 274.504 210.588L274.066 211.463C272.18 211.148 270.307 210.103 269.527 208.612C268.748 210.116 266.882 211.148 264.988 211.463L264.551 210.588C266.745 210.28 268.967 208.831 268.967 207.088V206.391H270.074V207.088ZM263.977 213.705V212.803H275.051V213.705H270.02V218.107H268.967V213.705H263.977ZM283.705 214.115C283.698 215.188 284.279 216.33 285.435 216.986C286.597 216.269 287.212 215.052 287.205 214.115V213.445H288.258V214.115C288.251 215.366 289.174 216.61 290.732 217.15L290.199 217.943C288.982 217.513 288.135 216.665 287.711 215.646C287.335 216.631 286.59 217.567 285.469 218.039C284.286 217.588 283.534 216.699 283.172 215.681C282.734 216.658 281.9 217.506 280.738 217.943L280.191 217.15C281.729 216.576 282.652 215.277 282.666 214.115V213.445H283.705V214.115ZM279.877 209.521C279.87 207.826 281.217 206.671 283.062 206.678C284.908 206.671 286.241 207.826 286.248 209.521C286.241 211.189 284.908 212.338 283.062 212.338C281.217 212.338 279.87 211.189 279.877 209.521ZM280.93 209.521C280.916 210.649 281.812 211.442 283.062 211.449C284.3 211.442 285.195 210.649 285.195 209.521C285.195 208.387 284.3 207.58 283.062 207.594C281.812 207.58 280.916 208.387 280.93 209.521ZM288.559 212.912V205.967H289.625V212.912H288.559ZM294.957 206.896C296.611 206.903 297.808 208.325 297.972 210.602H300.699V205.953H301.766V218.135H300.699V211.49H297.985C297.869 213.876 296.652 215.366 294.957 215.359C293.159 215.366 291.901 213.726 291.908 211.135C291.901 208.551 293.159 206.903 294.957 206.896ZM292.934 211.135C292.94 213.11 293.761 214.409 294.957 214.402C296.146 214.409 296.98 213.11 296.98 211.135C296.98 209.159 296.146 207.86 294.957 207.854C293.761 207.86 292.94 209.159 292.934 211.135ZM314.918 215.646V216.549H303.789V215.646H306.551V212.372C305.512 211.832 304.883 210.957 304.883 209.85C304.883 207.97 306.729 206.732 309.326 206.719C311.924 206.732 313.77 207.97 313.77 209.85C313.77 210.937 313.161 211.798 312.156 212.338V215.646H314.918ZM305.922 209.85C305.915 211.21 307.33 212.119 309.326 212.119C311.302 212.119 312.73 211.21 312.73 209.85C312.73 208.489 311.302 207.594 309.326 207.607C307.33 207.594 305.915 208.489 305.922 209.85ZM307.604 215.646H311.076V212.755C310.55 212.892 309.962 212.967 309.326 212.967C308.704 212.967 308.123 212.898 307.604 212.762V215.646Z" fill="black"/>
<rect x="25" y="202" width="20" height="20" rx="10" fill="#EDFAFF"/>
<path d="M30.7659 208.776L34.8239 212.189C35.0228 212.356 35.0584 212.659 34.9042 212.872L30.8461 218.471C30.5733 218.847 30 218.645 30 218.173V209.161C30 208.747 30.4576 208.517 30.7659 208.776Z" fill="#0EB5F9"/>
<path fill-rule="evenodd" clip-rule="evenodd" d="M35.5 203.667C32.4624 203.667 30 206.129 30 209.167C30 212.204 32.4624 214.667 35.5 214.667C38.5376 214.667 41 212.204 41 209.167C41 206.129 38.5376 203.667 35.5 203.667ZM35.5434 211.468C36.8325 211.468 37.8775 210.423 37.8775 209.134C37.8775 207.845 36.8325 206.8 35.5434 206.8C34.2543 206.8 33.2093 207.845 33.2093 209.134C33.2093 210.423 34.2543 211.468 35.5434 211.468Z" fill="#0EB5F9"/>
<rect x="32" y="8" width="87" height="23.249" fill="white"/>
<path d="M34 29.1199H52V11.1199H34V29.1199ZM60.7539 14.5005C60.7451 18.5963 58.0469 21.4703 53.4238 22.7623L52.6328 21.233C56.1924 20.2662 58.3018 18.4029 58.6621 16.0826H53.4941V14.5005H60.7539ZM55.375 29.2134V23.1314H65.834V29.2134H55.375ZM57.291 27.6666H63.9004V24.6783H57.291V27.6666ZM60.8242 19.0357V17.4361H63.8828V13.5513H65.834V22.4986H63.8828V19.0357H60.8242ZM73.041 16.4166C73.0498 18.192 74.0342 19.9498 76.1172 20.7759L75.0625 22.2701C73.665 21.7076 72.6807 20.6705 72.1182 19.4048C71.5293 20.8287 70.4922 22.0416 68.9805 22.692L67.9434 21.1802C70.1318 20.2222 71.1514 18.2095 71.1602 16.4166V14.483H73.041V16.4166ZM70.791 25.4869V23.9224H81.6719V29.4244H79.7207V25.4869H70.791ZM76.3984 23.0787V13.815H78.2266V17.5064H79.8086V13.5513H81.6719V23.1666H79.8086V19.1236H78.2266V23.0787H76.3984ZM88 17.0494V15.1334H98.1426V17.0494H94.2227V27.8599H91.9375V17.0494H88ZM102.221 15.1334V27.8599H99.9355V15.1334H102.221ZM104.594 27.8599V15.1334H109.375C112.293 15.1334 113.849 16.9088 113.857 19.3521C113.849 21.7867 112.275 23.5533 109.34 23.5533H106.879V27.8599H104.594ZM106.879 21.6724H109.023C110.746 21.6636 111.52 20.6968 111.52 19.3521C111.52 17.9898 110.746 17.0494 109.023 17.0494H106.879V21.6724Z" fill="url(#paint0_linear_4544_90058)"/>
<defs>
<linearGradient id="paint0_linear_4544_90058" x1="127.5" y1="9.85991" x2="48.9388" y2="48.8668" gradientUnits="userSpaceOnUse">
<stop stop-color="#14B4F9"/>
<stop offset="1" stop-color="#D778CE"/>
</linearGradient>
</defs>
</svg>
