<svg width="115" height="24" viewBox="0 0 115 24" fill="none" xmlns="http://www.w3.org/2000/svg">
<path d="M0.0138122 23V0.370165H9.67127C14.7099 0.370165 18.0249 3.55248 18.0249 8.32597C18.0249 13.1436 14.6326 16.1934 9.46133 16.1934H5.96961V23H0.0138122ZM5.96961 11.5525H8.29006C10.5221 11.5525 11.826 10.3039 11.826 8.32597C11.826 6.33702 10.5221 5.14365 8.29006 5.14365H5.96961V11.5525ZM42.1255 11.6851C42.1255 19.221 37.2968 23.3094 31.1752 23.3094C25.0095 23.3094 20.225 19.1768 20.225 11.6851C20.225 4.14917 25.0095 0.0607719 31.1752 0.0607719C37.2968 0.0607719 42.1255 4.14917 42.1255 11.6851ZM26.3465 11.6851C26.3465 15.8508 28.0703 18.116 31.1752 18.116C34.2802 18.116 36.004 15.8508 36.004 11.6851C36.004 7.51934 34.2802 5.25414 31.1752 5.25414C28.0703 5.25414 26.3465 7.51934 26.3465 11.6851ZM45.0138 23V0.370165H54.6713C59.7099 0.370165 63.0249 3.55248 63.0249 8.32597C63.0249 13.1436 59.6326 16.1934 54.4613 16.1934H50.9696V23H45.0138ZM50.9696 11.5525H53.2901C55.5221 11.5525 56.826 10.3039 56.826 8.32597C56.826 6.33702 55.5221 5.14365 53.2901 5.14365H50.9696V11.5525ZM65.3576 23V0.370165H75.015C80.0537 0.370165 83.3686 3.55248 83.3686 8.32597C83.3686 13.1436 79.9763 16.1934 74.8051 16.1934H71.3134V23H65.3576ZM71.3134 11.5525H73.6338C75.8658 11.5525 77.1697 10.3039 77.1697 8.32597C77.1697 6.33702 75.8658 5.14365 73.6338 5.14365H71.3134V11.5525ZM91.6571 0.370165V23H85.7013V0.370165H91.6571ZM114.193 0.370165V23H109.21L100.801 10.7901H100.657V23H94.7013V0.370165H99.7842L108.06 12.547H108.237V0.370165H114.193Z" fill="url(#paint0_linear_3217_18613)"/>
<defs>
<linearGradient id="paint0_linear_3217_18613" x1="111.807" y1="-13" x2="68.4992" y2="35.2441" gradientUnits="userSpaceOnUse">
<stop stop-color="#14B4F9"/>
<stop offset="1" stop-color="#D778CE"/>
</linearGradient>
</defs>
</svg>
