<svg width="115" height="24" viewBox="0 0 115 24" fill="none" xmlns="http://www.w3.org/2000/svg">
<path d="M0.03125 23V0.375H9.65625C14.7188 0.375 18.0312 3.5625 18.0312 8.3125C18.0312 13.1562 14.625 16.1875 9.46875 16.1875H5.96875V23H0.03125ZM5.96875 11.5625H8.28125C10.5312 11.5625 11.8125 10.3125 11.8125 8.3125C11.8125 6.34375 10.5312 5.125 8.28125 5.125H5.96875V11.5625ZM42.125 11.6875C42.125 19.2188 37.3125 23.3125 31.1875 23.3125C25 23.3125 20.2188 19.1875 20.2188 11.6875C20.2188 4.15625 25 0.0625 31.1875 0.0625C37.3125 0.0625 42.125 4.15625 42.125 11.6875ZM36 11.6875C36 7.53125 34.2812 5.25 31.1875 5.25C28.0625 5.25 26.3438 7.53125 26.3438 11.6875C26.3438 15.8438 28.0625 18.125 31.1875 18.125C34.2812 18.125 36 15.8438 36 11.6875ZM45.0312 23V0.375H54.6562C59.7188 0.375 63.0312 3.5625 63.0312 8.3125C63.0312 13.1562 59.625 16.1875 54.4688 16.1875H50.9688V23H45.0312ZM50.9688 11.5625H53.2812C55.5312 11.5625 56.8125 10.3125 56.8125 8.3125C56.8125 6.34375 55.5312 5.125 53.2812 5.125H50.9688V11.5625ZM65.375 23V0.375H75C80.0625 0.375 83.375 3.5625 83.375 8.3125C83.375 13.1562 79.9688 16.1875 74.8125 16.1875H71.3125V23H65.375ZM71.3125 11.5625H73.625C75.875 11.5625 77.1562 10.3125 77.1562 8.3125C77.1562 6.34375 75.875 5.125 73.625 5.125H71.3125V11.5625ZM91.6562 0.375V23H85.7188V0.375H91.6562ZM114.188 0.375V23H109.219L100.812 10.7812H100.656V23H94.7188V0.375H99.7812L108.062 12.5312H108.25V0.375H114.188Z" fill="url(#paint0_linear_3217_18617)"/>
<defs>
<linearGradient id="paint0_linear_3217_18617" x1="116.5" y1="-60" x2="116.5" y2="5.33334" gradientUnits="userSpaceOnUse">
<stop stop-color="#14B4F9"/>
<stop offset="1" stop-color="#D778CE"/>
</linearGradient>
</defs>
</svg>
