<svg width="75" height="75" viewBox="0 0 75 75" fill="none" xmlns="http://www.w3.org/2000/svg">
<circle cx="37.6484" cy="37.416" r="37" fill="url(#paint0_linear_3145_9992)"/>
<path d="M26.088 32.1115L37.1737 41.0151C37.8071 41.5238 37.9204 42.4443 37.4292 43.0914L26.3435 57.6978C25.4747 58.8426 23.6487 58.2281 23.6487 56.791V33.281C23.6487 32.0219 25.1063 31.323 26.088 32.1115Z" fill="white"/>
<path fill-rule="evenodd" clip-rule="evenodd" d="M38.6484 17.4727C30.3642 17.4727 23.6484 24.1884 23.6484 32.4727C23.6484 40.7569 30.3642 47.4727 38.6484 47.4727C46.9327 47.4727 53.6484 40.7569 53.6484 32.4727C53.6484 24.1884 46.9327 17.4727 38.6484 17.4727ZM38.7668 38.7479C42.2824 38.7479 45.1324 35.8979 45.1324 32.3823C45.1324 28.8666 42.2824 26.0166 38.7668 26.0166C35.2511 26.0166 32.4011 28.8666 32.4011 32.3823C32.4011 35.8979 35.2511 38.7479 38.7668 38.7479Z" fill="white"/>
<defs>
<linearGradient id="paint0_linear_3145_9992" x1="24.4342" y1="-15.8416" x2="-40.2067" y2="33.0799" gradientUnits="userSpaceOnUse">
<stop stop-color="#14B4F9"/>
<stop offset="1" stop-color="#D778CE"/>
</linearGradient>
</defs>
</svg>
