<svg width="88" height="136" viewBox="0 0 88 136" fill="none" xmlns="http://www.w3.org/2000/svg">
<path d="M1.13536 128V111.028H8.37845C12.1575 111.028 14.6436 113.414 14.6436 116.994C14.6436 120.608 12.0994 122.895 8.22099 122.895H5.60221V128H1.13536ZM5.60221 119.414H7.34254C9.01657 119.414 9.99448 118.478 9.99448 116.994C9.99448 115.503 9.01657 114.608 7.34254 114.608H5.60221V119.414ZM32.7191 119.514C32.7191 125.166 29.0976 128.232 24.5064 128.232C19.8821 128.232 16.2937 125.133 16.2937 119.514C16.2937 113.862 19.8821 110.796 24.5064 110.796C29.0976 110.796 32.7191 113.862 32.7191 119.514ZM20.8849 119.514C20.8849 122.638 22.1777 124.337 24.5064 124.337C26.8352 124.337 28.128 122.638 28.128 119.514C28.128 116.39 26.8352 114.691 24.5064 114.691C22.1777 114.691 20.8849 116.39 20.8849 119.514ZM34.8854 128V111.028H42.1285C45.9075 111.028 48.3936 113.414 48.3936 116.994C48.3936 120.608 45.8494 122.895 41.971 122.895H39.3522V128H34.8854ZM39.3522 119.414H41.0925C42.7666 119.414 43.7445 118.478 43.7445 116.994C43.7445 115.503 42.7666 114.608 41.0925 114.608H39.3522V119.414ZM50.1432 128V111.028H57.3863C61.1653 111.028 63.6515 113.414 63.6515 116.994C63.6515 120.608 61.1073 122.895 57.2288 122.895H54.61V128H50.1432ZM54.61 119.414H56.3504C58.0244 119.414 59.0023 118.478 59.0023 116.994C59.0023 115.503 58.0244 114.608 56.3504 114.608H54.61V119.414ZM69.8678 111.028V128H65.401V111.028H69.8678ZM86.7698 111.028V128H83.0322L76.7256 118.843H76.6178V128H72.151V111.028H75.9631L82.1703 120.16H82.3029V111.028H86.7698Z" fill="white"/>
<ellipse cx="43.9999" cy="89.5522" rx="36.5672" ry="9.45274" fill="white" fill-opacity="0.5"/>
<ellipse cx="38.0297" cy="89.3035" rx="24.1294" ry="6.71642" fill="white" fill-opacity="0.5"/>
<ellipse cx="35.2935" cy="89.3035" rx="12.9353" ry="3.73134" fill="white" fill-opacity="0.9"/>
<path d="M23.9361 28.0438L45.4779 45.3453C46.5335 46.1931 46.7224 47.7273 45.9038 48.8058L24.362 77.189C22.9139 79.097 19.8706 78.0729 19.8706 75.6776V29.9929C19.8706 27.8944 22.3 26.7297 23.9361 28.0438Z" fill="white"/>
<path fill-rule="evenodd" clip-rule="evenodd" d="M48.0067 0.995026C32.4676 0.995026 19.8706 13.592 19.8706 29.1311C19.8706 44.6702 32.4676 57.2672 48.0067 57.2672C63.5458 57.2672 76.1428 44.6702 76.1428 29.1311C76.1428 13.592 63.5458 0.995026 48.0067 0.995026ZM48.2288 40.9028C54.8233 40.9028 60.1691 35.5569 60.1691 28.9625C60.1691 22.368 54.8233 17.0222 48.2288 17.0222C41.6344 17.0222 36.2885 22.368 36.2885 28.9625C36.2885 35.5569 41.6344 40.9028 48.2288 40.9028Z" fill="white"/>
</svg>
