<svg width="75" height="100" viewBox="0 0 75 100" fill="none" xmlns="http://www.w3.org/2000/svg">
<path d="M17.4362 28.0438L38.9779 45.3453C40.0336 46.1931 40.2224 47.7273 39.4039 48.8058L17.8621 77.189C16.414 79.097 13.3707 78.0729 13.3707 75.6776V29.9929C13.3707 27.8944 15.8 26.7297 17.4362 28.0438Z" fill="white"/>
<path fill-rule="evenodd" clip-rule="evenodd" d="M41.5068 0.995026C25.9676 0.995026 13.3707 13.592 13.3707 29.1311C13.3707 44.6702 25.9676 57.2672 41.5068 57.2672C57.0459 57.2672 69.6428 44.6702 69.6428 29.1311C69.6428 13.592 57.0459 0.995026 41.5068 0.995026ZM41.7289 40.9028C48.3233 40.9028 53.6692 35.5569 53.6692 28.9625C53.6692 22.368 48.3233 17.0222 41.7289 17.0222C35.1344 17.0222 29.7886 22.368 29.7886 28.9625C29.7886 35.5569 35.1344 40.9028 41.7289 40.9028Z" fill="white"/>
</svg>
