<svg width="75" height="100" viewBox="0 0 75 100" fill="none" xmlns="http://www.w3.org/2000/svg">
<ellipse cx="31.5299" cy="89.3035" rx="24.1294" ry="6.71642" fill="white" fill-opacity="0.5"/>
<ellipse cx="28.7935" cy="89.3035" rx="12.9353" ry="3.73134" fill="white" fill-opacity="0.9"/>
<path d="M17.4361 28.0438L38.9779 45.3453C40.0336 46.1931 40.2224 47.7273 39.4038 48.8058L17.862 77.189C16.4139 79.097 13.3706 78.0729 13.3706 75.6776V29.9929C13.3706 27.8944 15.8 26.7297 17.4361 28.0438Z" fill="white"/>
<path fill-rule="evenodd" clip-rule="evenodd" d="M41.5067 0.995026C25.9676 0.995026 13.3706 13.592 13.3706 29.1311C13.3706 44.6702 25.9676 57.2672 41.5067 57.2672C57.0459 57.2672 69.6428 44.6702 69.6428 29.1311C69.6428 13.592 57.0459 0.995026 41.5067 0.995026ZM41.7288 40.9028C48.3233 40.9028 53.6691 35.5569 53.6691 28.9625C53.6691 22.368 48.3233 17.0222 41.7288 17.0222C35.1344 17.0222 29.7885 22.368 29.7885 28.9625C29.7885 35.5569 35.1344 40.9028 41.7288 40.9028Z" fill="white"/>
</svg>
