<svg width="75" height="100" viewBox="0 0 75 100" fill="none" xmlns="http://www.w3.org/2000/svg">
<ellipse cx="37.4999" cy="89.5522" rx="36.5672" ry="9.45274" fill="white" fill-opacity="0.5"/>
<ellipse cx="31.5297" cy="89.3035" rx="24.1294" ry="6.71642" fill="white" fill-opacity="0.5"/>
<ellipse cx="28.7934" cy="89.3035" rx="12.9353" ry="3.73134" fill="white" fill-opacity="0.9"/>
<path d="M17.436 28.0438L38.9778 45.3453C40.0334 46.1931 40.2222 47.7273 39.4037 48.8058L17.8619 77.189C16.4138 79.097 13.3705 78.0729 13.3705 75.6776V29.9929C13.3705 27.8944 15.7998 26.7297 17.436 28.0438Z" fill="white"/>
<path fill-rule="evenodd" clip-rule="evenodd" d="M41.5066 0.995026C25.9675 0.995026 13.3705 13.592 13.3705 29.1311C13.3705 44.6702 25.9675 57.2672 41.5066 57.2672C57.0458 57.2672 69.6427 44.6702 69.6427 29.1311C69.6427 13.592 57.0458 0.995026 41.5066 0.995026ZM41.7288 40.9028C48.3232 40.9028 53.6691 35.5569 53.6691 28.9625C53.6691 22.368 48.3232 17.0222 41.7288 17.0222C35.1343 17.0222 29.7885 22.368 29.7885 28.9625C29.7885 35.5569 35.1343 40.9028 41.7288 40.9028Z" fill="white"/>
</svg>
