<svg width="137" height="48" viewBox="0 0 137 48" fill="none" xmlns="http://www.w3.org/2000/svg">
<g filter="url(#filter0_d_4544_91469)">
<rect x="6.5" y="6.5" width="124" height="35" rx="17.5" stroke="#0EB5F9" shape-rendering="crispEdges"/>
<path d="M30.3335 28.6252L28.8585 30.0586C28.4717 30.4453 27.9472 30.6626 27.4002 30.6626C26.8532 30.6626 26.3286 30.4453 25.9419 30.0586C25.5551 29.6718 25.3378 29.1472 25.3378 28.6002C25.3378 28.0533 25.5551 27.5287 25.9419 27.1419L29.7252 23.3502C30.0965 22.9777 30.5969 22.7621 31.1227 22.7482C31.6485 22.7342 32.1596 22.9229 32.5502 23.2752L32.6502 23.3586C32.8082 23.5133 33.0212 23.5989 33.2424 23.5965C33.4635 23.5942 33.6746 23.5041 33.8294 23.3461C33.9841 23.188 34.0697 22.975 34.0673 22.7539C34.065 22.5328 33.9749 22.3216 33.8169 22.1669C33.7698 22.1061 33.7198 22.0477 33.6669 21.9919C32.9555 21.373 32.0355 21.0476 31.0932 21.0817C30.1509 21.1157 29.2567 21.5066 28.5919 22.1752L24.7585 25.9669C24.1072 26.6759 23.7549 27.6091 23.7753 28.5717C23.7956 29.5343 24.1871 30.4518 24.8679 31.1325C25.5487 31.8133 26.4662 32.2048 27.4287 32.2252C28.3913 32.2456 29.3245 31.8933 30.0335 31.2419L31.4752 29.8336C31.6175 29.6783 31.6958 29.4748 31.6942 29.2642C31.6926 29.0535 31.6113 28.8513 31.4666 28.6982C31.3219 28.545 31.1246 28.4524 30.9144 28.4389C30.7042 28.4253 30.4966 28.4919 30.3335 28.6252ZM39.2419 16.7586C38.5408 16.0619 37.5927 15.6709 36.6044 15.6709C35.616 15.6709 34.6679 16.0619 33.9669 16.7586L32.5252 18.1669C32.3828 18.3222 32.3046 18.5256 32.3062 18.7363C32.3078 18.947 32.3891 19.1492 32.5338 19.3023C32.6784 19.4554 32.8757 19.5481 33.086 19.5616C33.2962 19.5751 33.5037 19.5086 33.6669 19.3752L35.1085 17.9419C35.4953 17.5551 36.0199 17.3378 36.5669 17.3378C37.1138 17.3378 37.6384 17.5551 38.0252 17.9419C38.412 18.3287 38.6292 18.8533 38.6292 19.4002C38.6292 19.9472 38.412 20.4718 38.0252 20.8586L34.2419 24.6502C33.8705 25.0228 33.3702 25.2383 32.8443 25.2523C32.3185 25.2663 31.8074 25.0776 31.4169 24.7252L31.3169 24.6419C31.1588 24.4872 30.9458 24.4016 30.7247 24.4039C30.5035 24.4063 30.2924 24.4964 30.1377 24.6544C29.983 24.8124 29.8974 25.0254 29.8997 25.2466C29.9021 25.4677 29.9922 25.6789 30.1502 25.8336C30.2107 25.8955 30.2747 25.9539 30.3419 26.0086C31.0541 26.6256 31.9737 26.9498 32.9154 26.9158C33.8572 26.8817 34.751 26.4921 35.4169 25.8252L39.2085 22.0336C39.9096 21.337 40.3066 20.3913 40.3129 19.4029C40.3191 18.4146 39.9341 17.464 39.2419 16.7586Z" fill="#0EB5F9"/>
<path d="M56.4824 25.6367C59.0869 25.6367 60.7412 26.457 60.748 27.8652C60.7412 29.2598 59.0869 30.0801 56.4824 30.0801C53.8779 30.0801 52.2236 29.2598 52.2305 27.8652C52.2236 26.457 53.8779 25.6367 56.4824 25.6367ZM51 24.502V23.627H55.5801V21.2754H56.6328V23.627H62.0605V24.502H51ZM52.3125 19.457V18.582H60.6523V19.6074C60.6455 20.5918 60.6455 21.5762 60.3105 22.834L59.2578 22.7109C59.5859 21.46 59.5859 20.5576 59.5859 19.6074V19.457H52.3125ZM53.2969 27.8652C53.29 28.7129 54.5479 29.2324 56.4824 29.2324C58.4238 29.2324 59.668 28.7129 59.6816 27.8652C59.668 26.9971 58.4238 26.4639 56.4824 26.457C54.5479 26.4639 53.29 26.9971 53.2969 27.8652ZM67.3926 19.7168C67.3789 21.4873 68.6641 23.0664 70.4688 23.6953L69.9219 24.543C68.5137 24.0234 67.3994 22.9775 66.8525 21.6309C66.3193 23.0732 65.1982 24.208 63.7695 24.7617L63.209 23.9141C65.0273 23.2373 66.2988 21.5557 66.2988 19.7168V18.5547H67.3926V19.7168ZM64.9453 26.7715V25.8828H73.1211V30.1074H72.0547V26.7715H64.9453ZM72.0547 25.2812V17.9531H73.1211V25.2812H72.0547ZM89.1582 17.9531V30.1074H88.1191V17.9531H89.1582ZM78.5625 26.1836C78.9385 26.1836 79.376 26.1836 79.8477 26.1768V20.4004H78.8223V19.5117H84.4141V20.4004H83.3887V26.0332C83.8467 25.9922 84.2842 25.9512 84.6875 25.8965L84.7559 26.6895C82.835 27.0449 80.2852 27.1064 78.6992 27.0996L78.5625 26.1836ZM80.832 26.1562C81.3379 26.1426 81.8711 26.1221 82.3906 26.0947V20.4004H80.832V26.1562ZM84.0586 23.5449V22.5742H85.7539V18.2539H86.7793V29.4648H85.7539V23.5449H84.0586ZM100.82 17.9531V30.1348H99.7402V17.9531H100.82ZM91.25 23.1348C91.2568 20.5508 92.542 18.9033 94.3535 18.8965C96.1582 18.9033 97.4639 20.5508 97.457 23.1348C97.4639 25.7256 96.1582 27.3662 94.3535 27.3594C92.542 27.3662 91.2568 25.7256 91.25 23.1348ZM92.2891 23.1348C92.2891 25.1104 93.1367 26.4092 94.3535 26.4023C95.5771 26.4092 96.418 25.1104 96.418 23.1348C96.418 21.1592 95.5771 19.8604 94.3535 19.8535C93.1367 19.8604 92.2891 21.1592 92.2891 23.1348ZM107.246 21.6855C107.253 23.75 108.75 25.8486 110.541 26.6211L109.939 27.4688C108.518 26.8262 107.294 25.4248 106.727 23.7432C106.159 25.5273 104.929 27.0723 103.541 27.7695L102.898 26.9219C104.642 26.0879 106.159 23.791 106.166 21.6855V20.0996H103.295V19.2109H110.145V20.0996H107.246V21.6855ZM111.84 30.1074V17.9531H112.92V30.1074H111.84Z" fill="#0EB5F9"/>
</g>
<defs>
<filter id="filter0_d_4544_91469" x="0" y="0" width="137" height="48" filterUnits="userSpaceOnUse" color-interpolation-filters="sRGB">
<feFlood flood-opacity="0" result="BackgroundImageFix"/>
<feColorMatrix in="SourceAlpha" type="matrix" values="0 0 0 0 0 0 0 0 0 0 0 0 0 0 0 0 0 0 127 0" result="hardAlpha"/>
<feOffset/>
<feGaussianBlur stdDeviation="3"/>
<feComposite in2="hardAlpha" operator="out"/>
<feColorMatrix type="matrix" values="0 0 0 0 0 0 0 0 0 0 0 0 0 0 0 0 0 0 0.25 0"/>
<feBlend mode="normal" in2="BackgroundImageFix" result="effect1_dropShadow_4544_91469"/>
<feBlend mode="normal" in="SourceGraphic" in2="effect1_dropShadow_4544_91469" result="shape"/>
</filter>
</defs>
</svg>
