<svg width="349" height="38" viewBox="0 0 349 38" fill="none" xmlns="http://www.w3.org/2000/svg">
<g filter="url(#filter0_d_4544_95016)">
<path fill-rule="evenodd" clip-rule="evenodd" d="M14 3C8.47715 3 4 7.47715 4 13V17C4 22.5228 8.47714 27 14 27H14.3687L18.8192 32.1295C19.2179 32.589 19.9311 32.589 20.3298 32.1295L24.7804 27H335C340.523 27 345 22.5228 345 17V13C345 7.47715 340.523 3 335 3H14Z" fill="white"/>
</g>
<path d="M15.2227 15.2852H14.4258L14.4961 13.4688L12.9492 14.4414L12.5508 13.75L14.168 12.9062L12.5508 12.0508L12.9492 11.3594L14.4961 12.332L14.4258 10.5156H15.2227L15.1523 12.332L16.6992 11.3594L17.0977 12.0508L15.4922 12.9062L17.0977 13.75L16.6992 14.4414L15.1523 13.4688L15.2227 15.2852ZM26.6602 9.53125V14.9336H25.7578V9.53125H26.6602ZM18.1406 14.1016C19.7109 13.5566 20.8242 12.1621 20.8242 10.6328V9.83594H21.7617V10.6328C21.75 12.1035 22.875 13.4043 24.4219 13.9141L23.9648 14.6289C22.7402 14.2129 21.7734 13.3398 21.3047 12.2148C20.8359 13.4277 19.8574 14.3828 18.6211 14.8281L18.1406 14.1016ZM19.8984 16.1992V15.4609H26.6719V17.957H20.8242V19.082H27.0469V19.832H19.9219V17.2422H25.7578V16.1992H19.8984ZM32.1445 12.332C32.1387 14.2363 33.4336 16.1465 34.9688 16.8438L34.4062 17.5703C33.2168 16.9961 32.1914 15.7598 31.6934 14.2773C31.2129 15.8477 30.1875 17.166 28.9688 17.7812L28.3828 17.0078C29.9355 16.2988 31.2188 14.3066 31.2305 12.332V10.4336H32.1445V12.332ZM36.1055 19.9727V9.53125H37.0312V19.9727H36.1055ZM46.957 9.53125V12.707H48.5273V13.4805H46.957V17.1602H46.0312V9.53125H46.957ZM38.8242 15.2148C41.3262 14.4355 42.9492 12.9531 43.1426 11.1133H39.2578V10.3398H44.1445C44.1445 13.0234 42.2285 15.0156 39.2227 15.9531L38.8242 15.2148ZM40.4297 19.7266V16.3867H41.3438V18.9531H47.4375V19.7266H40.4297ZM57 16.082C59.1387 16.082 60.4336 16.7852 60.4336 18.0039C60.4336 19.2344 59.1387 19.9375 57 19.9492C54.8555 19.9375 53.5488 19.2344 53.543 18.0039C53.5488 16.7852 54.8555 16.082 57 16.082ZM52.6406 14.9922V10.1875H53.543V11.7812H56.5781V10.1875H57.4922V14.9922H52.6406ZM53.543 14.2422H56.5781V12.5078H53.543V14.2422ZM54.4688 18.0039C54.457 18.7539 55.4297 19.1992 57 19.1992C58.5762 19.1992 59.5371 18.7539 59.543 18.0039C59.5371 17.2598 58.5762 16.8203 57 16.8086C55.4297 16.8203 54.457 17.2598 54.4688 18.0039ZM59.4258 15.8008V9.53125H60.3398V12.1562H61.9102V12.9414H60.3398V15.8008H59.4258ZM72.0938 14.8633V15.625H67.8516V17.7578H66.9375V15.625H62.5547V14.8633H72.0938ZM63.7734 19.7266V16.7266H64.6992V18.9531H71.0273V19.7266H63.7734ZM63.7969 13.668V10.0469H70.8516V13.668H63.7969ZM64.6992 12.9297H69.9375V10.7734H64.6992V12.9297ZM76.4648 12.7305C76.4531 14.4004 77.6602 16.2402 79.1719 16.9609L78.6445 17.6875C77.4727 17.1133 76.4824 15.8828 76.0137 14.4707C75.5332 16 74.4902 17.3477 73.3242 17.9453L72.7617 17.2188C74.2617 16.4863 75.5508 14.5059 75.5625 12.7305V11.3711H73.1367V10.6094H78.8086V11.3711H76.4648V12.7305ZM80.0859 19.9492V9.53125H81V13.75H82.7461V14.5352H81V19.9492H80.0859ZM91.5469 10.5039C91.5527 11.9746 93.4629 13.2402 95.3438 13.5039L94.9688 14.2539C93.3516 13.9844 91.7461 13.0879 91.0781 11.8105C90.4102 13.0996 88.8105 13.9844 87.1875 14.2539L86.8125 13.5039C88.6934 13.2402 90.5977 11.998 90.5977 10.5039V9.90625H91.5469V10.5039ZM86.3203 16.1758V15.4023H95.8125V16.1758H91.5V19.9492H90.5977V16.1758H86.3203ZM105.117 12.6953V13.4336H97.9805V9.91797H98.8945V12.6953H105.117ZM96.6797 15.6016V14.8516H106.219V15.6016H96.6797ZM97.9219 19.6914V16.668H98.8359V18.9297H105.176V19.6914H97.9219ZM116.027 10.2695V11.0195H114.961V13.9844C115.494 13.9434 116.021 13.8965 116.52 13.832L116.59 14.5352C114.469 14.8574 111.996 14.8867 110.215 14.8984L110.109 14.1133C110.525 14.1133 110.982 14.1133 111.457 14.1074V11.0195H110.402V10.2695H116.027ZM111.621 19.8086V15.7539H112.535V17.0078H117.305V15.7539H118.219V19.8086H111.621ZM112.359 14.0957C112.916 14.084 113.484 14.0664 114.059 14.0371V11.0195H112.359V14.0957ZM112.535 19.0586H117.305V17.7461H112.535V19.0586ZM117.305 15.2969V9.53125H118.219V11.957H119.789V12.7422H118.219V15.2969H117.305ZM129.047 9.54297V17.2305H128.133V9.54297H129.047ZM120.621 14.8867C121.037 14.8867 121.488 14.8809 121.957 14.875V11.2773H120.914V10.5273H126.551V11.2773H125.496V14.7461C126.035 14.7051 126.562 14.6582 127.066 14.5938L127.137 15.2969C124.998 15.625 122.543 15.6543 120.738 15.6484L120.621 14.8867ZM122.25 19.7266V16.5273H123.176V18.9531H129.293V19.7266H122.25ZM122.848 14.8633C123.422 14.8516 124.014 14.8281 124.605 14.7988V11.2773H122.848V14.8633ZM142.418 9.53125V19.9727H141.492V9.53125H142.418ZM134.215 13.9727C134.221 11.7578 135.322 10.3457 136.875 10.3398C138.422 10.3457 139.541 11.7578 139.535 13.9727C139.541 16.1934 138.422 17.5996 136.875 17.5938C135.322 17.5996 134.221 16.1934 134.215 13.9727ZM135.105 13.9727C135.105 15.666 135.832 16.7793 136.875 16.7734C137.924 16.7793 138.645 15.666 138.645 13.9727C138.645 12.2793 137.924 11.166 136.875 11.1602C135.832 11.166 135.105 12.2793 135.105 13.9727ZM153.691 14.6875V15.4492H144.199V14.6875H146.555V13.2168C145.723 12.8945 145.254 12.3672 145.254 11.6641C145.254 10.4395 146.66 9.73633 148.945 9.73047C151.213 9.73633 152.619 10.4395 152.625 11.6641C152.619 12.3613 152.156 12.8887 151.336 13.2168V14.6875H153.691ZM145.348 18.0859C145.342 16.8965 146.684 16.2402 148.945 16.2461C151.178 16.2402 152.52 16.8965 152.531 18.0859C152.52 19.2754 151.178 19.9258 148.945 19.9258C146.684 19.9258 145.342 19.2754 145.348 18.0859ZM146.203 11.6641C146.197 12.4258 147.24 12.8652 148.945 12.8711C150.633 12.8652 151.682 12.4258 151.688 11.6641C151.682 10.9141 150.633 10.457 148.945 10.457C147.24 10.457 146.197 10.9141 146.203 11.6641ZM146.285 18.0859C146.273 18.7949 147.275 19.2168 148.945 19.2109C150.598 19.2168 151.6 18.7949 151.605 18.0859C151.6 17.377 150.598 16.9609 148.945 16.9492C147.275 16.9609 146.273 17.377 146.285 18.0859ZM147.469 14.6875H150.422V13.4629C149.982 13.5449 149.49 13.5859 148.945 13.5859C148.4 13.5859 147.908 13.5449 147.469 13.4688V14.6875ZM158.098 12.7305C158.086 14.4004 159.293 16.2402 160.805 16.9609L160.277 17.6875C159.105 17.1133 158.115 15.8828 157.646 14.4707C157.166 16 156.123 17.3477 154.957 17.9453L154.395 17.2188C155.895 16.4863 157.184 14.5059 157.195 12.7305V11.3711H154.77V10.6094H160.441V11.3711H158.098V12.7305ZM161.719 19.9492V9.53125H162.633V13.75H164.379V14.5352H162.633V19.9492H161.719ZM176.566 9.53125V19.9492H175.641V9.53125H176.566ZM168.082 17.2422C170.9 15.9062 172.342 13.9082 172.547 11.418H168.562V10.668H173.484C173.473 13.6621 172.078 16.3164 168.586 17.9922L168.082 17.2422ZM183.668 10.832C183.662 12.1152 185.408 13.1582 187.254 13.4102L186.891 14.1367C185.209 13.8906 183.633 13.0527 183.07 11.834C182.502 13.0527 180.938 13.8906 179.25 14.1367L178.91 13.4102C180.744 13.1582 182.479 12.1152 182.473 10.832V10.8086H179.191V10.0586H186.973V10.8086H183.668V10.832ZM178.312 15.6602V14.8984H187.852V15.6602H183.609V17.793H182.695V15.6602H178.312ZM179.531 19.7266V16.75H180.457V18.9531H186.785V19.7266H179.531ZM193.441 10.2109C195.615 10.2168 197.25 11.3535 197.25 13.0703C197.25 14.8047 195.615 15.9414 193.441 15.9297C191.268 15.9414 189.633 14.8047 189.633 13.0703C189.633 11.3535 191.268 10.2168 193.441 10.2109ZM188.695 18.5664V17.793H198.234V18.5664H188.695ZM190.512 13.0703C190.5 14.3359 191.76 15.1797 193.441 15.1797C195.111 15.1797 196.359 14.3359 196.359 13.0703C196.359 11.8223 195.111 10.9551 193.441 10.9609C191.76 10.9551 190.5 11.8223 190.512 13.0703ZM208.605 17.8867V18.6602H199.066V17.8867H203.355V15.918H200.262V12.707H206.496V11.0664H200.238V10.3047H207.398V13.457H201.176V15.1562H207.645V15.918H204.258V17.8867H208.605ZM221.086 9.53125V15.7422H220.16V13.0117H218.062V12.25H220.16V9.53125H221.086ZM212.496 14.9102C214.043 14.3535 215.145 12.9414 215.145 11.4531V11.0664H212.789V10.293H218.402V11.0664H216.07V11.4414C216.07 12.8008 217.113 14.0957 218.637 14.6172L218.156 15.3555C216.99 14.9336 216.082 14.0547 215.631 12.9824C215.186 14.2012 214.219 15.1738 212.977 15.6484L212.496 14.9102ZM214.137 18.0039C214.131 16.7793 215.461 16.0645 217.629 16.0703C219.791 16.0645 221.121 16.7793 221.121 18.0039C221.121 19.2344 219.791 19.9375 217.629 19.9492C215.461 19.9375 214.131 19.2344 214.137 18.0039ZM215.051 18.0039C215.045 18.7598 216.029 19.2168 217.629 19.2109C219.223 19.2168 220.207 18.7598 220.207 18.0039C220.207 17.2422 219.223 16.7852 217.629 16.7852C216.029 16.7852 215.045 17.2422 215.051 18.0039ZM230.953 9.54297V12.6953H232.512V13.4688H230.953V16.5273H230.027V9.54297H230.953ZM222.773 15.4609C223.605 15.4609 224.578 15.4609 225.598 15.4316V14.6641C224.385 14.5527 223.6 13.9961 223.605 13.1289C223.6 12.1797 224.578 11.5938 226.043 11.5938C227.52 11.5938 228.48 12.1797 228.492 13.1289C228.48 13.9902 227.719 14.5469 226.512 14.6641V15.3965C227.484 15.3496 228.469 15.2676 229.383 15.1328L229.465 15.8008C227.203 16.1992 224.713 16.2168 222.879 16.2109L222.773 15.4609ZM223.031 11.1953V10.4922H225.598V9.44922H226.512V10.4922H229.066V11.1953H223.031ZM224.051 17.7812V17.043H230.953V19.9492H230.027V17.7812H224.051ZM224.484 13.1289C224.479 13.6738 225.082 14.043 226.043 14.0312C227.004 14.043 227.613 13.6738 227.613 13.1289C227.613 12.5781 227.004 12.2383 226.043 12.25C225.082 12.2383 224.479 12.5781 224.484 13.1289ZM241.254 9.53125V13.832H243V14.5938H241.254V19.9492H240.34V9.53125H241.254ZM233.133 11.9688V11.207H235.816V9.66016H236.73V11.207H239.332V11.9688H233.133ZM233.73 15.2266C233.725 13.8203 234.803 12.8359 236.285 12.8359C237.756 12.8359 238.828 13.8203 238.84 15.2266C238.828 16.6387 237.756 17.6172 236.285 17.6172C234.803 17.6172 233.725 16.6387 233.73 15.2266ZM234.609 15.2266C234.604 16.1758 235.312 16.8438 236.285 16.832C237.246 16.8438 237.949 16.1758 237.961 15.2266C237.949 14.2832 237.246 13.6035 236.285 13.6094C235.312 13.6035 234.604 14.2832 234.609 15.2266ZM247.289 12.7305C247.295 14.5 248.578 16.2988 250.113 16.9609L249.598 17.6875C248.379 17.1367 247.33 15.9355 246.844 14.4941C246.357 16.0234 245.303 17.3477 244.113 17.9453L243.562 17.2188C245.057 16.5039 246.357 14.5352 246.363 12.7305V11.3711H243.902V10.6094H249.773V11.3711H247.289V12.7305ZM251.227 19.9492V9.53125H252.152V19.9492H251.227ZM259.852 10.1289C261.41 10.1348 262.559 11.125 262.559 12.5312C262.559 13.9551 261.41 14.9395 259.852 14.9453C258.299 14.9395 257.139 13.9551 257.145 12.5312C257.139 11.125 258.299 10.1348 259.852 10.1289ZM258.047 12.5312C258.041 13.4863 258.826 14.1836 259.852 14.1836C260.883 14.1836 261.662 13.4863 261.656 12.5312C261.662 11.5938 260.883 10.9023 259.852 10.9023C258.826 10.9023 258.041 11.5938 258.047 12.5312ZM258.059 19.668V15.8711H258.949V18.9121C259.553 18.8887 260.355 18.8008 261.094 18.5547L261.234 19.293C260.221 19.627 259.23 19.6738 258.551 19.668H258.059ZM260.871 16.6328V15.918H263.062V14.9922H263.965V15.918H266.133V16.6328H260.871ZM261.562 18.4609C261.557 17.5586 262.348 16.9844 263.496 16.9844C264.639 16.9844 265.441 17.5586 265.453 18.4609C265.441 19.3633 264.639 19.9258 263.496 19.9258C262.348 19.9258 261.557 19.3633 261.562 18.4609ZM262.383 18.4609C262.383 18.9531 262.846 19.2637 263.496 19.2695C264.146 19.2637 264.609 18.9531 264.609 18.4609C264.609 17.9805 264.146 17.6582 263.496 17.6523C262.846 17.6582 262.383 17.9805 262.383 18.4609ZM264.176 14.7461V9.53125H265.09V11.8867H266.66V12.6484H265.09V14.7461H264.176ZM272.062 9.71875C274.377 9.71875 275.736 10.3574 275.742 11.5117C275.736 12.6953 274.377 13.334 272.062 13.3398C269.736 13.334 268.371 12.6953 268.371 11.5117C268.371 10.3574 269.736 9.71875 272.062 9.71875ZM267.316 14.793V14.043H276.809V14.793H267.316ZM268.465 16.3984V15.6953H275.59V18.0273H269.402V19.1055H275.906V19.832H268.488V17.3477H274.688V16.3984H268.465ZM269.332 11.5117C269.32 12.2383 270.334 12.6367 272.062 12.6367C273.791 12.6367 274.799 12.2383 274.805 11.5117C274.799 10.8262 273.791 10.416 272.062 10.4102C270.334 10.416 269.32 10.8262 269.332 11.5117ZM285.926 10.5039C285.932 11.9746 287.842 13.2402 289.723 13.5039L289.348 14.2539C287.73 13.9844 286.125 13.0879 285.457 11.8105C284.789 13.0996 283.189 13.9844 281.566 14.2539L281.191 13.5039C283.072 13.2402 284.977 11.998 284.977 10.5039V9.90625H285.926V10.5039ZM280.699 16.1758V15.4023H290.191V16.1758H285.879V19.9492H284.977V16.1758H280.699ZM297.609 16.5273C297.604 17.4473 298.102 18.4258 299.092 18.9883C300.088 18.373 300.615 17.3301 300.609 16.5273V15.9531H301.512V16.5273C301.506 17.5996 302.297 18.666 303.633 19.1289L303.176 19.8086C302.133 19.4395 301.406 18.7129 301.043 17.8398C300.721 18.6836 300.082 19.4863 299.121 19.8906C298.107 19.5039 297.463 18.7422 297.152 17.8691C296.777 18.707 296.062 19.4336 295.066 19.8086L294.598 19.1289C295.916 18.6367 296.707 17.5234 296.719 16.5273V15.9531H297.609V16.5273ZM294.328 12.5898C294.322 11.1367 295.477 10.1465 297.059 10.1523C298.641 10.1465 299.783 11.1367 299.789 12.5898C299.783 14.0195 298.641 15.0039 297.059 15.0039C295.477 15.0039 294.322 14.0195 294.328 12.5898ZM295.23 12.5898C295.219 13.5566 295.986 14.2363 297.059 14.2422C298.119 14.2363 298.887 13.5566 298.887 12.5898C298.887 11.6172 298.119 10.9258 297.059 10.9375C295.986 10.9258 295.219 11.6172 295.23 12.5898ZM301.77 15.4961V9.54297H302.684V15.4961H301.77ZM306.574 15.7891V17.0078H311.777V15.7891H312.703V19.8086H305.66V15.7891H306.574ZM304.453 15.0508V14.2891H313.945V15.0508H304.453ZM304.992 12.8125C306.85 12.5605 308.73 11.4648 308.73 10.1406V9.64844H309.68V10.1406C309.674 11.4238 311.572 12.5781 313.406 12.8125L313.066 13.5508C311.455 13.3105 309.867 12.4902 309.205 11.3242C308.543 12.4961 306.949 13.3105 305.344 13.5508L304.992 12.8125ZM306.574 19.0703H311.777V17.7344H306.574V19.0703ZM323.414 9.53125V19.9492H322.5V9.53125H323.414ZM315.504 17.2656V10.5625H316.406V16.4688C318 16.457 319.641 16.334 321.387 15.9648L321.516 16.75C319.664 17.1367 318.018 17.2656 316.348 17.2656H315.504ZM333.258 9.53125V13.6562H335.004V14.4297H333.258V19.9727H332.344V9.53125H333.258ZM325.652 17.3594V10.5508H330.516V11.3125H326.566V16.5859C328.453 16.5801 329.783 16.498 331.336 16.2109L331.453 17.0078C329.818 17.3008 328.453 17.3594 326.473 17.3594H325.652ZM336.668 19.0703C336.258 19.0645 335.906 18.7246 335.918 18.3086C335.906 17.8984 336.258 17.5586 336.668 17.5586C337.084 17.5586 337.424 17.8984 337.418 18.3086C337.424 18.7246 337.084 19.0645 336.668 19.0703Z" fill="#EF4452"/>
<defs>
<filter id="filter0_d_4544_95016" x="0" y="0" width="349" height="37.4741" filterUnits="userSpaceOnUse" color-interpolation-filters="sRGB">
<feFlood flood-opacity="0" result="BackgroundImageFix"/>
<feColorMatrix in="SourceAlpha" type="matrix" values="0 0 0 0 0 0 0 0 0 0 0 0 0 0 0 0 0 0 127 0" result="hardAlpha"/>
<feOffset dy="1"/>
<feGaussianBlur stdDeviation="2"/>
<feComposite in2="hardAlpha" operator="out"/>
<feColorMatrix type="matrix" values="0 0 0 0 0 0 0 0 0 0 0 0 0 0 0 0 0 0 0.25 0"/>
<feBlend mode="normal" in2="BackgroundImageFix" result="effect1_dropShadow_4544_95016"/>
<feBlend mode="normal" in="SourceGraphic" in2="effect1_dropShadow_4544_95016" result="shape"/>
</filter>
</defs>
</svg>
