<svg width="14" height="13" viewBox="0 0 14 13" fill="none" xmlns="http://www.w3.org/2000/svg">
<path d="M7.75 9.75C7.75 9.89834 7.70602 10.0433 7.6236 10.1667C7.54119 10.29 7.42406 10.3861 7.28701 10.4429C7.14997 10.4997 6.99917 10.5145 6.85368 10.4856C6.7082 10.4567 6.57456 10.3852 6.46967 10.2803C6.36478 10.1754 6.29335 10.0418 6.26441 9.89632C6.23548 9.75083 6.25033 9.60003 6.30709 9.46299C6.36386 9.32594 6.45999 9.20881 6.58333 9.1264C6.70666 9.04399 6.85167 9 7 9C7.19892 9 7.38968 9.07902 7.53033 9.21967C7.67098 9.36032 7.75 9.55109 7.75 9.75ZM7 3C5.62125 3 4.5 4.00938 4.5 5.25V5.5C4.5 5.63261 4.55268 5.75979 4.64645 5.85355C4.74022 5.94732 4.86739 6 5 6C5.13261 6 5.25979 5.94732 5.35356 5.85355C5.44732 5.75979 5.5 5.63261 5.5 5.5V5.25C5.5 4.5625 6.17313 4 7 4C7.82688 4 8.5 4.5625 8.5 5.25C8.5 5.9375 7.82688 6.5 7 6.5C6.86739 6.5 6.74022 6.55268 6.64645 6.64645C6.55268 6.74022 6.5 6.86739 6.5 7V7.5C6.5 7.63261 6.55268 7.75979 6.64645 7.85355C6.74022 7.94732 6.86739 8 7 8C7.13261 8 7.25979 7.94732 7.35356 7.85355C7.44732 7.75979 7.5 7.63261 7.5 7.5V7.455C8.64 7.24563 9.5 6.33625 9.5 5.25C9.5 4.00938 8.37875 3 7 3ZM13.5 6.5C13.5 7.78558 13.1188 9.04229 12.4046 10.1112C11.6903 11.1801 10.6752 12.0132 9.48744 12.5052C8.29973 12.9972 6.99279 13.1259 5.73192 12.8751C4.47104 12.6243 3.31285 12.0052 2.40381 11.0962C1.49477 10.1872 0.875703 9.02896 0.624899 7.76809C0.374095 6.50721 0.502816 5.20028 0.994786 4.01256C1.48676 2.82484 2.31988 1.80968 3.3888 1.09545C4.45772 0.381218 5.71442 0 7 0C8.72335 0.00181989 10.3756 0.687224 11.5942 1.90582C12.8128 3.12441 13.4982 4.77665 13.5 6.5ZM12.5 6.5C12.5 5.4122 12.1774 4.34883 11.5731 3.44436C10.9687 2.53989 10.1098 1.83494 9.10476 1.41866C8.09977 1.00238 6.9939 0.893462 5.92701 1.10568C4.86011 1.3179 3.8801 1.84172 3.11092 2.61091C2.34173 3.3801 1.8179 4.36011 1.60568 5.427C1.39347 6.4939 1.50238 7.59977 1.91867 8.60476C2.33495 9.60975 3.0399 10.4687 3.94437 11.0731C4.84884 11.6774 5.91221 12 7 12C8.45819 11.9983 9.85617 11.4184 10.8873 10.3873C11.9184 9.35617 12.4983 7.95818 12.5 6.5Z" fill="#9F9F9F"/>
</svg>
