<svg width="168" height="38" viewBox="0 0 168 38" fill="none" xmlns="http://www.w3.org/2000/svg">
<g filter="url(#filter0_d_4544_91425)">
<rect x="6.5" y="0.5" width="155" height="31" rx="15.5" stroke="#0EB5F9" shape-rendering="crispEdges"/>
<path d="M35.3366 25.5044H32.9953C32.9677 25.5044 32.9453 25.482 32.9453 25.4544V23.0893C32.9453 23.0761 32.9506 23.0633 32.96 23.054L36.5006 19.516C36.5202 19.4964 36.5519 19.4965 36.5714 19.5161L38.9162 21.8823C38.9356 21.9018 38.9355 21.9334 38.916 21.9528L35.372 25.4898C35.3626 25.4992 35.3499 25.5044 35.3366 25.5044Z" stroke="url(#paint0_linear_4544_91425)" stroke-width="2"/>
<path d="M27.0898 15.6751L28.8929 17.478C28.9124 17.4975 28.9441 17.4975 28.9636 17.478L32.9449 13.4971" stroke="url(#paint1_linear_4544_91425)" stroke-width="1.7" stroke-linecap="round" stroke-linejoin="round"/>
<path d="M38.8952 17.0018C39.7767 10.8618 35.0459 6.49512 30.0176 6.49512C24.9893 6.49512 21.0078 10.546 21.0078 15.6358C21.0078 19.7912 24.3011 23.9429 28.964 24.4338" stroke="url(#paint2_linear_4544_91425)" stroke-width="2" stroke-linecap="round" stroke-linejoin="round"/>
<path d="M52.6973 17.4863C55.2607 17.4863 56.833 18.3545 56.8398 19.8379C56.833 21.3418 55.2607 22.21 52.6973 22.2168C50.1133 22.21 48.5137 21.3418 48.5137 19.8379C48.5137 18.3545 50.1133 17.4863 52.6973 17.4863ZM47.3926 16.4062V10.6367H48.8965V12.3047H51.7812V10.6367H53.2852V16.4062H47.3926ZM48.8965 15.2031H51.7812V13.4941H48.8965V15.2031ZM50.0312 19.8379C50.0312 20.6035 51.002 21.0205 52.6973 21.0137C54.3857 21.0205 55.3359 20.6035 55.3359 19.8379C55.3359 19.0723 54.3857 18.6826 52.6973 18.6758C51.002 18.6826 50.0312 19.0723 50.0312 19.8379ZM55.1992 17.1855V9.85742H56.7168V12.8105H58.4395V14.082H56.7168V17.1855H55.1992ZM70.3477 16.0371V17.2539H65.5762V19.5234H64.0723V17.2539H59.0547V16.0371H70.3477ZM60.4219 21.9707V18.3887H61.9395V20.7402H69.1035V21.9707H60.4219ZM60.4902 14.8887V10.418H68.8984V14.8887H60.4902ZM61.9668 13.6992H67.3945V11.6074H61.9668V13.6992ZM85.1406 11.1836V12.4141H75.0508V11.1836H79.3574V9.83008H80.8613V11.1836H85.1406ZM74.4902 19.0859V17.8418H85.7832V19.0859H80.8613V22.2305H79.3574V19.0859H74.4902ZM75.9258 15.0664C75.9258 13.7129 77.498 12.9746 80.1094 12.9746C82.7207 12.9746 84.293 13.7129 84.293 15.0664C84.293 16.4131 82.7207 17.1582 80.1094 17.1582C77.498 17.1582 75.9258 16.4131 75.9258 15.0664ZM77.5117 15.0664C77.5049 15.7021 78.4004 16.0303 80.1094 16.0234C81.8115 16.0303 82.7139 15.7021 82.7207 15.0664C82.7139 14.4375 81.8115 14.1094 80.1094 14.1094C78.4004 14.1094 77.5049 14.4375 77.5117 15.0664ZM96.9121 9.85742V22.2168H95.3809V9.85742H96.9121ZM86.6719 18.8125C89.9121 17.2744 91.4023 15.1826 91.6758 12.373H87.3008V11.1699H93.2207C93.2207 14.8477 91.792 17.9717 87.4648 20.0293L86.6719 18.8125ZM106.441 12.0039C106.441 13.5283 107.419 15.0254 109.367 15.668L108.602 16.8438C107.214 16.3789 106.236 15.4561 105.696 14.3008C105.149 15.5654 104.124 16.5703 102.682 17.0625L101.875 15.8867C103.864 15.2236 104.91 13.624 104.91 12.0039V11.8535H102.299V10.6367H109.012V11.8535H106.441V12.0039ZM103.529 19.0996V17.8828H111.76V22.2168H110.242V19.0996H103.529ZM110.242 17.3086V9.85742H111.76V12.9473H113.482V14.2188H111.76V17.3086H110.242ZM118.637 11.6348C118.63 13.3164 119.614 14.8545 121.549 15.4629L120.729 16.6523C119.382 16.1738 118.438 15.2715 117.912 14.1025C117.365 15.4492 116.333 16.5088 114.836 17.0352L114.029 15.8047C116.073 15.1348 117.099 13.4873 117.105 11.7031V10.5273H118.637V11.6348ZM116.08 19.8379C116.066 18.334 117.673 17.4521 120.277 17.459C122.896 17.4521 124.495 18.334 124.502 19.8379C124.495 21.3418 122.896 22.2031 120.277 22.2031C117.673 22.2031 116.066 21.3418 116.08 19.8379ZM117.584 19.8379C117.577 20.5898 118.562 21.0068 120.277 21.0137C122.007 21.0068 122.984 20.5898 122.984 19.8379C122.984 19.0586 122.007 18.6416 120.277 18.6348C118.562 18.6416 117.577 19.0586 117.584 19.8379ZM120.482 13.4941V12.25H122.943V9.85742H124.461V17.1309H122.943V13.4941H120.482ZM135.891 9.85742V14.7793H137.791V16.0371H135.891V22.2168H134.387V9.85742H135.891ZM126.143 12.9746V11.7578H129.068V10.0352H130.586V11.7578H133.43V12.9746H126.143ZM126.717 16.6934C126.703 14.9844 128.029 13.7744 129.834 13.7812C131.611 13.7744 132.931 14.9844 132.938 16.6934C132.931 18.3955 131.611 19.5918 129.834 19.5918C128.029 19.5918 126.703 18.3955 126.717 16.6934ZM128.166 16.6934C128.159 17.6982 128.863 18.3408 129.834 18.334C130.784 18.3408 131.475 17.6982 131.488 16.6934C131.475 15.6885 130.784 15.0254 129.834 15.0254C128.863 15.0254 128.159 15.6885 128.166 16.6934ZM148.633 9.85742V22.2168H147.102V9.85742H148.633ZM138.393 18.8125C141.633 17.2744 143.123 15.1826 143.396 12.373H139.021V11.1699H144.941C144.941 14.8477 143.513 17.9717 139.186 20.0293L138.393 18.8125Z" fill="#0EB5F9"/>
</g>
<defs>
<filter id="filter0_d_4544_91425" x="0" y="-6" width="168" height="44" filterUnits="userSpaceOnUse" color-interpolation-filters="sRGB">
<feFlood flood-opacity="0" result="BackgroundImageFix"/>
<feColorMatrix in="SourceAlpha" type="matrix" values="0 0 0 0 0 0 0 0 0 0 0 0 0 0 0 0 0 0 127 0" result="hardAlpha"/>
<feOffset/>
<feGaussianBlur stdDeviation="3"/>
<feComposite in2="hardAlpha" operator="out"/>
<feColorMatrix type="matrix" values="0 0 0 0 0 0 0 0 0 0 0 0 0 0 0 0 0 0 0.25 0"/>
<feBlend mode="normal" in2="BackgroundImageFix" result="effect1_dropShadow_4544_91425"/>
<feBlend mode="normal" in="SourceGraphic" in2="effect1_dropShadow_4544_91425" result="shape"/>
</filter>
<linearGradient id="paint0_linear_4544_91425" x1="34.8758" y1="18.157" x2="29.618" y2="22.1243" gradientUnits="userSpaceOnUse">
<stop stop-color="#14B4F9"/>
<stop offset="1" stop-color="#D778CE"/>
</linearGradient>
<linearGradient id="paint1_linear_4544_91425" x1="28.9718" y1="12.6147" x2="25.344" y2="16.6174" gradientUnits="userSpaceOnUse">
<stop stop-color="#14B4F9"/>
<stop offset="1" stop-color="#D778CE"/>
</linearGradient>
<linearGradient id="paint2_linear_4544_91425" x1="26.7916" y1="2.55404" x2="11.1087" y2="14.4597" gradientUnits="userSpaceOnUse">
<stop stop-color="#14B4F9"/>
<stop offset="1" stop-color="#D778CE"/>
</linearGradient>
</defs>
</svg>
