<svg width="40" height="40" viewBox="0 0 40 40" fill="none" xmlns="http://www.w3.org/2000/svg">
<circle cx="20" cy="20" r="20" fill="url(#paint0_linear_105_38458)"/>
<path d="M14.6659 18.0751L18.8948 21.5312C19.5162 22.039 19.6278 22.9461 19.1479 23.5895L14.919 29.2591C14.056 30.4162 12.2167 29.8058 12.2167 28.3623V19.2366C12.2167 17.9715 13.6863 17.2746 14.6659 18.0751Z" fill="white"/>
<path fill-rule="evenodd" clip-rule="evenodd" d="M20.1812 9.21948C15.7804 9.21948 12.2129 12.787 12.2129 17.1878V17.4674C12.2129 21.8682 15.7804 25.4357 20.1812 25.4357C24.582 25.4357 28.1495 21.8682 28.1495 17.4674V17.1878C28.1495 12.787 24.582 9.21948 20.1812 9.21948ZM20.2472 20.72C22.1148 20.72 23.6288 19.1795 23.6288 17.2791C23.6288 15.3788 22.1148 13.8382 20.2472 13.8382C18.3796 13.8382 16.8656 15.3788 16.8656 17.2791C16.8656 19.1795 18.3796 20.72 20.2472 20.72Z" fill="white"/>
<defs>
<linearGradient id="paint0_linear_105_38458" x1="12.8571" y1="-8.78788" x2="-22.0838" y2="17.6561" gradientUnits="userSpaceOnUse">
<stop stop-color="#14B4F9"/>
<stop offset="1" stop-color="#D778CE"/>
</linearGradient>
</defs>
</svg>
