<svg width="18" height="18" viewBox="0 0 18 18" fill="none" xmlns="http://www.w3.org/2000/svg">
<path d="M7.33352 13.6252L5.85852 15.0586C5.47175 15.4453 4.94717 15.6626 4.40019 15.6626C3.85321 15.6626 3.32863 15.4453 2.94186 15.0586C2.55508 14.6718 2.33779 14.1472 2.33779 13.6002C2.33779 13.0533 2.55508 12.5287 2.94186 12.1419L6.72519 8.35024C7.09653 7.97769 7.59687 7.76214 8.1227 7.74818C8.64853 7.73422 9.1596 7.92292 9.55019 8.27524L9.65019 8.35857C9.80821 8.51328 10.0212 8.59888 10.2424 8.59654C10.4635 8.59419 10.6746 8.5041 10.8294 8.34607C10.9841 8.18805 11.0697 7.97504 11.0673 7.7539C11.065 7.53277 10.9749 7.32162 10.8169 7.16691C10.7698 7.1061 10.7198 7.04769 10.6669 6.99191C9.95548 6.373 9.03546 6.04761 8.09316 6.08165C7.15086 6.1157 6.25672 6.50662 5.59186 7.17524L1.75852 10.9669C1.10715 11.6759 0.754873 12.6091 0.775251 13.5717C0.79563 14.5343 1.18709 15.4518 1.86788 16.1325C2.54868 16.8133 3.46616 17.2048 4.42873 17.2252C5.3913 17.2456 6.32453 16.8933 7.03352 16.2419L8.47519 14.8336C8.61754 14.6783 8.69579 14.4748 8.6942 14.2642C8.69261 14.0535 8.61129 13.8513 8.46661 13.6982C8.32194 13.545 8.12464 13.4524 7.91441 13.4389C7.70418 13.4253 7.49663 13.4919 7.33352 13.6252V13.6252ZM16.2419 1.75857C15.5408 1.06191 14.5927 0.670898 13.6044 0.670898C12.616 0.670898 11.6679 1.06191 10.9669 1.75857L9.52519 3.16691C9.38284 3.3222 9.30459 3.52564 9.30618 3.7363C9.30777 3.94695 9.38909 4.14919 9.53376 4.30231C9.67844 4.45544 9.87574 4.54809 10.086 4.56162C10.2962 4.57515 10.5037 4.50856 10.6669 4.37524L12.1085 2.94191C12.4953 2.55513 13.0199 2.33785 13.5669 2.33785C14.1138 2.33785 14.6384 2.55513 15.0252 2.94191C15.412 3.32868 15.6292 3.85326 15.6292 4.40024C15.6292 4.94722 15.412 5.4718 15.0252 5.85857L11.2419 9.65024C10.8705 10.0228 10.3702 10.2383 9.84434 10.2523C9.31852 10.2663 8.80744 10.0776 8.41686 9.72524L8.31686 9.64191C8.15883 9.4872 7.94582 9.4016 7.72468 9.40394C7.50355 9.40629 7.2924 9.49638 7.13769 9.65441C6.98298 9.81243 6.89738 10.0254 6.89972 10.2466C6.90207 10.4677 6.99216 10.6789 7.15019 10.8336C7.21072 10.8955 7.27471 10.9539 7.34186 11.0086C8.05409 11.6256 8.97371 11.9498 9.91544 11.9158C10.8572 11.8817 11.751 11.4921 12.4169 10.8252L16.2085 7.03357C16.9096 6.33697 17.3066 5.39127 17.3129 4.40295C17.3191 3.41463 16.9341 2.46398 16.2419 1.75857V1.75857Z" fill="#0EB5F9"/>
</svg>
