<svg width="343" height="52" viewBox="0 0 343 52" fill="none" xmlns="http://www.w3.org/2000/svg">
<rect width="343" height="52" rx="26" fill="#0EB5F9"/>
<path d="M129.162 18.6738V34.582H127.193V18.6738H129.162ZM120.602 19.834C122.992 19.834 124.732 22.0137 124.75 25.4414C124.732 28.9043 122.992 31.0664 120.602 31.0664C118.193 31.0664 116.453 28.9043 116.453 25.4414C116.453 22.0137 118.193 19.834 120.602 19.834ZM120.602 21.5918C119.248 21.5918 118.334 23.0156 118.334 25.4414C118.334 27.8848 119.248 29.3086 120.602 29.3086C121.938 29.3086 122.852 27.8848 122.852 25.4414C122.852 23.0156 121.938 21.5918 120.602 21.5918ZM138.232 20.3965V24.5273H140.078V18.9551H141.941V33.791H140.078V26.1094H138.232V30.4688H131.992V20.3965H138.232ZM133.82 21.9434V28.9219H136.404V21.9434H133.82ZM145.211 18.6738V34.5645H143.33V18.6738H145.211ZM151.557 19.1836C153.965 19.1836 155.758 20.6777 155.775 22.7695C155.758 24.8789 153.965 26.3555 151.557 26.3555C149.131 26.3555 147.338 24.8789 147.338 22.7695C147.338 20.6777 149.131 19.1836 151.557 19.1836ZM151.557 20.8008C150.221 20.8008 149.236 21.5566 149.236 22.7695C149.236 24 150.221 24.7734 151.557 24.7734C152.893 24.7734 153.877 24 153.877 22.7695C153.877 21.5566 152.893 20.8008 151.557 20.8008ZM160.293 18.6738V26.707H158.324V18.6738H160.293ZM160.293 27.3926V31.541H151.697V32.8242H160.768V34.3711H149.781V30.0996H158.342V28.9219H149.746V27.3926H160.293ZM177.133 31.1016V32.7188H162.613V31.1016H168.871V28.5176H164.336V23.3145H173.477V21.3457H164.301V19.7637H175.41V24.8613H166.287V26.918H175.779V28.5176H170.805V31.1016H177.133ZM196.961 31.1016V32.7188H182.441V31.1016H188.699V28.5176H184.164V23.3145H193.305V21.3457H184.129V19.7637H195.238V24.8613H186.115V26.918H195.607V28.5176H190.633V31.1016H196.961ZM210.637 20.2207V22.0137C210.637 24.1406 210.637 26.3379 210.057 29.6777L208.07 29.502C208.686 26.373 208.686 24.0703 208.686 22.0137V21.8027H199.527V20.2207H210.637ZM212.482 30.7852V32.3848H197.998V30.7852H212.482ZM226.791 18.6914V30.1699H224.822V18.6914H226.791ZM227.23 32.666V34.248H216.279V29.0098H218.248V32.666H227.23ZM218.125 19.7285C220.533 19.7285 222.396 21.3984 222.396 23.7012C222.396 26.0566 220.533 27.6914 218.125 27.6914C215.699 27.6914 213.836 26.0566 213.836 23.7012C213.836 21.3984 215.699 19.7285 218.125 19.7285ZM218.125 21.4336C216.771 21.4336 215.734 22.3301 215.752 23.7012C215.734 25.1074 216.771 25.9863 218.125 25.9863C219.443 25.9863 220.48 25.1074 220.48 23.7012C220.48 22.3301 219.443 21.4336 218.125 21.4336Z" fill="white"/>
</svg>
