<svg width="343" height="52" viewBox="0 0 343 52" fill="none" xmlns="http://www.w3.org/2000/svg">
<rect width="343" height="52" rx="26" fill="#0EB5F9"/>
<path d="M122.522 17.2861V35.8457H120.226V17.2861H122.522ZM112.535 18.6396C115.324 18.6396 117.354 21.1826 117.375 25.1816C117.354 29.2217 115.324 31.7441 112.535 31.7441C109.726 31.7441 107.695 29.2217 107.695 25.1816C107.695 21.1826 109.726 18.6396 112.535 18.6396ZM112.535 20.6904C110.956 20.6904 109.89 22.3516 109.89 25.1816C109.89 28.0322 110.956 29.6934 112.535 29.6934C114.094 29.6934 115.16 28.0322 115.16 25.1816C115.16 22.3516 114.094 20.6904 112.535 20.6904ZM133.104 19.2959V24.1152H135.258V17.6143H137.432V34.9229H135.258V25.9609H133.104V31.0469H125.824V19.2959H133.104ZM127.957 21.1006V29.2422H130.972V21.1006H127.957ZM141.246 17.2861V35.8252H139.052V17.2861H141.246ZM148.649 17.8809C151.459 17.8809 153.551 19.624 153.571 22.0645C153.551 24.5254 151.459 26.248 148.649 26.248C145.819 26.248 143.728 24.5254 143.728 22.0645C143.728 19.624 145.819 17.8809 148.649 17.8809ZM148.649 19.7676C147.091 19.7676 145.942 20.6494 145.942 22.0645C145.942 23.5 147.091 24.4023 148.649 24.4023C150.208 24.4023 151.356 23.5 151.356 22.0645C151.356 20.6494 150.208 19.7676 148.649 19.7676ZM158.842 17.2861V26.6582H156.545V17.2861H158.842ZM158.842 27.458V32.2979H148.813V33.7949H159.396V35.5996H146.578V30.6162H156.565V29.2422H146.537V27.458H158.842ZM178.488 31.7852V33.6719H161.549V31.7852H168.85V28.7705H163.559V22.7002H174.223V20.4033H163.518V18.5576H176.479V24.5049H165.835V26.9043H176.909V28.7705H171.105V31.7852H178.488ZM201.621 31.7852V33.6719H184.682V31.7852H191.982V28.7705H186.691V22.7002H197.355V20.4033H186.65V18.5576H199.611V24.5049H188.968V26.9043H200.042V28.7705H194.238V31.7852H201.621ZM217.576 19.0908V21.1826C217.576 23.6641 217.576 26.2275 216.899 30.124L214.582 29.9189C215.3 26.2686 215.3 23.582 215.3 21.1826V20.9365H204.615V19.0908H217.576ZM219.729 31.416V33.2822H202.831V31.416H219.729ZM236.423 17.3066V30.6982H234.126V17.3066H236.423ZM236.936 33.6104V35.4561H224.159V29.3447H226.456V33.6104H236.936ZM226.312 18.5166C229.122 18.5166 231.296 20.4648 231.296 23.1514C231.296 25.8994 229.122 27.8066 226.312 27.8066C223.482 27.8066 221.309 25.8994 221.309 23.1514C221.309 20.4648 223.482 18.5166 226.312 18.5166ZM226.312 20.5059C224.733 20.5059 223.523 21.5518 223.544 23.1514C223.523 24.792 224.733 25.8174 226.312 25.8174C227.851 25.8174 229.061 24.792 229.061 23.1514C229.061 21.5518 227.851 20.5059 226.312 20.5059Z" fill="white"/>
<path d="M45.5834 18.3334H30.4167C29.5548 18.3334 28.7281 18.6758 28.1187 19.2853C27.5092 19.8948 27.1667 20.7214 27.1667 21.5834V32.4167C27.1667 33.2787 27.5092 34.1053 28.1187 34.7148C28.7281 35.3243 29.5548 35.6667 30.4167 35.6667H45.5834C46.4454 35.6667 47.272 35.3243 47.8815 34.7148C48.491 34.1053 48.8334 33.2787 48.8334 32.4167V21.5834C48.8334 20.7214 48.491 19.8948 47.8815 19.2853C47.272 18.6758 46.4454 18.3334 45.5834 18.3334V18.3334ZM30.4167 20.5H45.5834C45.8707 20.5 46.1463 20.6142 46.3494 20.8173C46.5526 21.0205 46.6667 21.2961 46.6667 21.5834L38.0001 26.87L29.3334 21.5834C29.3334 21.2961 29.4476 21.0205 29.6507 20.8173C29.8539 20.6142 30.1294 20.5 30.4167 20.5V20.5ZM46.6667 32.4167C46.6667 32.704 46.5526 32.9796 46.3494 33.1827C46.1463 33.3859 45.8707 33.5 45.5834 33.5H30.4167C30.1294 33.5 29.8539 33.3859 29.6507 33.1827C29.4476 32.9796 29.3334 32.704 29.3334 32.4167V24.0534L37.4367 29.0042C37.6014 29.0993 37.7882 29.1493 37.9784 29.1493C38.1686 29.1493 38.3554 29.0993 38.5201 29.0042L46.6667 24.0534V32.4167Z" fill="white"/>
</svg>
