<svg width="344" height="52" viewBox="0 0 344 52" fill="none" xmlns="http://www.w3.org/2000/svg">
<rect x="0.980469" width="343" height="52" rx="26" fill="#0EB5F9"/>
<path d="M130.145 18.6796V34.5912H128.175V18.6796H130.145ZM117.434 25.442C117.428 22.011 119.175 19.8356 121.586 19.8294C123.967 19.8356 125.72 22.011 125.72 25.442C125.72 28.8978 123.967 31.0732 121.586 31.067C119.175 31.0732 117.428 28.8978 117.434 25.442ZM119.318 25.442C119.318 27.8847 120.231 29.3018 121.586 29.3018C122.917 29.3018 123.83 27.8847 123.83 25.442C123.83 23.018 122.917 21.5946 121.586 21.5946C120.231 21.5946 119.318 23.018 119.318 25.442ZM139.213 20.395V24.5283H141.065V18.953H142.923V33.7956H141.065V26.1133H139.213V30.4703H132.972V20.395H139.213ZM134.806 28.9289H137.379V21.9365H134.806V28.9289ZM144.309 34.5539V18.6796H146.187V34.5539H144.309ZM152.544 19.183C154.95 19.1892 156.74 20.6809 156.746 22.7756C156.74 24.8702 154.95 26.3494 152.544 26.3557C150.114 26.3494 148.318 24.8702 148.324 22.7756C148.318 20.6809 150.114 19.1892 152.544 19.183ZM150.226 22.7756C150.213 24 151.202 24.7707 152.544 24.7707C153.874 24.7707 154.85 24 154.85 22.7756C154.85 21.5635 153.874 20.7928 152.544 20.799C151.202 20.7928 150.213 21.5635 150.226 22.7756ZM150.717 28.9164V27.3936H161.265V31.5456H152.669V32.8198H161.743V34.3674H150.767V30.1036H159.319V28.9164H150.717ZM159.307 26.6975V18.6796H161.265V26.6975H159.307ZM178.12 31.1043V32.7203H163.595V31.1043H169.854V28.5124H165.316V23.3163H174.466V21.3398H165.292V19.761H176.399V24.8639H167.268V26.9151H176.765V28.5124H171.793V31.1043H178.12ZM197.948 31.1043V32.7203H183.423V31.1043H189.682V28.5124H185.145V23.3163H194.294V21.3398H185.12V19.761H196.227V24.8639H187.096V26.9151H196.593V28.5124H191.621V31.1043H197.948ZM211.616 20.2148V22.0173C211.616 24.1367 211.616 26.3308 211.037 29.6685L209.055 29.5007C209.67 26.3805 209.67 24.0746 209.676 22.0173V21.7997H200.508V20.2148H211.616ZM198.979 32.3909V30.7811H213.455V32.3909H198.979ZM227.763 18.692V30.172H225.805V18.692H227.763ZM214.822 23.7017C214.816 21.3895 216.687 19.7362 219.104 19.7362C221.522 19.7362 223.381 21.3895 223.381 23.7017C223.381 26.0511 221.522 27.692 219.104 27.6858C216.687 27.692 214.816 26.0511 214.822 23.7017ZM216.73 23.7017C216.724 25.1126 217.743 25.9827 219.104 25.9827C220.428 25.9827 221.46 25.1126 221.46 23.7017C221.46 22.328 220.428 21.4392 219.104 21.4392C217.743 21.4392 216.724 22.328 216.73 23.7017ZM217.252 34.2555V29.0035H219.223V32.6706H228.21V34.2555H217.252Z" fill="white"/>
<path d="M46.5833 18.3335H31.4166C30.5547 18.3335 29.728 18.6759 29.1185 19.2854C28.509 19.8949 28.1666 20.7215 28.1666 21.5835V32.4168C28.1666 33.2788 28.509 34.1054 29.1185 34.7149C29.728 35.3244 30.5547 35.6668 31.4166 35.6668H46.5833C47.4452 35.6668 48.2719 35.3244 48.8814 34.7149C49.4909 34.1054 49.8333 33.2788 49.8333 32.4168V21.5835C49.8333 20.7215 49.4909 19.8949 48.8814 19.2854C48.2719 18.6759 47.4452 18.3335 46.5833 18.3335V18.3335ZM31.4166 20.5002H46.5833C46.8706 20.5002 47.1462 20.6143 47.3493 20.8175C47.5525 21.0206 47.6666 21.2962 47.6666 21.5835L39 26.8702L30.3333 21.5835C30.3333 21.2962 30.4474 21.0206 30.6506 20.8175C30.8538 20.6143 31.1293 20.5002 31.4166 20.5002V20.5002ZM47.6666 32.4168C47.6666 32.7041 47.5525 32.9797 47.3493 33.1829C47.1462 33.386 46.8706 33.5002 46.5833 33.5002H31.4166C31.1293 33.5002 30.8538 33.386 30.6506 33.1829C30.4474 32.9797 30.3333 32.7041 30.3333 32.4168V24.0535L38.4366 29.0043C38.6013 29.0994 38.7881 29.1495 38.9783 29.1495C39.1685 29.1495 39.3553 29.0994 39.52 29.0043L47.6666 24.0535V32.4168Z" fill="white"/>
</svg>
