<svg width="343" height="52" viewBox="0 0 343 52" fill="none" xmlns="http://www.w3.org/2000/svg">
<rect width="343" height="52" rx="26" fill="#FFE500"/>
<path d="M124.205 20.2383C124.205 25.0371 122.887 29.1504 117.033 32.0684L115.961 30.5918C118.712 29.2295 120.347 27.6475 121.27 25.7578L116.33 26.2324L116.084 24.5449L121.867 24.1758C122.069 23.4375 122.192 22.6553 122.254 21.8203H116.91V20.2383H124.205ZM128.389 18.6738V24.8965H130.744V26.4961H128.389V34.5293H126.438V18.6738H128.389ZM139.762 20.2383C139.762 25.0371 138.443 29.1504 132.59 32.0684L131.518 30.5918C134.269 29.2295 135.903 27.6475 136.826 25.7578L131.887 26.2324L131.641 24.5449L137.424 24.1758C137.626 23.4375 137.749 22.6553 137.811 21.8203H132.467V20.2383H139.762ZM143.945 18.6738V24.8965H146.301V26.4961H143.945V34.5293H141.994V18.6738H143.945ZM154.281 19.5703C157.691 19.5703 160.205 21.2754 160.205 23.8594C160.205 26.2412 158.157 27.832 155.248 28.1133V31.0312H161.576V32.6309H147.057V31.0312H153.314V28.1133C150.423 27.832 148.375 26.2412 148.393 23.8594C148.375 21.2754 150.889 19.5703 154.281 19.5703ZM154.281 21.1523C151.961 21.1348 150.291 22.1895 150.309 23.8594C150.291 25.582 151.961 26.6016 154.281 26.6016C156.637 26.6016 158.289 25.582 158.289 23.8594C158.289 22.1895 156.637 21.1348 154.281 21.1523ZM177.133 31.1016V32.7188H162.613V31.1016H168.871V28.5176H164.336V23.3145H173.477V21.3457H164.301V19.7637H175.41V24.8613H166.287V26.918H175.779V28.5176H170.805V31.1016H177.133ZM196.961 31.1016V32.7188H182.441V31.1016H188.699V28.5176H184.164V23.3145H193.305V21.3457H184.129V19.7637H195.238V24.8613H186.115V26.918H195.607V28.5176H190.633V31.1016H196.961ZM210.637 20.2207V22.0137C210.637 24.1406 210.637 26.3379 210.057 29.6777L208.07 29.502C208.686 26.373 208.686 24.0703 208.686 22.0137V21.8027H199.527V20.2207H210.637ZM212.482 30.7852V32.3848H197.998V30.7852H212.482ZM226.791 18.6914V30.1699H224.822V18.6914H226.791ZM227.23 32.666V34.248H216.279V29.0098H218.248V32.666H227.23ZM218.125 19.7285C220.533 19.7285 222.396 21.3984 222.396 23.7012C222.396 26.0566 220.533 27.6914 218.125 27.6914C215.699 27.6914 213.836 26.0566 213.836 23.7012C213.836 21.3984 215.699 19.7285 218.125 19.7285ZM218.125 21.4336C216.771 21.4336 215.734 22.3301 215.752 23.7012C215.734 25.1074 216.771 25.9863 218.125 25.9863C219.443 25.9863 220.48 25.1074 220.48 23.7012C220.48 22.3301 219.443 21.4336 218.125 21.4336Z" fill="black"/>
</svg>
