<svg width="40" height="40" viewBox="0 0 40 40" fill="none" xmlns="http://www.w3.org/2000/svg">
<path d="M39.75 20C39.75 30.9076 30.9076 39.75 20 39.75C9.09238 39.75 0.25 30.9076 0.25 20C0.25 9.09238 9.09238 0.25 20 0.25C30.9076 0.25 39.75 9.09238 39.75 20Z" fill="#FFE227" stroke="#AAAAAA" stroke-width="0.5"/>
<path d="M19.9563 7.75343C16.4426 7.76263 13.0767 8.87687 10.5962 10.852C8.11573 12.8272 6.7229 15.5021 6.7229 18.2908C6.72294 20.042 7.27289 21.7656 8.32305 23.3058C9.37321 24.8459 10.8905 26.1541 12.7376 27.112C12.1316 29.0043 11.247 31.9638 11.5678 32.225C11.9088 32.5027 15.5693 30.0491 17.5933 28.6538C18.3872 28.7699 19.1927 28.8284 20 28.8284C21.7436 28.8284 23.4701 28.5559 25.081 28.0263C26.6918 27.4967 28.1555 26.7205 29.3884 25.742C30.6213 24.7635 31.5993 23.6019 32.2665 22.3234C32.9337 21.0449 33.2771 19.6746 33.2771 18.2908C33.2771 15.4961 31.8782 12.8159 29.3883 10.8398C26.8984 8.86363 23.5213 7.75344 20 7.75343C19.9854 7.75341 19.9708 7.75341 19.9563 7.75343Z" fill="#1A1A1A"/>
<path d="M10.006 14.5149C9.54755 14.5149 9.17847 14.884 9.17847 15.3424V15.3457C9.17847 15.8041 9.54755 16.1732 10.006 16.1732H11.2992V21.1498C11.2992 21.6091 11.6691 21.9788 12.1284 21.9788C12.5878 21.9788 12.9575 21.6091 12.9575 21.1498V16.1732H14.2868C14.7453 16.1732 15.1144 15.8041 15.1144 15.3457V15.3424C15.1144 14.884 14.7453 14.5149 14.2868 14.5149H12.1284H10.006Z" fill="#FFE227"/>
<path d="M16.9477 14.5122C16.8614 14.5122 16.7753 14.5237 16.692 14.5464C16.3962 14.5811 16.1299 14.7742 16.0153 15.0726L13.7902 20.8611C13.6254 21.2899 13.8379 21.7677 14.2667 21.9325C14.6954 22.0973 15.1733 21.885 15.3381 21.4562L15.6752 20.5788H18.2563L18.5936 21.4562C18.7584 21.885 19.2363 22.0973 19.665 21.9325C20.0938 21.7677 20.3061 21.2899 20.1413 20.8611L17.9164 15.0726C17.795 14.7566 17.5034 14.5588 17.1869 14.5422C17.1087 14.5223 17.0284 14.5122 16.9477 14.5122ZM16.9659 17.2213L17.619 18.9205H16.3127L16.9659 17.2213Z" fill="#FFE227"/>
<path d="M21.4838 14.5149C21.0158 14.5149 20.6392 14.8917 20.6392 15.3598V21.1339C20.6392 21.602 21.0158 21.9788 21.4838 21.9788H24.0433C24.5114 21.9788 24.8882 21.602 24.8882 21.1339C24.8882 20.6659 24.5114 20.289 24.0433 20.289H22.3287V15.3598C22.3287 14.8917 21.9519 14.5149 21.4838 14.5149Z" fill="#FFE227"/>
<path d="M26.045 14.5149C25.5769 14.5149 25.2001 14.8917 25.2001 15.3598V21.1339C25.2001 21.602 25.5769 21.9788 26.045 21.9788C26.513 21.9788 26.8896 21.602 26.8896 21.1339V19.3603C26.8983 19.3521 26.9075 19.3446 26.9159 19.336L27.2106 19.0343L29.176 21.6459C29.4575 22.0199 29.985 22.0946 30.359 21.8131C30.733 21.5317 30.8074 21.0039 30.526 20.6299L28.405 17.8116L30.1911 15.9834C30.5182 15.6486 30.512 15.1156 30.1774 14.7883C29.8429 14.461 29.3101 14.4671 28.983 14.8019L26.8896 16.9447V15.3598C26.8896 14.8917 26.513 14.5149 26.045 14.5149Z" fill="#FFE227"/>
</svg>
