<svg width="29" height="28" viewBox="0 0 29 28" fill="none" xmlns="http://www.w3.org/2000/svg">
<g clip-path="url(#clip0_3198_3476)">
<path d="M14.6484 0C6.92044 0 0.648438 6.272 0.648438 14C0.648438 21.728 6.92044 28 14.6484 28C22.3764 28 28.6484 21.728 28.6484 14C28.6484 6.272 22.3764 0 14.6484 0ZM14.6484 4.2C16.9724 4.2 18.8484 6.076 18.8484 8.4C18.8484 10.724 16.9724 12.6 14.6484 12.6C12.3244 12.6 10.4484 10.724 10.4484 8.4C10.4484 6.076 12.3244 4.2 14.6484 4.2ZM14.6484 24.08C11.1484 24.08 8.05444 22.288 6.24844 19.572C6.29044 16.786 11.8484 15.26 14.6484 15.26C17.4344 15.26 23.0064 16.786 23.0484 19.572C21.2424 22.288 18.1484 24.08 14.6484 24.08Z" fill="#0EB5F9"/>
</g>
<defs>
<clipPath id="clip0_3198_3476">
<rect width="28" height="28" fill="white" transform="translate(0.648438)"/>
</clipPath>
</defs>
</svg>
