<svg width="27" height="29" viewBox="0 0 27 29" fill="none" xmlns="http://www.w3.org/2000/svg">
<path d="M14.9504 1.03094C14.5452 0.688149 14.0312 0.5 13.5 0.5C12.9687 0.5 12.4548 0.688149 12.0496 1.03094L0.835092 10.525C0.586766 10.7351 0.387248 10.9966 0.250396 11.2913C0.113543 11.5861 0.0426371 11.9071 0.0426025 12.2319V26.2619C0.0426025 26.8555 0.278907 27.4247 0.699531 27.8445C1.12016 28.2642 1.69064 28.5 2.2855 28.5H9.38799C9.68542 28.5 9.97066 28.3821 10.181 28.1722C10.3913 27.9624 10.5094 27.6777 10.5094 27.3809V20.0555C10.5094 18.9509 11.4049 18.0555 12.5094 18.0555H14.4905C15.5951 18.0555 16.4905 18.9509 16.4905 20.0555V27.3809C16.4905 27.9987 16.9929 28.5 17.6119 28.5H24.7144C25.3093 28.5 25.8798 28.2642 26.3004 27.8445C26.721 27.4247 26.9573 26.8555 26.9573 26.2619V12.2319C26.9573 11.9071 26.8864 11.5861 26.7495 11.2913C26.6127 10.9966 26.4132 10.7351 26.1648 10.525L14.9504 1.03094Z" fill="#0EB5F9"/>
</svg>
