<svg width="28" height="29" viewBox="0 0 28 29" fill="none" xmlns="http://www.w3.org/2000/svg">
<path d="M15.4504 1.03094C15.0452 0.688149 14.5313 0.5 14 0.5C13.4688 0.5 12.9548 0.688149 12.5496 1.03094L1.33515 10.525C1.08683 10.7351 0.887309 10.9966 0.750457 11.2913C0.613604 11.5861 0.542698 11.9071 0.542664 12.2319V26.2619C0.542664 26.8555 0.778968 27.4247 1.19959 27.8445C1.62022 28.2642 2.19071 28.5 2.78556 28.5H9.88805C10.1855 28.5 10.4707 28.3821 10.681 28.1722C10.8913 27.9624 11.0095 27.6777 11.0095 27.3809V20.0555C11.0095 18.9509 11.9049 18.0555 13.0095 18.0555H14.9906C16.0951 18.0555 16.9906 18.9509 16.9906 20.0555V27.3809C16.9906 27.9987 17.493 28.5 18.112 28.5H25.2145C25.8094 28.5 26.3798 28.2642 26.8005 27.8445C27.2211 27.4247 27.4574 26.8555 27.4574 26.2619V12.2319C27.4574 11.9071 27.3864 11.5861 27.2496 11.2913C27.1127 10.9966 26.9132 10.7351 26.6649 10.525L15.4504 1.03094Z" fill="#B8CAD2"/>
</svg>
