<svg width="27" height="26" viewBox="0 0 27 26" fill="none" xmlns="http://www.w3.org/2000/svg">
<path d="M13.6483 2.16675C7.68994 2.16675 2.81494 7.04175 2.81494 13.0001C2.81494 18.9584 7.68994 23.8334 13.6483 23.8334C19.6066 23.8334 24.4816 18.9584 24.4816 13.0001C24.4816 7.04175 19.6066 2.16675 13.6483 2.16675ZM18.1983 11.1584L12.9983 16.3584C12.5649 16.7917 11.9149 16.7917 11.4816 16.3584L9.09828 13.9751C8.66494 13.5417 8.66494 12.8917 9.09828 12.4584C9.53161 12.0251 10.1816 12.0251 10.6149 12.4584L12.2399 14.0834L16.6816 9.64175C17.1149 9.20841 17.7649 9.20841 18.1983 9.64175C18.6316 10.0751 18.6316 10.7251 18.1983 11.1584Z" fill="#0EB5F9"/>
</svg>
