<svg width="13" height="13" viewBox="0 0 13 13" fill="none" xmlns="http://www.w3.org/2000/svg">
<path d="M8.05838 6.34296L12.3584 2.05296C12.5467 1.86466 12.6525 1.60926 12.6525 1.34296C12.6525 1.07666 12.5467 0.821263 12.3584 0.632959C12.1701 0.444655 11.9147 0.338867 11.6484 0.338867C11.3821 0.338867 11.1267 0.444655 10.9384 0.632959L6.64838 4.93296L2.35838 0.632959C2.17007 0.444655 1.91468 0.338867 1.64838 0.338867C1.38207 0.338867 1.12668 0.444655 0.938376 0.632959C0.750073 0.821263 0.644285 1.07666 0.644285 1.34296C0.644285 1.60926 0.750073 1.86466 0.938376 2.05296L5.23838 6.34296L0.938376 10.633C0.844648 10.7259 0.770254 10.8365 0.719485 10.9584C0.668717 11.0802 0.642578 11.2109 0.642578 11.343C0.642578 11.475 0.668717 11.6057 0.719485 11.7275C0.770254 11.8494 0.844648 11.96 0.938376 12.053C1.03134 12.1467 1.14194 12.2211 1.2638 12.2719C1.38566 12.3226 1.51636 12.3488 1.64838 12.3488C1.78039 12.3488 1.91109 12.3226 2.03295 12.2719C2.15481 12.2211 2.26541 12.1467 2.35838 12.053L6.64838 7.75296L10.9384 12.053C11.0313 12.1467 11.1419 12.2211 11.2638 12.2719C11.3857 12.3226 11.5164 12.3488 11.6484 12.3488C11.7804 12.3488 11.9111 12.3226 12.033 12.2719C12.1548 12.2211 12.2654 12.1467 12.3584 12.053C12.4521 11.96 12.5265 11.8494 12.5773 11.7275C12.628 11.6057 12.6542 11.475 12.6542 11.343C12.6542 11.2109 12.628 11.0802 12.5773 10.9584C12.5265 10.8365 12.4521 10.7259 12.3584 10.633L8.05838 6.34296Z" fill="#9F9F9F"/>
</svg>
