<svg width="17" height="10" viewBox="0 0 17 10" fill="none" xmlns="http://www.w3.org/2000/svg">
<path d="M15.2565 0.969394C15.3262 0.899712 15.4089 0.844437 15.4999 0.806725C15.591 0.769013 15.6886 0.749602 15.7871 0.749602C15.8857 0.749602 15.9832 0.769013 16.0743 0.806725C16.1653 0.844437 16.248 0.899712 16.3177 0.969394C16.3874 1.03908 16.4427 1.1218 16.4804 1.21285C16.5181 1.30389 16.5375 1.40147 16.5375 1.50002C16.5375 1.59857 16.5181 1.69615 16.4804 1.78719C16.4427 1.87824 16.3874 1.96096 16.3177 2.03064L8.81773 9.53065C8.74808 9.60038 8.66536 9.6557 8.57431 9.69344C8.48326 9.73118 8.38567 9.75061 8.28711 9.75061C8.18855 9.75061 8.09095 9.73118 7.9999 9.69344C7.90885 9.6557 7.82614 9.60038 7.75648 9.53065L0.256481 2.03065C0.115751 1.88992 0.0366894 1.69904 0.0366894 1.50002C0.0366894 1.301 0.115751 1.11013 0.256481 0.969395C0.397212 0.828664 0.588083 0.749603 0.787106 0.749603C0.986129 0.749603 1.177 0.828664 1.31773 0.969395L8.28711 7.93971L15.2565 0.969394Z" fill="#70828A"/>
</svg>
