<svg width="14" height="14" viewBox="0 0 14 14" fill="none" xmlns="http://www.w3.org/2000/svg">
<path d="M9.5465 12.3333L12.9998 12.3333C13.1766 12.3333 13.3462 12.2631 13.4712 12.1381C13.5963 12.013 13.6665 11.8435 13.6665 11.6667C13.6665 11.4898 13.5963 11.3203 13.4712 11.1952C13.3462 11.0702 13.1766 11 12.9998 11L9.5465 11C9.40637 10.6139 9.15075 10.2803 8.81439 10.0445C8.47804 9.8088 8.07725 9.68233 7.6665 9.68233C7.25576 9.68233 6.85497 9.8088 6.51861 10.0445C6.18226 10.2803 5.92664 10.6139 5.7865 11L0.999836 11C0.823025 11 0.653455 11.0702 0.528431 11.1952C0.403407 11.3203 0.333169 11.4898 0.333169 11.6667C0.333169 11.8435 0.403407 12.013 0.528431 12.1381C0.653455 12.2631 0.823025 12.3333 0.999836 12.3333L5.7865 12.3333C5.92664 12.7194 6.18226 13.053 6.51861 13.2888C6.85497 13.5245 7.25576 13.651 7.6665 13.651C8.07725 13.651 8.47804 13.5245 8.81439 13.2888C9.15075 13.053 9.40637 12.7194 9.5465 12.3333ZM6.99984 11.6667C6.99984 11.5348 7.03894 11.4059 7.11219 11.2963C7.18544 11.1866 7.28956 11.1012 7.41138 11.0507C7.5332 11.0003 7.66724 10.9871 7.79656 11.0128C7.92588 11.0385 8.04467 11.102 8.13791 11.1952C8.23114 11.2885 8.29464 11.4073 8.32036 11.5366C8.34608 11.6659 8.33288 11.8 8.28242 11.9218C8.23196 12.0436 8.14652 12.1477 8.03688 12.221C7.92725 12.2942 7.79836 12.3333 7.6665 12.3333C7.48969 12.3333 7.32012 12.2631 7.1951 12.1381C7.07007 12.013 6.99984 11.8435 6.99984 11.6667ZM5.5465 7.66665L12.9998 7.66665C13.1766 7.66665 13.3462 7.59641 13.4712 7.47139C13.5963 7.34636 13.6665 7.17679 13.6665 6.99998C13.6665 6.82317 13.5963 6.6536 13.4712 6.52858C13.3462 6.40355 13.1766 6.33332 12.9998 6.33332L5.5465 6.33332C5.40637 5.94722 5.15075 5.61362 4.81439 5.37788C4.47804 5.14213 4.07725 5.01567 3.6665 5.01567C3.25576 5.01567 2.85497 5.14213 2.51861 5.37788C2.18226 5.61362 1.92664 5.94722 1.7865 6.33332L0.999837 6.33332C0.823025 6.33332 0.653455 6.40355 0.528432 6.52858C0.403407 6.6536 0.33317 6.82317 0.33317 6.99998C0.33317 7.17679 0.403407 7.34636 0.528432 7.47139C0.653455 7.59641 0.823025 7.66665 0.999837 7.66665L1.7865 7.66665C1.92664 8.05275 2.18226 8.38634 2.51861 8.62209C2.85497 8.85783 3.25576 8.9843 3.6665 8.9843C4.07725 8.9843 4.47804 8.85783 4.81439 8.62209C5.15075 8.38634 5.40637 8.05275 5.5465 7.66665ZM2.99984 6.99998C2.99984 6.86813 3.03894 6.73924 3.11219 6.6296C3.18544 6.51997 3.28956 6.43452 3.41138 6.38406C3.5332 6.3336 3.66724 6.3204 3.79656 6.34613C3.92588 6.37185 4.04467 6.43534 4.13791 6.52858C4.23114 6.62181 4.29464 6.7406 4.32036 6.86992C4.34608 6.99924 4.33288 7.13329 4.28242 7.25511C4.23196 7.37692 4.14652 7.48104 4.03688 7.5543C3.92725 7.62755 3.79836 7.66665 3.6665 7.66665C3.48969 7.66665 3.32012 7.59641 3.1951 7.47139C3.07007 7.34636 2.99984 7.17679 2.99984 6.99998ZM10.8798 2.99998L12.9998 2.99998C13.1766 2.99998 13.3462 2.92975 13.4712 2.80472C13.5963 2.6797 13.6665 2.51013 13.6665 2.33332C13.6665 2.15651 13.5963 1.98694 13.4712 1.86191C13.3462 1.73689 13.1766 1.66665 12.9998 1.66665L10.8798 1.66665C10.7397 1.28055 10.4841 0.946957 10.1477 0.711211C9.81137 0.475465 9.41058 0.348999 8.99984 0.348999C8.58909 0.348999 8.1883 0.475465 7.85195 0.711211C7.51559 0.946957 7.25997 1.28055 7.11984 1.66665L0.999837 1.66665C0.823026 1.66665 0.653456 1.73689 0.528432 1.86191C0.403407 1.98694 0.33317 2.15651 0.33317 2.33332C0.33317 2.51013 0.403407 2.6797 0.528432 2.80472C0.653456 2.92974 0.823026 2.99998 0.999837 2.99998L7.11984 2.99998C7.25997 3.38608 7.51559 3.71968 7.85195 3.95542C8.1883 4.19117 8.58909 4.31763 8.99984 4.31763C9.41058 4.31763 9.81137 4.19117 10.1477 3.95542C10.4841 3.71968 10.7397 3.38608 10.8798 2.99998ZM8.33317 2.33332C8.33317 2.20146 8.37227 2.07257 8.44552 1.96294C8.51878 1.8533 8.6229 1.76786 8.74471 1.7174C8.86653 1.66694 9.00058 1.65374 9.1299 1.67946C9.25922 1.70518 9.37801 1.76868 9.47124 1.86191C9.56448 1.95515 9.62797 2.07394 9.65369 2.20326C9.67942 2.33258 9.66622 2.46662 9.61576 2.58844C9.5653 2.71026 9.47985 2.81438 9.37022 2.88763C9.26058 2.96088 9.13169 2.99998 8.99984 2.99998C8.82303 2.99998 8.65346 2.92975 8.52843 2.80472C8.40341 2.6797 8.33317 2.51013 8.33317 2.33332Z" fill="#0EB5F9"/>
</svg>
