<svg width="156" height="147" viewBox="0 0 156 147" fill="none" xmlns="http://www.w3.org/2000/svg">
<path d="M116.812 35.9083C116.16 29.0831 113.76 22.544 109.848 16.9278C105.935 11.3116 100.642 6.80977 94.4842 3.86059C88.3267 0.9114 81.5143 -0.384591 74.7106 0.0988123C67.9068 0.582216 61.3435 2.82854 55.6598 6.61904C50.7768 9.90133 46.6776 14.23 43.6567 19.2942C40.6357 24.3583 38.768 30.0322 38.1876 35.9083C37.6183 41.7458 38.3487 47.6376 40.3259 53.1561C42.3032 58.6746 45.4776 63.6815 49.6189 67.8135L74.2472 92.6182C74.6792 93.0561 75.1931 93.4036 75.7594 93.6407C76.3257 93.8779 76.933 94 77.5465 94C78.1599 94 78.7673 93.8779 79.3335 93.6407C79.8998 93.4036 80.4137 93.0561 80.8457 92.6182L105.381 67.8135C109.522 63.6815 112.697 58.6746 114.674 53.1561C116.651 47.6376 117.382 41.7458 116.812 35.9083ZM98.8755 61.2269L77.5 82.715L56.1245 61.2269C52.9743 58.06 50.5613 54.2308 49.0588 50.0146C47.5563 45.7984 47.0017 41.2999 47.4348 36.8425C47.8708 32.3165 49.3018 27.9444 51.6243 24.0424C53.9468 20.1403 57.1029 16.8058 60.8643 14.28C65.7943 10.9878 71.5813 9.23169 77.5 9.23169C83.4187 9.23169 89.2057 10.9878 94.1357 14.28C97.8857 16.7961 101.035 20.1158 103.357 24.0008C105.679 27.8857 107.116 32.2394 107.565 36.7491C108.012 41.2216 107.465 45.7381 105.962 49.9715C104.459 54.205 102.038 58.0496 98.8755 61.2269Z" fill="url(#paint0_linear_4544_87118)"/>
<path d="M78.7315 51.9229L79.4712 52.4403L80.1239 52.9576C80.9343 53.8388 81.3891 55.0308 81.3891 56.2733C81.3891 57.5158 80.9343 58.7079 80.1239 59.5891C79.7268 60.029 79.2537 60.3805 78.7315 60.6237C78.1921 60.8607 77.6168 60.9883 77.0346 61C76.466 60.9926 75.9043 60.8647 75.3812 60.6237C74.3357 60.1184 73.4992 59.2142 73.0317 58.084C72.8087 57.5186 72.6905 56.9114 72.6836 56.2968C72.6847 55.6664 72.8031 55.0426 73.0317 54.4626C73.2418 53.8894 73.569 53.3749 73.9889 52.9576C74.5959 52.2971 75.3706 51.8462 76.2149 51.662C77.0592 51.4778 77.935 51.5686 78.7315 51.9229Z" fill="url(#paint1_linear_4544_87118)"/>
<path d="M71.0966 20.6231C72.9122 19.5347 74.9586 18.9756 77.0346 19.0008C80.208 19.0008 83.2515 20.3635 85.4954 22.789C87.7394 25.2145 89 28.5043 89 31.9345C89 35.3647 87.7394 38.6545 85.4954 41.08C83.2515 43.5055 80.208 44.8682 77.0346 44.8682C75.8807 44.8682 74.7739 44.3727 73.958 43.4907C73.142 42.6086 72.6836 41.4124 72.6836 40.165C72.6836 38.9177 73.142 37.7214 73.958 36.8394C74.7739 35.9574 75.8807 35.4619 77.0346 35.4619C77.9001 35.4619 78.7301 35.0902 79.3421 34.4287C79.9541 33.7672 80.2979 32.87 80.2979 31.9345C80.2979 30.999 79.9541 30.1018 79.3421 29.4403C78.7301 28.7788 77.9001 28.4071 77.0346 28.4071C76.4852 28.3879 75.9398 28.5152 75.4465 28.7776C74.9533 29.0401 74.5274 29.4297 74.2064 29.9121C73.9344 30.4742 73.5601 30.971 73.1058 31.3726C72.6516 31.7742 72.1269 32.0723 71.5633 32.249C70.9998 32.4258 70.4089 32.4774 69.8264 32.4009C69.2438 32.3245 68.6816 32.1214 68.1736 31.804C67.6655 31.4865 67.2221 31.0613 66.8701 30.5538C66.518 30.0463 66.2645 29.4671 66.1249 28.851C65.9853 28.2349 65.9624 27.5947 66.0577 26.9688C66.1529 26.3429 66.3643 25.7443 66.6791 25.209C67.7586 23.292 69.281 21.7116 71.0966 20.6231Z" fill="url(#paint2_linear_4544_87118)"/>
<ellipse cx="78" cy="132" rx="78" ry="15" fill="url(#paint3_radial_4544_87118)"/>
<defs>
<linearGradient id="paint0_linear_4544_87118" x1="63.3929" y1="-20.6515" x2="-13.8803" y2="28.4981" gradientUnits="userSpaceOnUse">
<stop stop-color="#14B4F9"/>
<stop offset="1" stop-color="#D778CE"/>
</linearGradient>
<linearGradient id="paint1_linear_4544_87118" x1="73.3929" y1="9.77273" x2="46.4261" y2="20.949" gradientUnits="userSpaceOnUse">
<stop stop-color="#14B4F9"/>
<stop offset="1" stop-color="#D778CE"/>
</linearGradient>
<linearGradient id="paint2_linear_4544_87118" x1="73.3929" y1="9.77273" x2="46.4261" y2="20.949" gradientUnits="userSpaceOnUse">
<stop stop-color="#14B4F9"/>
<stop offset="1" stop-color="#D778CE"/>
</linearGradient>
<radialGradient id="paint3_radial_4544_87118" cx="0" cy="0" r="1" gradientUnits="userSpaceOnUse" gradientTransform="translate(78 132) rotate(90) scale(15 78)">
<stop stop-color="#D9D9D9"/>
<stop offset="1" stop-color="#D9D9D9" stop-opacity="0"/>
</radialGradient>
</defs>
</svg>
