<svg width="21" height="21" viewBox="0 0 21 21" fill="none" xmlns="http://www.w3.org/2000/svg">
<path d="M10.7036 9.05811C10.4384 9.05811 10.184 9.16346 9.99651 9.351C9.80898 9.53854 9.70362 9.79289 9.70362 10.0581V14.0581C9.70362 14.3233 9.80898 14.5777 9.99651 14.7652C10.184 14.9527 10.4384 15.0581 10.7036 15.0581C10.9688 15.0581 11.2232 14.9527 11.4107 14.7652C11.5983 14.5777 11.7036 14.3233 11.7036 14.0581V10.0581C11.7036 9.79289 11.5983 9.53854 11.4107 9.351C11.2232 9.16346 10.9688 9.05811 10.7036 9.05811ZM11.0836 5.13811C10.8402 5.03809 10.5671 5.03809 10.3236 5.13811C10.2009 5.1857 10.0887 5.25706 9.99362 5.34811C9.90529 5.44531 9.83426 5.55692 9.78362 5.67811C9.72764 5.79678 9.70024 5.92693 9.70362 6.05811C9.70286 6.18971 9.72808 6.32017 9.77785 6.44201C9.82761 6.56385 9.90094 6.67467 9.99362 6.76811C10.0908 6.85644 10.2024 6.92746 10.3236 6.97811C10.4751 7.04035 10.6396 7.06442 10.8026 7.04822C10.9655 7.03201 11.1221 6.97603 11.2583 6.88517C11.3946 6.79432 11.5065 6.67139 11.5841 6.52718C11.6618 6.38296 11.7028 6.22189 11.7036 6.05811C11.6999 5.79334 11.5964 5.53974 11.4136 5.34811C11.3185 5.25706 11.2064 5.1857 11.0836 5.13811ZM10.7036 0.0581055C8.72581 0.0581055 6.79241 0.644595 5.14792 1.74341C3.50342 2.84222 2.2217 4.40401 1.46482 6.23127C0.707946 8.05853 0.509913 10.0692 0.895765 12.009C1.28162 13.9488 2.23402 15.7306 3.63255 17.1292C5.03108 18.5277 6.81291 19.4801 8.75272 19.866C10.6925 20.2518 12.7032 20.0538 14.5305 19.2969C16.3577 18.54 17.9195 17.2583 19.0183 15.6138C20.1171 13.9693 20.7036 12.0359 20.7036 10.0581C20.7036 8.74489 20.445 7.44453 19.9424 6.23127C19.4399 5.01801 18.7033 3.91562 17.7747 2.98704C16.8461 2.05845 15.7437 1.32186 14.5305 0.81931C13.3172 0.316763 12.0168 0.0581055 10.7036 0.0581055ZM10.7036 18.0581C9.12137 18.0581 7.57465 17.5889 6.25906 16.7099C4.94346 15.8308 3.91808 14.5814 3.31258 13.1196C2.70708 11.6578 2.54865 10.0492 2.85734 8.49738C3.16602 6.94554 3.92794 5.52007 5.04676 4.40125C6.16558 3.28243 7.59105 2.52051 9.1429 2.21182C10.6947 1.90314 12.3033 2.06157 13.7651 2.66707C15.2269 3.27257 16.4763 4.29795 17.3554 5.61354C18.2344 6.92914 18.7036 8.47585 18.7036 10.0581C18.7036 12.1798 17.8608 14.2147 16.3605 15.715C14.8602 17.2153 12.8253 18.0581 10.7036 18.0581Z" fill="#B8CAD2"/>
</svg>
