<svg width="25" height="24" viewBox="0 0 25 24" fill="none" xmlns="http://www.w3.org/2000/svg">
<path d="M10.4998 17.5501L8.72984 19.2701C8.26571 19.7342 7.63621 19.995 6.97984 19.995C6.32346 19.995 5.69397 19.7342 5.22984 19.2701C4.76571 18.806 4.50496 18.1765 4.50496 17.5201C4.50496 16.8637 4.76571 16.2342 5.22984 15.7701L9.76984 11.2201C10.2154 10.773 10.8159 10.5144 11.4469 10.4976C12.0778 10.4809 12.6911 10.7073 13.1598 11.1301L13.2798 11.2301C13.4695 11.4157 13.7251 11.5185 13.9904 11.5157C14.2558 11.5128 14.5092 11.4047 14.6948 11.2151C14.8805 11.0255 14.9832 10.7699 14.9804 10.5045C14.9776 10.2391 14.8695 9.98575 14.6798 9.80009C14.6234 9.72712 14.5633 9.65703 14.4998 9.59009C13.6462 8.84741 12.5422 8.45694 11.4114 8.49779C10.2806 8.53864 9.20767 9.00775 8.40984 9.81009L3.80984 14.3601C3.02819 15.2109 2.60546 16.3308 2.62991 17.4858C2.65436 18.6409 3.12412 19.7419 3.94107 20.5589C4.75802 21.3758 5.859 21.8456 7.01408 21.87C8.16917 21.8945 9.28904 21.4717 10.1398 20.6901L11.8698 19.0001C12.0407 18.8137 12.1346 18.5696 12.1326 18.3168C12.1307 18.064 12.0332 17.8214 11.8595 17.6376C11.6859 17.4539 11.4492 17.3427 11.1969 17.3264C10.9446 17.3102 10.6956 17.3901 10.4998 17.5501ZM21.1898 3.31009C20.3486 2.4741 19.2108 2.00488 18.0248 2.00488C16.8389 2.00488 15.7011 2.4741 14.8598 3.31009L13.1298 5.00009C12.959 5.18644 12.8651 5.43057 12.867 5.68336C12.8689 5.93615 12.9665 6.17883 13.1401 6.36258C13.3137 6.54633 13.5505 6.65751 13.8028 6.67375C14.055 6.68998 14.3041 6.61007 14.4998 6.45009L16.2298 4.73009C16.694 4.26597 17.3235 4.00522 17.9798 4.00522C18.6362 4.00522 19.2657 4.26597 19.7298 4.73009C20.194 5.19422 20.4547 5.82372 20.4547 6.48009C20.4547 7.13647 20.194 7.76596 19.7298 8.23009L15.1898 12.7801C14.7442 13.2272 14.1438 13.4858 13.5128 13.5026C12.8818 13.5193 12.2685 13.2929 11.7998 12.8701L11.6798 12.7701C11.4902 12.5844 11.2346 12.4817 10.9692 12.4845C10.7039 12.4874 10.4505 12.5955 10.2648 12.7851C10.0792 12.9747 9.97647 13.2303 9.97928 13.4957C9.98209 13.7611 10.0902 14.0144 10.2798 14.2001C10.3525 14.2744 10.4293 14.3445 10.5098 14.4101C11.3645 15.1505 12.4681 15.5395 13.5981 15.4987C14.7282 15.4579 15.8008 14.9903 16.5998 14.1901L21.1498 9.64009C21.9912 8.80417 22.4676 7.66932 22.4751 6.48334C22.4826 5.29736 22.0205 4.15659 21.1898 3.31009Z" fill="black"/>
</svg>
