<svg width="36" height="40" viewBox="0 0 36 40" fill="none" xmlns="http://www.w3.org/2000/svg">
<path d="M16 19.7999V29.9999C16 30.5303 16.2107 31.0391 16.5858 31.4141C16.9609 31.7892 17.4696 31.9999 18 31.9999C18.5304 31.9999 19.0391 31.7892 19.4142 31.4141C19.7893 31.0391 20 30.5303 20 29.9999V19.7999C22.4281 19.3043 24.5856 17.9247 26.0544 15.9287C27.5231 13.9327 28.1984 11.4625 27.9494 8.99686C27.7003 6.53126 26.5446 4.24597 24.7063 2.58404C22.868 0.922113 20.4782 0.00195312 18 0.00195312C15.5218 0.00195312 13.132 0.922113 11.2937 2.58404C9.45542 4.24597 8.29971 6.53126 8.05064 8.99686C7.80156 11.4625 8.47686 13.9327 9.94561 15.9287C11.4144 17.9247 13.5719 19.3043 16 19.7999ZM18 3.99991C19.1867 3.99991 20.3467 4.35181 21.3334 5.0111C22.3201 5.67038 23.0892 6.60746 23.5433 7.70381C23.9974 8.80017 24.1162 10.0066 23.8847 11.1705C23.6532 12.3343 23.0818 13.4034 22.2426 14.2426C21.4035 15.0817 20.3344 15.6531 19.1705 15.8846C18.0067 16.1161 16.8003 15.9973 15.7039 15.5432C14.6075 15.0891 13.6705 14.32 13.0112 13.3333C12.3519 12.3466 12 11.1866 12 9.99991C12 8.40861 12.6321 6.88249 13.7574 5.75727C14.8826 4.63205 16.4087 3.99991 18 3.99991V3.99991ZM26.42 24.8399C26.1574 24.7848 25.8864 24.7819 25.6227 24.8314C25.3589 24.881 25.1075 24.982 24.8828 25.1287C24.6581 25.2754 24.4644 25.465 24.313 25.6865C24.1615 25.9081 24.0552 26.1573 24 26.4199C23.9448 26.6826 23.942 26.9535 23.9915 27.2172C24.0411 27.481 24.1421 27.7324 24.2888 27.9571C24.4355 28.1819 24.6251 28.3755 24.8466 28.5269C25.0681 28.6784 25.3174 28.7848 25.58 28.8399C30.12 29.7399 32 31.3599 32 31.9999C32 33.1599 27.1 35.9999 18 35.9999C8.9 35.9999 4 33.1599 4 31.9999C4 31.3599 5.88 29.7399 10.42 28.7599C10.6826 28.7048 10.9319 28.5984 11.1534 28.4469C11.3749 28.2955 11.5645 28.1019 11.7112 27.8771C11.8579 27.6524 11.9589 27.401 12.0085 27.1372C12.058 26.8735 12.0552 26.6026 12 26.3399C11.9448 26.0773 11.8385 25.8281 11.687 25.6065C11.5356 25.385 11.3419 25.1954 11.1172 25.0487C10.8925 24.902 10.6411 24.801 10.3773 24.7514C10.1136 24.7019 9.84264 24.7048 9.58 24.7599C3.5 26.1599 0 28.7799 0 31.9999C0 37.2599 9.06 39.9999 18 39.9999C26.94 39.9999 36 37.2599 36 31.9999C36 28.7799 32.5 26.1599 26.42 24.8399Z" fill="url(#paint0_linear_7638_17815)"/>
<defs>
<linearGradient id="paint0_linear_7638_17815" x1="31.0997" y1="4.4315" x2="-1.022" y2="5.31448" gradientUnits="userSpaceOnUse">
<stop stop-color="#14B4F9"/>
<stop offset="1" stop-color="#D778CE"/>
</linearGradient>
</defs>
</svg>
