<svg width="21" height="19" viewBox="0 0 21 19" fill="none" xmlns="http://www.w3.org/2000/svg">
<path d="M19.82 2.04981L13.82 0.0498106H13.75C13.7035 0.0451322 13.6566 0.0451322 13.61 0.0498106H13.38H13.25H13.18L7.5 1.99981L1.82 0.0498106C1.66962 0.000222135 1.50961 -0.0129441 1.35314 0.0113954C1.19667 0.0357349 1.04822 0.0968843 0.920003 0.189811C0.790762 0.281827 0.685268 0.403274 0.612238 0.544118C0.539208 0.684962 0.500737 0.84116 0.500003 0.999811V14.9998C0.499462 15.2095 0.564822 15.414 0.686845 15.5844C0.808868 15.7549 0.981382 15.8827 1.18 15.9498L7.18 17.9498C7.38145 18.0155 7.59856 18.0155 7.8 17.9498L13.5 16.0498L19.18 17.9998C19.2862 18.0142 19.3938 18.0142 19.5 17.9998C19.7091 18.0028 19.9132 17.9359 20.08 17.8098C20.2092 17.7178 20.3147 17.5963 20.3878 17.4555C20.4608 17.3147 20.4993 17.1585 20.5 16.9998V2.99981C20.5005 2.79017 20.4352 2.58565 20.3132 2.41518C20.1911 2.24471 20.0186 2.1169 19.82 2.04981ZM6.5 15.6098L2.5 14.2798V2.38981L6.5 3.71981V15.6098ZM12.5 14.2798L8.5 15.6098V3.71981L12.5 2.38981V14.2798ZM18.5 15.6098L14.5 14.2798V2.38981L18.5 3.71981V15.6098Z" fill="black"/>
</svg>
