<svg width="16" height="16" viewBox="0 0 16 16" fill="none" xmlns="http://www.w3.org/2000/svg">
<path d="M13.9999 7.33301C13.5999 7.33301 13.3333 7.59967 13.3333 7.99967C13.3333 9.93301 12.3333 11.6663 10.6666 12.5997C8.13325 14.0663 4.86659 13.1997 3.39992 10.6663C1.93325 8.13301 2.79992 4.86634 5.33325 3.39967C7.53325 2.13301 10.1999 2.59967 11.8666 4.33301H10.2666C9.86659 4.33301 9.59992 4.59967 9.59992 4.99967C9.59992 5.39967 9.86659 5.66634 10.2666 5.66634H13.2666C13.6666 5.66634 13.9333 5.39967 13.9333 4.99967V1.99967C13.9333 1.59967 13.6666 1.33301 13.2666 1.33301C12.8666 1.33301 12.5999 1.59967 12.5999 1.99967V3.19967C11.3333 1.99967 9.73325 1.33301 7.99992 1.33301C4.33325 1.33301 1.33325 4.33301 1.33325 7.99967C1.33325 11.6663 4.33325 14.6663 7.99992 14.6663C11.6666 14.6663 14.6666 11.6663 14.6666 7.99967C14.6666 7.59967 14.3999 7.33301 13.9999 7.33301Z" fill="#0EB5F9"/>
</svg>
