<svg width="25" height="24" viewBox="0 0 25 24" fill="none" xmlns="http://www.w3.org/2000/svg">
<path d="M21.6255 16.7041L19.2055 14.2841C19.1126 14.1904 19.002 14.116 18.8801 14.0652C18.7582 14.0145 18.6275 13.9883 18.4955 13.9883C18.3635 13.9883 18.2328 14.0145 18.111 14.0652C17.9891 14.116 17.8785 14.1904 17.7855 14.2841L14.2055 17.8641C14.1128 17.9576 14.0395 18.0684 13.9898 18.1902C13.94 18.3121 13.9148 18.4425 13.9155 18.5741V20.9941C13.9155 21.2594 14.0209 21.5137 14.2084 21.7012C14.396 21.8888 14.6503 21.9941 14.9155 21.9941H17.3355C17.4671 21.9949 17.5976 21.9697 17.7194 21.9199C17.8413 21.8701 17.9521 21.7968 18.0455 21.7041L21.6255 18.1241C21.7193 18.0312 21.7937 17.9206 21.8444 17.7987C21.8952 17.6769 21.9213 17.5462 21.9213 17.4141C21.9213 17.2821 21.8952 17.1514 21.8444 17.0296C21.7937 16.9077 21.7193 16.7971 21.6255 16.7041ZM16.9155 19.9941H15.9155V18.9941L18.4955 16.4141L19.4955 17.4141L16.9155 19.9941ZM10.9155 19.9941H6.91553C6.65031 19.9941 6.39596 19.8888 6.20842 19.7012C6.02088 19.5137 5.91553 19.2594 5.91553 18.9941V4.99414C5.91553 4.72892 6.02088 4.47457 6.20842 4.28703C6.39596 4.0995 6.65031 3.99414 6.91553 3.99414H11.9155V6.99414C11.9155 7.78979 12.2316 8.55285 12.7942 9.11546C13.3568 9.67807 14.1199 9.99414 14.9155 9.99414H17.9155V10.9941C17.9155 11.2594 18.0209 11.5137 18.2084 11.7012C18.396 11.8888 18.6503 11.9941 18.9155 11.9941C19.1807 11.9941 19.4351 11.8888 19.6226 11.7012C19.8102 11.5137 19.9155 11.2594 19.9155 10.9941V8.99414C19.9155 8.99414 19.9155 8.99414 19.9155 8.93414C19.9051 8.84228 19.885 8.75177 19.8555 8.66414V8.57414C19.8074 8.47132 19.7433 8.37681 19.6655 8.29414L13.6655 2.29414C13.5829 2.21636 13.4883 2.15222 13.3855 2.10414C13.3557 2.0999 13.3254 2.0999 13.2955 2.10414L12.9755 1.99414H6.91553C6.11988 1.99414 5.35682 2.31021 4.79421 2.87282C4.2316 3.43543 3.91553 4.19849 3.91553 4.99414V18.9941C3.91553 19.7898 4.2316 20.5529 4.79421 21.1155C5.35682 21.6781 6.11988 21.9941 6.91553 21.9941H10.9155C11.1807 21.9941 11.4351 21.8888 11.6226 21.7012C11.8102 21.5137 11.9155 21.2594 11.9155 20.9941C11.9155 20.7289 11.8102 20.4746 11.6226 20.287C11.4351 20.0995 11.1807 19.9941 10.9155 19.9941ZM13.9155 5.40414L16.5055 7.99414H14.9155C14.6503 7.99414 14.396 7.88878 14.2084 7.70125C14.0209 7.51371 13.9155 7.25936 13.9155 6.99414V5.40414ZM8.91553 13.9941H14.9155C15.1807 13.9941 15.4351 13.8888 15.6226 13.7012C15.8102 13.5137 15.9155 13.2594 15.9155 12.9941C15.9155 12.7289 15.8102 12.4746 15.6226 12.287C15.4351 12.0995 15.1807 11.9941 14.9155 11.9941H8.91553C8.65031 11.9941 8.39596 12.0995 8.20842 12.287C8.02088 12.4746 7.91553 12.7289 7.91553 12.9941C7.91553 13.2594 8.02088 13.5137 8.20842 13.7012C8.39596 13.8888 8.65031 13.9941 8.91553 13.9941ZM8.91553 9.99414H9.91553C10.1807 9.99414 10.4351 9.88878 10.6226 9.70125C10.8102 9.51371 10.9155 9.25936 10.9155 8.99414C10.9155 8.72892 10.8102 8.47457 10.6226 8.28703C10.4351 8.0995 10.1807 7.99414 9.91553 7.99414H8.91553C8.65031 7.99414 8.39596 8.0995 8.20842 8.28703C8.02088 8.47457 7.91553 8.72892 7.91553 8.99414C7.91553 9.25936 8.02088 9.51371 8.20842 9.70125C8.39596 9.88878 8.65031 9.99414 8.91553 9.99414ZM10.9155 15.9941H8.91553C8.65031 15.9941 8.39596 16.0995 8.20842 16.287C8.02088 16.4746 7.91553 16.7289 7.91553 16.9941C7.91553 17.2594 8.02088 17.5137 8.20842 17.7012C8.39596 17.8888 8.65031 17.9941 8.91553 17.9941H10.9155C11.1807 17.9941 11.4351 17.8888 11.6226 17.7012C11.8102 17.5137 11.9155 17.2594 11.9155 16.9941C11.9155 16.7289 11.8102 16.4746 11.6226 16.287C11.4351 16.0995 11.1807 15.9941 10.9155 15.9941Z" fill="#0EB5F9"/>
</svg>
