<svg width="25" height="25" viewBox="0 0 25 25" fill="none" xmlns="http://www.w3.org/2000/svg">
<path d="M18.1267 22.0044H15.7854C15.7577 22.0044 15.7354 21.982 15.7354 21.9544V19.5893C15.7354 19.5761 15.7406 19.5633 15.75 19.554L19.2906 16.016C19.3102 15.9964 19.342 15.9965 19.3615 16.0161L21.7062 18.3823C21.7256 18.4018 21.7255 18.4334 21.706 18.4528L18.162 21.9898C18.1526 21.9992 18.1399 22.0044 18.1267 22.0044Z" stroke="#70828A" stroke-width="2"/>
<path d="M9.87988 12.1751L11.6829 13.978C11.7025 13.9975 11.7341 13.9975 11.7537 13.978L15.735 9.99707" stroke="#70828A" stroke-width="1.7" stroke-linecap="round" stroke-linejoin="round"/>
<path d="M21.6852 13.5018C22.5667 7.36183 17.8359 2.99512 12.8076 2.99512C7.77931 2.99512 3.79785 7.04597 3.79785 12.1358C3.79785 16.2912 7.09111 20.4429 11.7541 20.9338" stroke="#70828A" stroke-width="2" stroke-linecap="round" stroke-linejoin="round"/>
</svg>
