<svg width="7" height="12" viewBox="0 0 7 12" fill="none" xmlns="http://www.w3.org/2000/svg">
<path d="M0.719953 10.6463C0.673498 10.6927 0.636648 10.7479 0.611507 10.8086C0.586366 10.8693 0.573425 10.9343 0.573425 11C0.573425 11.0657 0.586366 11.1308 0.611507 11.1915C0.636648 11.2522 0.673498 11.3073 0.719953 11.3538C0.766408 11.4002 0.821559 11.4371 0.882255 11.4622C0.942952 11.4874 1.00801 11.5003 1.0737 11.5003C1.1394 11.5003 1.20445 11.4874 1.26515 11.4622C1.32585 11.4371 1.381 11.4002 1.42745 11.3538L6.42745 6.35378C6.47394 6.30735 6.51082 6.2522 6.53598 6.1915C6.56115 6.1308 6.5741 6.06574 6.5741 6.00003C6.5741 5.93433 6.56115 5.86926 6.53598 5.80856C6.51082 5.74786 6.47394 5.69272 6.42745 5.64628L1.42745 0.646284C1.33363 0.552464 1.20639 0.499756 1.0737 0.499756C0.941021 0.499756 0.813773 0.552464 0.719953 0.646284C0.626133 0.740104 0.573425 0.867352 0.573425 1.00003C0.573425 1.13272 0.626133 1.25996 0.719953 1.35378L5.36683 6.00003L0.719953 10.6463Z" fill="#70828A"/>
</svg>
