<svg width="20" height="21" viewBox="0 0 20 21" fill="none" xmlns="http://www.w3.org/2000/svg">
<path d="M15.9997 13.0001C15.4088 13.004 14.8262 13.1388 14.2937 13.3947C13.7611 13.6506 13.2919 14.0213 12.9197 14.4801L7.81966 12.1301C8.05945 11.3959 8.05945 10.6044 7.81966 9.87011L12.9197 7.52011C13.5213 8.24608 14.36 8.73619 15.2878 8.90395C16.2156 9.07172 17.1729 8.90634 17.9906 8.43702C18.8084 7.96769 19.434 7.22459 19.7572 6.33886C20.0804 5.45312 20.0803 4.4817 19.757 3.59602C19.4336 2.71035 18.8078 1.96736 17.99 1.49818C17.1722 1.02901 16.2149 0.863808 15.2871 1.03174C14.3593 1.19967 13.5207 1.68993 12.9192 2.41601C12.3177 3.14208 11.992 4.05729 11.9997 5.00011C12.0027 5.23835 12.0261 5.47588 12.0697 5.71011L6.78966 8.14011C6.22674 7.58969 5.51391 7.21763 4.74047 7.07054C3.96703 6.92345 3.16738 7.00788 2.44171 7.31325C1.71604 7.61861 1.09662 8.13133 0.661062 8.78718C0.2255 9.44302 -0.00683594 10.2128 -0.00683594 11.0001C-0.00683594 11.7874 0.2255 12.5572 0.661062 13.2131C1.09662 13.8689 1.71604 14.3816 2.44171 14.687C3.16738 14.9923 3.96703 15.0768 4.74047 14.9297C5.51391 14.7826 6.22674 14.4105 6.78966 13.8601L12.0697 16.2901C12.0261 16.5243 12.0027 16.7619 11.9997 17.0001C11.9997 17.7912 12.2343 18.5646 12.6738 19.2224C13.1133 19.8802 13.738 20.3929 14.4689 20.6956C15.1998 20.9984 16.0041 21.0776 16.78 20.9233C17.5559 20.7689 18.2687 20.388 18.8281 19.8285C19.3875 19.2691 19.7685 18.5564 19.9228 17.7805C20.0771 17.0046 19.9979 16.2003 19.6952 15.4694C19.3924 14.7385 18.8797 14.1138 18.2219 13.6742C17.5641 13.2347 16.7908 13.0001 15.9997 13.0001ZM15.9997 3.00011C16.3952 3.00011 16.7819 3.11741 17.1108 3.33718C17.4397 3.55694 17.696 3.8693 17.8474 4.23475C17.9988 4.6002 18.0384 5.00233 17.9612 5.3903C17.8841 5.77826 17.6936 6.13462 17.4139 6.41433C17.1342 6.69403 16.7778 6.88451 16.3898 6.96169C16.0019 7.03886 15.5997 6.99925 15.2343 6.84787C14.8688 6.6965 14.5565 6.44015 14.3367 6.11125C14.117 5.78236 13.9997 5.39568 13.9997 5.00011C13.9997 4.46968 14.2104 3.96097 14.5854 3.5859C14.9605 3.21083 15.4692 3.00011 15.9997 3.00011ZM3.99966 13.0001C3.6041 13.0001 3.21742 12.8828 2.88852 12.6631C2.55962 12.4433 2.30328 12.1309 2.1519 11.7655C2.00053 11.4 1.96092 10.9979 2.03809 10.6099C2.11526 10.222 2.30574 9.86561 2.58545 9.5859C2.86515 9.3062 3.22152 9.11571 3.60948 9.03854C3.99744 8.96137 4.39958 9.00098 4.76503 9.15236C5.13048 9.30373 5.44284 9.56008 5.6626 9.88897C5.88236 10.2179 5.99966 10.6046 5.99966 11.0001C5.99966 11.5305 5.78895 12.0393 5.41388 12.4143C5.0388 12.7894 4.5301 13.0001 3.99966 13.0001ZM15.9997 19.0001C15.6041 19.0001 15.2174 18.8828 14.8885 18.6631C14.5596 18.4433 14.3033 18.1309 14.1519 17.7655C14.0005 17.4 13.9609 16.9979 14.0381 16.6099C14.1153 16.222 14.3057 15.8656 14.5854 15.5859C14.8652 15.3062 15.2215 15.1157 15.6095 15.0385C15.9974 14.9614 16.3996 15.001 16.765 15.1524C17.1305 15.3037 17.4428 15.5601 17.6626 15.889C17.8824 16.2179 17.9997 16.6046 17.9997 17.0001C17.9997 17.5305 17.7889 18.0393 17.4139 18.4143C17.0388 18.7894 16.5301 19.0001 15.9997 19.0001Z" fill="black"/>
</svg>
