<svg width="122" height="122" viewBox="0 0 122 122" fill="none" xmlns="http://www.w3.org/2000/svg">
<path d="M53.1321 25.0815C52.2367 24.1884 51.1307 23.5352 49.9163 23.1823C48.7019 22.8293 47.4181 22.7879 46.1835 23.0619C44.9489 23.3359 43.8031 23.9165 42.852 24.75C41.9009 25.5835 41.1751 26.6432 40.7415 27.8313L15.7267 96.6373C15.3158 97.772 15.1831 98.9887 15.3397 100.185C15.4963 101.382 15.9376 102.523 16.6267 103.514C17.3158 104.505 18.2325 105.316 19.2999 105.879C20.3672 106.442 21.5541 106.741 22.7608 106.75C23.6493 106.744 24.5299 106.583 25.3628 106.273L94.1642 81.2539C95.3525 80.8209 96.4127 80.0954 97.2468 79.1445C98.0808 78.1937 98.6619 77.048 98.9364 75.8133C99.2109 74.5786 99.1699 73.2947 98.8173 72.08C98.4646 70.8653 97.8117 69.759 96.9187 68.8633L53.1321 25.0815ZM49.1624 89.5175L32.4827 72.8378L38.7542 55.5815L66.4187 83.2459L49.1624 89.5175ZM22.9514 99.0488L29.6233 80.744L41.2753 92.3959L22.9514 99.0488ZM74.3439 80.3675L41.6327 47.6562L47.828 30.562L91.4001 74.1341L74.3439 80.3675ZM76.2502 34.3125C76.3218 31.7351 76.9458 29.2031 78.0802 26.8877C80.6059 21.8409 85.3716 19.0625 91.5002 19.0625C94.6931 19.0625 96.7424 17.9712 98.0052 15.6265C98.6702 14.3147 99.0518 12.8778 99.1252 11.4089C99.129 10.3978 99.5343 9.42955 100.252 8.71725C100.97 8.00495 101.941 7.60691 102.952 7.6107C103.963 7.6145 104.931 8.0198 105.644 8.73747C106.356 9.45513 106.754 10.4264 106.75 11.4375C106.75 17.5661 102.69 26.6875 91.5002 26.6875C88.3072 26.6875 86.258 27.7788 84.9951 30.1235C84.3301 31.4353 83.9485 32.8722 83.8752 34.3411C83.8733 34.8418 83.7728 35.3372 83.5795 35.799C83.3862 36.2608 83.1038 36.6801 82.7484 37.0328C82.3931 37.3854 81.9717 37.6647 81.5084 37.8546C81.0452 38.0444 80.549 38.1412 80.0484 38.1393C79.5477 38.1374 79.0523 38.0369 78.5905 37.8436C78.1286 37.6503 77.7094 37.3679 77.3567 37.0125C77.004 36.6572 76.7248 36.2358 76.5349 35.7726C76.3451 35.3093 76.2483 34.8132 76.2502 34.3125ZM64.8127 19.0625V7.625C64.8127 6.61386 65.2143 5.64414 65.9293 4.92916C66.6443 4.21417 67.614 3.8125 68.6252 3.8125C69.6363 3.8125 70.606 4.21417 71.321 4.92916C72.036 5.64414 72.4377 6.61386 72.4377 7.625V19.0625C72.4377 20.0736 72.036 21.0434 71.321 21.7583C70.606 22.4733 69.6363 22.875 68.6252 22.875C67.614 22.875 66.6443 22.4733 65.9293 21.7583C65.2143 21.0434 64.8127 20.0736 64.8127 19.0625ZM113.26 58.3027C113.614 58.6569 113.895 59.0773 114.086 59.54C114.277 60.0027 114.376 60.4986 114.376 60.9993C114.375 61.5 114.277 61.9958 114.085 62.4583C113.893 62.9208 113.612 63.3411 113.258 63.695C112.903 64.0489 112.483 64.3295 112.02 64.521C111.558 64.7124 111.062 64.8108 110.561 64.8106C110.06 64.8103 109.564 64.7115 109.102 64.5197C108.639 64.3278 108.219 64.0468 107.865 63.6926L100.24 56.0676C99.5249 55.3522 99.123 54.3819 99.123 53.3702C99.123 52.3585 99.5249 51.3883 100.24 50.6729C100.956 49.9575 101.926 49.5556 102.938 49.5556C103.949 49.5556 104.92 49.9575 105.635 50.6729L113.26 58.3027ZM115.581 37.9296L104.143 41.7421C103.184 42.0619 102.137 41.9875 101.233 41.5352C100.328 41.083 99.6403 40.29 99.3206 39.3307C99.0008 38.3714 99.0752 37.3243 99.5274 36.4199C99.9797 35.5154 100.773 34.8277 101.732 34.5079L113.169 30.6954C114.129 30.3756 115.176 30.45 116.08 30.9023C116.985 31.3545 117.673 32.1475 117.992 33.1068C118.312 34.0661 118.238 35.1132 117.785 36.0176C117.333 36.9221 116.54 37.6098 115.581 37.9296Z" fill="url(#paint0_linear_968_15648)"/>
<defs>
<linearGradient id="paint0_linear_968_15648" x1="48.3548" y1="-18.8026" x2="-41.5576" y2="49.2281" gradientUnits="userSpaceOnUse">
<stop stop-color="#14B4F9"/>
<stop offset="1" stop-color="#D778CE"/>
</linearGradient>
</defs>
</svg>
