<svg width="119" height="118" viewBox="0 0 119 118" fill="none" xmlns="http://www.w3.org/2000/svg">
<path d="M2.03125 105V82.375H11.6562C16.7188 82.375 20.0312 85.5625 20.0312 90.3125C20.0312 95.1562 16.625 98.1875 11.4688 98.1875H7.96875V105H2.03125ZM7.96875 93.5625H10.2812C12.5312 93.5625 13.8125 92.3125 13.8125 90.3125C13.8125 88.3438 12.5312 87.125 10.2812 87.125H7.96875V93.5625ZM44.125 93.6875C44.125 101.219 39.3125 105.312 33.1875 105.312C27 105.312 22.2188 101.188 22.2188 93.6875C22.2188 86.1562 27 82.0625 33.1875 82.0625C39.3125 82.0625 44.125 86.1562 44.125 93.6875ZM38 93.6875C38 89.5312 36.2812 87.25 33.1875 87.25C30.0625 87.25 28.3438 89.5312 28.3438 93.6875C28.3438 97.8438 30.0625 100.125 33.1875 100.125C36.2812 100.125 38 97.8438 38 93.6875ZM47.0312 105V82.375H56.6562C61.7188 82.375 65.0312 85.5625 65.0312 90.3125C65.0312 95.1562 61.625 98.1875 56.4688 98.1875H52.9688V105H47.0312ZM52.9688 93.5625H55.2812C57.5312 93.5625 58.8125 92.3125 58.8125 90.3125C58.8125 88.3438 57.5312 87.125 55.2812 87.125H52.9688V93.5625ZM67.375 105V82.375H77C82.0625 82.375 85.375 85.5625 85.375 90.3125C85.375 95.1562 81.9688 98.1875 76.8125 98.1875H73.3125V105H67.375ZM73.3125 93.5625H75.625C77.875 93.5625 79.1562 92.3125 79.1562 90.3125C79.1562 88.3438 77.875 87.125 75.625 87.125H73.3125V93.5625ZM93.6562 82.375V105H87.7188V82.375H93.6562ZM116.188 82.375V105H111.219L102.812 92.7812H102.656V105H96.7188V82.375H101.781L110.062 94.5312H110.25V82.375H116.188Z" fill="url(#paint0_linear_3320_8964)"/>
<ellipse cx="59.5" cy="63" rx="27" ry="7" fill="white" fill-opacity="0.3"/>
<ellipse cx="54" cy="62.5" rx="16.5" ry="4.5" fill="white" fill-opacity="0.5"/>
<ellipse cx="51.5" cy="62.5" rx="9" ry="2.5" fill="white" fill-opacity="0.7"/>
<path fill-rule="evenodd" clip-rule="evenodd" d="M41.5 20.7708C41.5 9.29943 50.6782 0 62 0C73.3218 0 82.5 9.29943 82.5 20.7708C82.5 32.2423 73.3218 41.5417 62 41.5417C60.0514 41.5417 58.1664 41.2662 56.3806 40.7516L44.7562 56.2702C43.7063 57.6718 41.5 56.9195 41.5 55.16V21.3879C41.5 21.339 41.5018 21.2908 41.5052 21.2433C41.5018 21.0862 41.5 20.9287 41.5 20.7708ZM62.1618 29.461C66.9665 29.461 70.8615 25.5146 70.8615 20.6464C70.8615 15.7782 66.9665 11.8317 62.1618 11.8317C57.3571 11.8317 53.4621 15.7782 53.4621 20.6464C53.4621 25.5146 57.3571 29.461 62.1618 29.461Z" fill="#14B4F9"/>
<defs>
<linearGradient id="paint0_linear_3320_8964" x1="113.807" y1="70" x2="0.926394" y2="149.935" gradientUnits="userSpaceOnUse">
<stop stop-color="#14B4F9"/>
<stop offset="1" stop-color="#D778CE"/>
</linearGradient>
</defs>
</svg>
