<svg width="24" height="24" viewBox="0 0 24 24" fill="none" xmlns="http://www.w3.org/2000/svg">
<g clip-path="url(#clip0_4544_91239)">
<path d="M10.2425 2.48544L10.2188 2.52503L10.1987 2.56664L7.93076 7.28407L2.81915 8.00149C2.35238 8.01937 1.818 8.19573 1.49191 8.70108C0.803939 9.49239 0.837599 10.6517 1.59289 11.407L1.59284 11.4071L1.60168 11.4157L5.32382 15.0471L4.41504 20.2271L4.4 20.3129V20.3999C4.4 20.4095 4.39996 20.4197 4.39991 20.4307C4.39911 20.6218 4.39739 21.0308 4.60557 21.4472L4.62275 21.4815L4.64251 21.5144C5.176 22.4036 6.34758 22.8776 7.388 22.2731L12 19.8314L16.5529 22.2418C16.7926 22.411 17.0418 22.4589 17.1711 22.4774C17.3316 22.5003 17.4958 22.5001 17.5831 22.5C17.5891 22.4999 17.5947 22.4999 17.6 22.4999H17.6006H17.6012H17.6017H17.6023H17.6029H17.6035H17.604H17.6046H17.6052H17.6057H17.6063H17.6069H17.6074H17.608H17.6085H17.6091H17.6096H17.6102H17.6107H17.6113H17.6118H17.6124H17.6129H17.6134H17.614H17.6145H17.615H17.6155H17.6161H17.6166H17.6171H17.6176H17.6181H17.6187H17.6192H17.6197H17.6202H17.6207H17.6212H17.6217H17.6222H17.6227H17.6232H17.6237H17.6242H17.6247H17.6252H17.6257H17.6261H17.6266H17.6271H17.6276H17.6281H17.6285H17.629H17.6295H17.63H17.6304H17.6309H17.6314H17.6318H17.6323H17.6327H17.6332H17.6337H17.6341H17.6346H17.635H17.6355H17.6359H17.6364H17.6368H17.6373H17.6377H17.6381H17.6386H17.639H17.6394H17.6399H17.6403H17.6407H17.6412H17.6416H17.642H17.6425H17.6429H17.6433H17.6437H17.6441H17.6446H17.645H17.6454H17.6458H17.6462H17.6466H17.647H17.6474H17.6478H17.6482H17.6486H17.649H17.6494H17.6498H17.6502H17.6506H17.651H17.6514H17.6518H17.6522H17.6526H17.653H17.6534H17.6537H17.6541H17.6545H17.6549H17.6553H17.6557H17.656H17.6564H17.6568H17.6572H17.6575H17.6579H17.6583H17.6586H17.659H17.6594H17.6597H17.6601H17.6605H17.6608H17.6612H17.6616H17.6619H17.6623H17.6626H17.663H17.6633H17.6637H17.664H17.6644H17.6647H17.6651H17.6654H17.6658H17.6661H17.6665H17.6668H17.6672H17.6675H17.6679H17.6682H17.6685H17.6689H17.6692H17.6696H17.6699H17.6702H17.6706H17.6709H17.6712H17.6716H17.6719H17.6722H17.6725H17.6729H17.6732H17.6735H17.6739H17.6742H17.6745H17.6748H17.6752H17.6755H17.6758H17.6761H17.6764H17.6768H17.6771H17.6774H17.6777H17.678H17.6784H17.6787H17.679H17.6793H17.6796H17.6799H17.6802H17.6805H17.6809H17.6812H17.6815H17.6818H17.6821H17.6824H17.6827H17.683H17.6833H17.6836H17.6839H17.6843H17.6846H17.6849H17.6852H17.6855H17.6858H17.6861H17.6864H17.6867H17.687H17.6873H17.6876H17.6879H17.6882H17.6885H17.6888H17.6891H17.6894H17.6897H17.69H17.6903H17.6906H17.6909H17.6912H17.6915H17.6918H17.6921H17.6924H17.6927H17.6929H17.6932H17.6935H17.6938H17.6941H17.6944H17.6947H17.695H17.6953H17.6956H17.6959H17.6962H17.6965H17.6968H17.6971H17.6974H17.6977H17.6979H17.6982H17.6985H17.6988H17.6991H17.6994H17.6997H17.7H17.7003H17.7006H17.7009H17.7012H17.7015H17.7018H17.7021H17.7023H17.7026H17.7029H17.7032H17.7035H17.7038H17.7041H17.7044H17.7047H17.705H17.7053H17.7056H17.7059H17.7062H17.7065H17.7068H17.7071H17.7073H17.7076H17.7079H17.7082H17.7085H17.7088H17.7091H17.7094H17.7097H17.71H17.7103H17.7106H17.7109H17.7112H17.7115H17.7118H17.7121H17.7124H17.7127H17.713H17.7133H17.7136H17.7139H17.7142H17.7145H17.7148H17.7151H17.7154H17.7157H17.7161H17.7164H17.7167H17.717H17.7173H17.7176H17.7179H17.7182H17.7185H17.7188H17.7191H17.7195H17.7198H17.7201H17.7204H17.7207H17.721H17.7213H17.7216H17.722H17.7223H17.7226H17.7229H17.7232H17.7236H17.7239H17.7242H17.7245H17.7248H17.7252H17.7255H17.7258H17.7261H17.7265H17.7268H17.7271H17.7275H17.7278H17.7281H17.7284H17.7288H17.7291H17.7294H17.7298H17.7301H17.7304H17.7308H17.7311H17.7315H17.7318H17.7321H17.7325H17.7328H17.7332H17.7335H17.7339H17.7342H17.7346H17.7349H17.7353H17.7356H17.736H17.7363H17.7367H17.737H17.7374H17.7377H17.7381H17.7384H17.7388H17.7392H17.7395H17.7399H17.7403H17.7406H17.741H17.7414H17.7417H17.7421H17.7425H17.7428H17.7432H17.7436H17.744H17.7443H17.7447H17.7451H17.7455H17.7459H17.7463H17.7466H17.747H17.7474H17.7478H17.7482H17.7486H17.749H17.7494H17.7498H17.7502H17.7506H17.751H17.7514H17.7518H17.7522H17.7526H17.753H17.7534H17.7538H17.7542H17.7546H17.755H17.7554H17.7559H17.7563H17.7567H17.7571H17.7575H17.758H17.7584H17.7588H17.7593H17.7597H17.7601H17.7606H17.761H17.7614H17.7619H17.7623H17.7627H17.7632H17.7636H17.7641H17.7645H17.765H17.7654H17.7659H17.7663H17.7668H17.7673H17.7677H17.7682H17.7686H17.7691H17.7696H17.77H17.7705H17.771H17.7715H17.7719H17.7724H17.7729H17.7734H17.7739H17.7743H17.7748H17.7753H17.7758H17.7763H17.7768H17.7773H17.7778H17.7783H17.7788H17.7793H17.7798H17.7803H17.7808H17.7813H17.7819H17.7824H17.7829H17.7834H17.7839H17.7845H17.785H17.7855H17.786H17.7866H17.7871H17.7876H17.7882H17.7887H17.7893H17.7898H17.7904H17.7909H17.7915H17.792H17.7926H17.7931H17.7937H17.7943H17.7948H17.7954H17.796H17.7965H17.7971H17.7977H17.7983H17.7988H17.7994H17.8H17.899L17.9961 22.4805C19.0061 22.2785 19.7783 21.2871 19.5864 20.1355L19.5864 20.1355L19.585 20.1271L18.6762 14.9471L22.3143 11.3977C22.7495 11.1087 22.9669 10.6451 22.9965 10.2041C23.0745 9.67189 22.906 9.15981 22.642 8.78576C22.3759 8.40881 21.9083 8.03374 21.2852 8.00209L16.1594 7.28269L13.7944 2.55272L12.9 2.99994L13.7944 2.55272C13.7143 2.39241 13.607 2.21775 13.4446 2.05533C13.2933 1.90402 13.1314 1.8006 12.9803 1.72235C11.9418 1.12464 10.7747 1.59848 10.2425 2.48544Z" stroke="black" stroke-width="2"/>
</g>
<defs>
<clipPath id="clip0_4544_91239">
<rect width="24" height="24" fill="white"/>
</clipPath>
</defs>
</svg>
