<svg width="24" height="24" viewBox="0 0 24 24" fill="none" xmlns="http://www.w3.org/2000/svg">
<path d="M20.4956 8.0357L20.3397 9.17508L20.4956 8.0357C20.4656 8.03159 20.4391 8.02869 20.4187 8.02664C20.3993 8.02469 20.3803 8.023 20.3706 8.02212C20.3622 8.02136 20.357 8.02086 20.3543 8.02059L15.9148 7.36703L13.8405 3.01545C13.7636 2.85398 13.6562 2.66844 13.4887 2.49272C13.3332 2.32963 13.167 2.21804 13.0156 2.1353C11.9135 1.4727 10.7058 2.02963 10.1855 2.93928L10.1598 2.98414L10.1383 3.03112L8.15017 7.36866L3.72045 8.02079C3.71938 8.02089 3.71796 8.02101 3.71614 8.02116L3.69396 8.02278L3.67711 8.02392L3.65641 8.02533C3.30117 8.05004 2.88243 8.17256 2.54516 8.51171L2.54516 8.51171C2.39152 8.6662 2.26124 8.86471 2.22919 8.91356C2.22591 8.91856 2.22366 8.92199 2.22252 8.92364C1.65716 9.74287 1.74037 10.8361 2.43744 11.5672L2.44234 11.5724L2.44729 11.5774L5.72639 14.9331L4.9371 19.6521C4.91818 19.7652 4.90665 19.8882 4.90799 20.0186C4.91 20.2152 4.92006 20.5872 5.10948 20.9846L5.12799 21.0234L5.14935 21.0607C5.67096 21.9726 6.88334 22.53 7.98769 21.8598L11.9931 19.6355L15.8793 21.7936C15.8808 21.7946 15.8829 21.7959 15.8854 21.7976C15.8862 21.7981 15.8878 21.7991 15.89 21.8006C15.9032 21.8092 15.9391 21.8327 15.9676 21.8504C16.0415 21.8965 16.2043 21.9944 16.4241 22.0512L16.4241 22.0512C16.6662 22.1139 16.9198 22.1121 17.0103 22.1115C17.0177 22.1114 17.024 22.1114 17.0292 22.1114H17.0294H17.0296H17.0298H17.03H17.0302H17.0304H17.0306H17.0309H17.0311H17.0313H17.0315H17.0317H17.0319H17.0321H17.0323H17.0325H17.0327H17.0329H17.0331H17.0333H17.0335H17.0337H17.0339H17.0341H17.0343H17.0345H17.0347H17.0349H17.0351H17.0353H17.0355H17.0357H17.0359H17.0361H17.0363H17.0365H17.0367H17.0369H17.0371H17.0373H17.0375H17.0377H17.0379H17.0381H17.0383H17.0385H17.0387H17.0389H17.0391H17.0393H17.0395H17.0397H17.0399H17.0401H17.0403H17.0405H17.0406H17.0408H17.041H17.0412H17.0414H17.0416H17.0418H17.042H17.0422H17.0424H17.0426H17.0427H17.0429H17.0431H17.0433H17.0435H17.0437H17.0439H17.0441H17.0442H17.0444H17.0446H17.0448H17.045H17.0452H17.0454H17.0455H17.0457H17.0459H17.0461H17.0463H17.0465H17.0466H17.0468H17.047H17.0472H17.0474H17.0476H17.0477H17.0479H17.0481H17.0483H17.0485H17.0486H17.0488H17.049H17.0492H17.0494H17.0495H17.0497H17.0499H17.0501H17.0503H17.0504H17.0506H17.0508H17.051H17.0511H17.0513H17.0515H17.0517H17.0518H17.052H17.0522H17.0524H17.0525H17.0527H17.0529H17.0531H17.0532H17.0534H17.0536H17.0538H17.0539H17.0541H17.0543H17.0544H17.0546H17.0548H17.055H17.0551H17.0553H17.0555H17.0556H17.0558H17.056H17.0561H17.0563H17.0565H17.0566H17.0568H17.057H17.0571H17.0573H17.0575H17.0576H17.0578H17.058H17.0581H17.0583H17.0585H17.0586H17.0588H17.059H17.0591H17.0593H17.0595H17.0596H17.0598H17.0599H17.0601H17.0603H17.0604H17.0606H17.0608H17.0609H17.0611H17.0612H17.0614H17.0616H17.0617H17.0619H17.062H17.0622H17.0624H17.0625H17.0627H17.0628H17.063H17.0632H17.0633H17.0635H17.0636H17.0638H17.0639H17.0641H17.0643H17.0644H17.0646H17.0647H17.0649H17.065H17.0652H17.0653H17.0655H17.0657H17.0658H17.066H17.0661H17.0663H17.0664H17.0666H17.0667H17.0669H17.067H17.0672H17.0673H17.0675H17.0676H17.0678H17.068H17.0681H17.0683H17.0684H17.0686H17.0687H17.0689H17.069H17.0692H17.0693H17.0695H17.0696H17.0697H17.0699H17.07H17.0702H17.0703H17.0705H17.0706H17.0708H17.0709H17.0711H17.0712H17.0714H17.0715H17.0717H17.0718H17.072H17.0721H17.0722H17.0724H17.0725H17.0727H17.0728H17.073H17.0731H17.0733H17.0734H17.0735H17.0737H17.0738H17.074H17.0741H17.0743H17.0744H17.0745H17.0747H17.0748H17.075H17.0751H17.0752H17.0754H17.0755H17.0757H17.0758H17.0759H17.0761H17.0762H17.0764H17.0765H17.0766H17.0768H17.0769H17.0771H17.0772H17.0773H17.0775H17.0776H17.0778H17.0779H17.078H17.0782H17.0783H17.0784H17.0786H17.0787H17.0788H17.079H17.0791H17.0793H17.0794H17.0795H17.0797H17.0798H17.0799H17.0801H17.0802H17.0803H17.0805H17.0806H17.0807H17.0809H17.081H17.0811H17.0813H17.0814H17.0815H17.0817H17.0818H17.0819H17.0821H17.0822H17.0823H17.0825H17.0826H17.0827H17.0829H17.083H17.0831H17.0832H17.0834H17.0835H17.0836H17.0838H17.0839H17.084H17.0842H17.0843H17.0844H17.0845H17.0847H17.0848H17.0849H17.0851H17.0852H17.0853H17.0854H17.0856H17.0857H17.0858H17.086H17.0861H17.0862H17.0863H17.0865H17.0866H17.0867H17.0868H17.087H17.0871H17.0872H17.0873H17.0875H17.0876H17.0877H17.0878H17.088H17.0881H17.0882H17.0883H17.0885H17.0886H17.0887H17.0888H17.089H17.0891H17.0892H17.0893H17.0895H17.0896H17.0897H17.0898H17.09H17.0901H17.0902H17.0903H17.0904H17.0906H17.0907H17.0908H17.0909H17.0911H17.0912H17.0913H17.0914H17.0915H17.0917H17.0918H17.0919H17.092H17.0921H17.0923H17.0924H17.0925H17.0926H17.0927H17.0929H17.093H17.0931H17.0932H17.0933H17.0935H17.0936H17.0937H17.0938H17.0939H17.094H17.0942H17.0943H17.0944H17.0945H17.0946H17.0948H17.0949H17.095H17.0951H17.0952H17.0953H17.0955H17.0956H17.0957H17.0958H17.0959H17.096H17.0962H17.0963H17.0964H17.0965H17.0966H17.0967H17.0969H17.097H17.0971H17.0972H17.0973H17.0974H17.0976H17.0977H17.0978H17.0979H17.098H17.0981H17.0982H17.0984H17.0985H17.0986H17.0987H17.0988H17.0989H17.099H17.0992H17.0993H17.0994H17.0995H17.0996H17.0997H17.0998H17.0999H17.1001H17.1002H17.1003H17.1004H17.1005H17.1006H17.1007H17.1009H17.101H17.1011H17.1012H17.1013H17.1014H17.1015H17.1016H17.1017H17.1019H17.102H17.1021H17.1022H17.1023H17.1024H17.1025H17.1026H17.1028H17.1029H17.103H17.1031H17.1032H17.1033H17.1034H17.1035H17.1036H17.1037H17.1039H17.104H17.1041H17.1042H17.1043H17.1044H17.1045H17.1046H17.1047H17.1048H17.105H17.1051H17.1052H17.1053C17.2194 22.1114 17.439 22.1053 17.6837 22.021C18.6199 21.6983 19.2338 20.716 19.0642 19.6489L19.0643 19.6489L19.0627 19.6397L18.2597 14.8387L21.4159 11.6089C21.4211 11.6046 21.4312 11.5962 21.4484 11.5823C21.4503 11.5808 21.4524 11.5791 21.4547 11.5772C21.4934 11.5459 21.5858 11.4713 21.6758 11.3766L20.8421 10.5845L21.6758 11.3766C21.9265 11.1127 22.0642 10.7929 22.1139 10.4851C22.1327 10.3686 22.1407 10.2622 22.1455 10.1918C22.1791 9.69511 22.0231 9.22093 21.7734 8.85608C21.5279 8.49748 21.0994 8.11831 20.4956 8.0357ZM15.9493 7.43924L15.9491 7.43884L15.9493 7.43924ZM5.77961 14.9875C5.77953 14.9874 5.77944 14.9874 5.77935 14.9873L5.77961 14.9875L5.88689 14.8827L5.77961 14.9875ZM15.888 21.7985C15.8878 21.7984 15.8876 21.7982 15.8874 21.7981L15.888 21.7985L16.4463 20.7931L15.888 21.7985ZM18.2472 14.7636C18.2472 14.7637 18.2472 14.7638 18.2472 14.7638L18.2472 14.7636Z" stroke="#0EB5F9" stroke-width="2.3"/>
</svg>
