<svg width="17" height="9" viewBox="0 0 17 9" fill="none" xmlns="http://www.w3.org/2000/svg">
<path d="M1.31774 8.78063C1.24806 8.85031 1.16534 8.90558 1.07429 8.9433C0.983246 8.98101 0.885665 9.00042 0.787119 9.00042C0.688572 9.00042 0.590991 8.98101 0.499946 8.9433C0.408901 8.90558 0.326176 8.85031 0.256493 8.78063C0.186811 8.71094 0.131536 8.62822 0.093824 8.53717C0.056112 8.44613 0.0367008 8.34855 0.0367008 8.25C0.0367008 8.15146 0.056112 8.05387 0.093824 7.96283C0.131536 7.87178 0.186811 7.78906 0.256493 7.71938L7.75649 0.219377C7.82615 0.149645 7.90887 0.0943258 7.99991 0.0565826C8.09096 0.0188393 8.18856 -0.000587828 8.28712 -0.000587824C8.38568 -0.00058782 8.48328 0.0188394 8.57432 0.0565826C8.66537 0.0943258 8.74809 0.149645 8.81774 0.219377L16.3177 7.71938C16.4585 7.86011 16.5375 8.05098 16.5375 8.25C16.5375 8.44903 16.4585 8.6399 16.3177 8.78063C16.177 8.92136 15.9861 9.00042 15.7871 9.00042C15.5881 9.00042 15.3972 8.92136 15.2565 8.78063L8.28712 1.81031L1.31774 8.78063Z" fill="#70828A"/>
</svg>
