<svg width="105" height="24" viewBox="0 0 105 24" fill="none" xmlns="http://www.w3.org/2000/svg">
<path d="M20.87 17.25L18.16 12.57C18.7145 11.5515 19.0034 10.4097 19 9.25C19 7.39348 18.2625 5.61301 16.9497 4.30025C15.6369 2.9875 13.8565 2.25 12 2.25C10.1434 2.25 8.36296 2.9875 7.0502 4.30025C5.73745 5.61301 4.99995 7.39348 4.99995 9.25C4.99651 10.4097 5.28541 11.5515 5.83995 12.57L3.12995 17.25C3.04201 17.4023 2.9958 17.5751 2.99597 17.751C2.99615 17.9269 3.0427 18.0996 3.13094 18.2517C3.21918 18.4039 3.34598 18.53 3.49856 18.6175C3.65113 18.705 3.82408 18.7507 3.99995 18.75H6.86995L8.32995 21.21C8.37917 21.2915 8.43978 21.3656 8.50995 21.43C8.69533 21.6087 8.94248 21.709 9.19995 21.71H9.33995C9.49092 21.6893 9.63517 21.6345 9.76169 21.5495C9.88821 21.4646 9.99365 21.3519 10.07 21.22L12 17.9L13.93 21.25C14.0074 21.38 14.1133 21.4908 14.2398 21.5739C14.3662 21.6571 14.5099 21.7104 14.66 21.73H14.8C15.0609 21.7316 15.3121 21.6311 15.5 21.45C15.5672 21.3893 15.6246 21.3184 15.67 21.24L17.13 18.78H20C20.1762 18.7807 20.3494 18.7348 20.5022 18.647C20.655 18.5592 20.7818 18.4326 20.87 18.28C20.9634 18.1245 21.0128 17.9464 21.0128 17.765C21.0128 17.5836 20.9634 17.4055 20.87 17.25ZM9.18995 18.78L8.29995 17.29C8.21231 17.1422 8.08806 17.0194 7.93917 16.9336C7.79029 16.8478 7.6218 16.8018 7.44995 16.8H5.71995L7.14995 14.32C8.13468 15.2689 9.37577 15.9085 10.72 16.16L9.18995 18.78ZM12 14.25C11.011 14.25 10.0443 13.9568 9.2221 13.4073C8.39985 12.8579 7.75899 12.077 7.38055 11.1634C7.00212 10.2498 6.9031 9.24445 7.09602 8.27455C7.28895 7.30464 7.76515 6.41373 8.46442 5.71447C9.16368 5.0152 10.0546 4.539 11.0245 4.34607C11.9944 4.15315 12.9997 4.25216 13.9134 4.6306C14.827 5.00904 15.6079 5.6499 16.1573 6.47215C16.7067 7.29439 17 8.26109 17 9.25C17 10.5761 16.4732 11.8479 15.5355 12.7855C14.5978 13.7232 13.326 14.25 12 14.25ZM16.55 16.8C16.3781 16.8018 16.2096 16.8478 16.0607 16.9336C15.9118 17.0194 15.7876 17.1422 15.7 17.29L14.81 18.78L13.29 16.13C14.6294 15.8734 15.8659 15.2343 16.85 14.29L18.28 16.77L16.55 16.8Z" fill="url(#paint0_linear_12108_13519)"/>
<path d="M31.6055 13.082C33.7441 13.082 35.0391 13.7852 35.0391 15.0039C35.0391 16.2344 33.7441 16.9375 31.6055 16.9492C29.4609 16.9375 28.1543 16.2344 28.1484 15.0039C28.1543 13.7852 29.4609 13.082 31.6055 13.082ZM27.2461 11.9922V7.1875H28.1484V8.78125H31.1836V7.1875H32.0977V11.9922H27.2461ZM28.1484 11.2422H31.1836V9.50781H28.1484V11.2422ZM29.0742 15.0039C29.0625 15.7539 30.0352 16.1992 31.6055 16.1992C33.1816 16.1992 34.1426 15.7539 34.1484 15.0039C34.1426 14.2598 33.1816 13.8203 31.6055 13.8086C30.0352 13.8203 29.0625 14.2598 29.0742 15.0039ZM34.0312 12.8008V6.53125H34.9453V9.15625H36.5156V9.94141H34.9453V12.8008H34.0312ZM46.6992 11.8633V12.625H42.457V14.7578H41.543V12.625H37.1602V11.8633H46.6992ZM38.3789 16.7266V13.7266H39.3047V15.9531H45.6328V16.7266H38.3789ZM38.4023 10.668V7.04688H45.457V10.668H38.4023ZM39.3047 9.92969H44.543V7.77344H39.3047V9.92969ZM51.0703 9.73047C51.0586 11.4004 52.2656 13.2402 53.7773 13.9609L53.25 14.6875C52.0781 14.1133 51.0879 12.8828 50.6191 11.4707C50.1387 13 49.0957 14.3477 47.9297 14.9453L47.3672 14.2188C48.8672 13.4863 50.1562 11.5059 50.168 9.73047V8.37109H47.7422V7.60938H53.4141V8.37109H51.0703V9.73047ZM54.6914 16.9492V6.53125H55.6055V10.75H57.3516V11.5352H55.6055V16.9492H54.6914ZM69.5273 6.54297V14.1602H68.6133V6.54297H69.5273ZM61.1719 9.82422C61.166 8.32422 62.3438 7.27539 63.9023 7.26953C65.4609 7.27539 66.627 8.32422 66.6328 9.82422C66.627 11.3418 65.4609 12.3965 63.9023 12.3906C62.3438 12.3965 61.166 11.3418 61.1719 9.82422ZM62.0742 9.82422C62.0625 10.8613 62.8477 11.582 63.9023 11.582C64.9395 11.582 65.7305 10.8613 65.7305 9.82422C65.7305 8.80469 64.9395 8.07812 63.9023 8.07812C62.8477 8.07812 62.0625 8.80469 62.0742 9.82422ZM62.8008 16.7266V13.3867H63.7148V15.9531H69.8555V16.7266H62.8008ZM80.7891 11.4883V12.25H71.2969V11.4883H80.7891ZM71.8359 10.1289C73.6523 9.91797 75.4043 9.02148 75.4453 7.83203H72.1641V7.07031H79.9453V7.83203H76.6406C76.6816 9.00977 78.416 9.91797 80.2617 10.1289L79.9219 10.8672C78.2168 10.6504 76.6172 9.88281 76.043 8.72852C75.4688 9.88281 73.8809 10.6504 72.1641 10.8672L71.8359 10.1289ZM72.4453 15.0508C72.4395 13.8555 73.793 13.1641 76.043 13.1641C78.2754 13.1641 79.6172 13.8555 79.6289 15.0508C79.6172 16.2578 78.2754 16.9258 76.043 16.9258C73.793 16.9258 72.4395 16.2578 72.4453 15.0508ZM73.3828 15.0508C73.3711 15.7773 74.373 16.1934 76.043 16.1875C77.6953 16.1934 78.6973 15.7773 78.7031 15.0508C78.6973 14.3184 77.6953 13.9023 76.043 13.8906C74.373 13.9023 73.3711 14.3184 73.3828 15.0508ZM93.6211 7.72656V8.48828H85.1719V7.72656H88.9688V6.47266H89.8711V7.72656H93.6211ZM84.6797 14.043V13.2812H94.2188V14.043H89.8711V16.9727H88.9688V14.043H84.6797ZM86.0273 10.832C86.0156 9.70703 87.293 9.08594 89.4258 9.08594C91.541 9.08594 92.8184 9.70703 92.8242 10.832C92.8184 11.9336 91.541 12.5547 89.4258 12.5664C87.293 12.5547 86.0156 11.9336 86.0273 10.832ZM86.9766 10.832C86.9648 11.4766 87.873 11.8574 89.4258 11.8516C90.9609 11.8574 91.8633 11.4766 91.875 10.832C91.8633 10.1758 90.9609 9.79492 89.4258 9.78906C87.873 9.79492 86.9648 10.1758 86.9766 10.832ZM103.664 6.53125V16.9492H102.738V6.53125H103.664ZM95.1797 14.2422C97.998 12.9062 99.4395 10.9082 99.6445 8.41797H95.6602V7.66797H100.582C100.57 10.6621 99.1758 13.3164 95.6836 14.9922L95.1797 14.2422Z" fill="url(#paint1_linear_12108_13519)"/>
<defs>
<linearGradient id="paint0_linear_12108_13519" x1="8.78708" y1="-2.0297" x2="-7.82579" y2="9.59883" gradientUnits="userSpaceOnUse">
<stop stop-color="#14B4F9"/>
<stop offset="1" stop-color="#D778CE"/>
</linearGradient>
<linearGradient id="paint1_linear_12108_13519" x1="51.3929" y1="0.484848" x2="44.1396" y2="27.5887" gradientUnits="userSpaceOnUse">
<stop stop-color="#14B4F9"/>
<stop offset="1" stop-color="#D778CE"/>
</linearGradient>
</defs>
</svg>
