<svg width="167" height="52" viewBox="0 0 167 52" fill="none" xmlns="http://www.w3.org/2000/svg">
<rect x="0.5" y="0.5" width="166" height="51" rx="25.5" fill="#0EB5F9"/>
<rect x="0.5" y="0.5" width="166" height="51" rx="25.5" stroke="#0EB5F9"/>
<path d="M59.1436 28.4824C62.4395 28.4824 64.4609 29.5986 64.4697 31.5059C64.4609 33.4395 62.4395 34.5557 59.1436 34.5645C55.8213 34.5557 53.7646 33.4395 53.7646 31.5059C53.7646 29.5986 55.8213 28.4824 59.1436 28.4824ZM52.3232 27.0938V19.6758H54.2568V21.8203H57.9658V19.6758H59.8994V27.0938H52.3232ZM54.2568 25.5469H57.9658V23.3496H54.2568V25.5469ZM55.7158 31.5059C55.7158 32.4902 56.9639 33.0264 59.1436 33.0176C61.3145 33.0264 62.5361 32.4902 62.5361 31.5059C62.5361 30.5215 61.3145 30.0205 59.1436 30.0117C56.9639 30.0205 55.7158 30.5215 55.7158 31.5059ZM62.3604 28.0957V18.6738H64.3115V22.4707H66.5264V24.1055H64.3115V28.0957H62.3604ZM81.8369 26.6191V28.1836H75.7021V31.1016H73.7686V28.1836H67.3174V26.6191H81.8369ZM69.0752 34.248V29.6426H71.0264V32.666H80.2373V34.248H69.0752ZM69.1631 25.1426V19.3945H79.9736V25.1426H69.1631ZM71.0615 23.6133H78.04V20.9238H71.0615V23.6133ZM91.9619 19.3594C94.2822 19.3594 95.9346 20.6514 95.9521 22.5586C95.9346 24.1406 94.748 25.3271 92.9814 25.6523V26.9355C94.3086 26.8564 95.6357 26.7422 96.8662 26.5664L97.0244 27.9902C93.7197 28.5791 90.0283 28.6494 87.3389 28.6406L87.1279 27.0762C88.2705 27.0762 89.6064 27.0674 91.0127 27.0234V25.6611C89.1934 25.3535 87.9805 24.167 87.9893 22.5586C87.9805 20.6514 89.6328 19.3594 91.9619 19.3594ZM89.3076 34.2305V29.748H91.2588V32.6484H100.312V34.2305H89.3076ZM89.8174 22.5586C89.7998 23.6045 90.6963 24.2549 91.9619 24.2637C93.2363 24.2549 94.0977 23.6045 94.1064 22.5586C94.0977 21.4863 93.2363 20.8535 91.9619 20.8535C90.6963 20.8535 89.7998 21.4863 89.8174 22.5586ZM97.7979 30.8203V18.6914H99.749V23.8242H101.894V25.4414H99.749V30.8203H97.7979ZM117.239 31.1016V32.7188H102.72V31.1016H106.569V28.4824H104.442V23.2969H113.583V21.3457H104.407V19.7637H115.517V24.8613H106.394V26.9004H115.886V28.4824H113.565V31.1016H117.239ZM108.468 31.1016H111.649V28.4824H108.468V31.1016Z" fill="white"/>
</svg>
