<svg width="167" height="52" viewBox="0 0 167 52" fill="none" xmlns="http://www.w3.org/2000/svg">
<rect x="0.5" y="0.5" width="166" height="51" rx="25.5" stroke="#0EB5F9"/>
<path d="M61.2793 28.4824C64.5752 28.4824 66.5967 29.5986 66.6055 31.5059C66.5967 33.4395 64.5752 34.5557 61.2793 34.5645C57.957 34.5557 55.9004 33.4395 55.9004 31.5059C55.9004 29.5986 57.957 28.4824 61.2793 28.4824ZM54.459 27.0938V19.6758H56.3926V21.8203H60.1016V19.6758H62.0352V27.0938H54.459ZM56.3926 25.5469H60.1016V23.3496H56.3926V25.5469ZM57.8516 31.5059C57.8516 32.4902 59.0996 33.0264 61.2793 33.0176C63.4502 33.0264 64.6719 32.4902 64.6719 31.5059C64.6719 30.5215 63.4502 30.0205 61.2793 30.0117C59.0996 30.0205 57.8516 30.5215 57.8516 31.5059ZM64.4961 28.0957V18.6738H66.4473V22.4707H68.6621V24.1055H66.4473V28.0957H64.4961ZM83.9727 26.6191V28.1836H77.8379V31.1016H75.9043V28.1836H69.4531V26.6191H83.9727ZM71.2109 34.248V29.6426H73.1621V32.666H82.373V34.248H71.2109ZM71.2988 25.1426V19.3945H82.1094V25.1426H71.2988ZM73.1973 23.6133H80.1758V20.9238H73.1973V23.6133ZM97.4727 18.6738V25.002H99.916V26.6191H97.4727V34.5645H95.5391V18.6738H97.4727ZM84.9395 22.6816V21.1172H88.7012V18.9023H90.6523V21.1172H94.3086V22.6816H84.9395ZM85.6777 27.4629C85.6602 25.2656 87.3652 23.71 89.6855 23.7188C91.9707 23.71 93.667 25.2656 93.6758 27.4629C93.667 29.6514 91.9707 31.1895 89.6855 31.1895C87.3652 31.1895 85.6602 29.6514 85.6777 27.4629ZM87.541 27.4629C87.5322 28.7549 88.4375 29.5811 89.6855 29.5723C90.9072 29.5811 91.7949 28.7549 91.8125 27.4629C91.7949 26.1709 90.9072 25.3184 89.6855 25.3184C88.4375 25.3184 87.5322 26.1709 87.541 27.4629ZM113.855 18.6738V34.5645H111.887V18.6738H113.855ZM100.689 30.1875C104.855 28.21 106.771 25.5205 107.123 21.9082H101.498V20.3613H109.109C109.109 25.0898 107.272 29.1064 101.709 31.752L100.689 30.1875Z" fill="#0EB5F9"/>
</svg>
