<svg width="344" height="52" viewBox="0 0 344 52" fill="none" xmlns="http://www.w3.org/2000/svg">
<rect x="0.0195312" width="343" height="52" rx="26" fill="#FFE500"/>
<path d="M124.224 20.2459C124.218 25.038 122.907 29.1588 117.045 32.0677L115.97 30.6008C118.73 29.2396 120.371 27.6485 121.297 25.7652L116.355 26.2251L116.101 24.547L121.887 24.1802C122.092 23.4344 122.217 22.6512 122.273 21.8246H116.927V20.2459H124.224ZM126.449 34.529V18.6796H128.407V24.8888H130.763V26.4986H128.407V34.529H126.449ZM139.781 20.2459C139.775 25.038 138.463 29.1588 132.602 32.0677L131.527 30.6008C134.286 29.2396 135.927 27.6485 136.853 25.7652L131.912 26.2251L131.657 24.547L137.444 24.1802C137.649 23.4344 137.773 22.6512 137.829 21.8246H132.484V20.2459H139.781ZM142.006 34.529V18.6796H143.964V24.8888H146.32V26.4986H143.964V34.529H142.006ZM154.306 19.5684C157.712 19.5746 160.229 21.2776 160.229 23.8508C160.229 26.2438 158.184 27.8287 155.275 28.1146V31.0297H161.603V32.6333H147.077V31.0297H153.336V28.1146C150.446 27.8287 148.401 26.2376 148.407 23.8508C148.401 21.2776 150.918 19.5746 154.306 19.5684ZM150.322 23.8508C150.322 25.5787 151.975 26.5981 154.306 26.6043C156.655 26.5981 158.308 25.5787 158.308 23.8508C158.308 22.1975 156.655 21.1409 154.306 21.1471C151.975 21.1409 150.322 22.1975 150.322 23.8508ZM177.159 31.1043V32.7203H162.634V31.1043H168.893V28.5124H164.355V23.3163H173.505V21.3398H164.331V19.761H175.438V24.8639H166.307V26.9151H175.804V28.5124H170.832V31.1043H177.159ZM196.987 31.1043V32.7203H182.462V31.1043H188.721V28.5124H184.184V23.3163H193.333V21.3398H184.159V19.761H195.266V24.8639H186.135V26.9151H195.632V28.5124H190.66V31.1043H196.987ZM210.655 20.2148V22.0173C210.655 24.1367 210.655 26.3308 210.077 29.6685L208.094 29.5007C208.709 26.3805 208.709 24.0746 208.715 22.0173V21.7997H199.548V20.2148H210.655ZM198.019 32.3909V30.7811H212.494V32.3909H198.019ZM226.802 18.692V30.172H224.844V18.692H226.802ZM213.861 23.7017C213.855 21.3895 215.726 19.7362 218.144 19.7362C220.561 19.7362 222.42 21.3895 222.42 23.7017C222.42 26.0511 220.561 27.692 218.144 27.6858C215.726 27.692 213.855 26.0511 213.861 23.7017ZM215.769 23.7017C215.763 25.1126 216.782 25.9827 218.144 25.9827C219.467 25.9827 220.499 25.1126 220.499 23.7017C220.499 22.328 219.467 21.4392 218.144 21.4392C216.782 21.4392 215.763 22.328 215.769 23.7017ZM216.291 34.2555V29.0035H218.262V32.6706H227.249V34.2555H216.291Z" fill="black"/>
<path d="M39.9572 13.7534C36.5168 13.7624 33.2212 14.8534 30.7925 16.7873C28.3638 18.7213 27 21.3404 27 24.0709C27 25.7856 27.5385 27.4732 28.5668 28.9812C29.595 30.4892 31.0806 31.7701 32.8892 32.708C32.2958 34.5608 31.4297 37.4585 31.7438 37.7143C32.0777 37.9862 35.6618 35.5838 37.6436 34.2176C38.4209 34.3313 39.2096 34.3886 40 34.3886C41.7072 34.3886 43.3977 34.1217 44.9749 33.6032C46.5522 33.0847 47.9853 32.3247 49.1925 31.3666C50.3996 30.4085 51.3572 29.2711 52.0105 28.0193C52.6638 26.7675 53 25.4258 53 24.0709C53 21.3345 51.6303 18.7103 49.1924 16.7754C46.7544 14.8405 43.4478 13.7534 40 13.7534C39.9857 13.7534 39.9715 13.7534 39.9572 13.7534Z" fill="#1A1A1A"/>
<path d="M30.2146 20.374C29.7657 20.374 29.4043 20.7354 29.4043 21.1843V21.1874C29.4043 21.6363 29.7657 21.9977 30.2146 21.9977H31.4807V26.8705C31.4807 27.3202 31.8429 27.6822 32.2927 27.6822C32.7424 27.6822 33.1044 27.3202 33.1044 26.8705V21.9977H34.406C34.8549 21.9977 35.2163 21.6363 35.2163 21.1874V21.1843C35.2163 20.7354 34.8549 20.374 34.406 20.374H32.2927H30.2146Z" fill="#FFE227"/>
<path d="M37.0117 20.3711C36.9271 20.3711 36.8429 20.3824 36.7612 20.4046C36.4716 20.4386 36.2109 20.6277 36.0987 20.9198L33.92 26.5875C33.7586 27.0073 33.9668 27.4752 34.3866 27.6365C34.8064 27.7979 35.2742 27.59 35.4356 27.1702L35.7657 26.3111H38.2929L38.6232 27.1702C38.7846 27.59 39.2524 27.7979 39.6722 27.6365C40.092 27.4752 40.2999 27.0073 40.1386 26.5875L37.9601 20.9198C37.8412 20.6104 37.5558 20.4167 37.2458 20.4005C37.1693 20.381 37.0906 20.3711 37.0117 20.3711ZM37.0294 23.0236L37.6689 24.6874H36.3899L37.0294 23.0236Z" fill="#FFE227"/>
<path d="M41.4531 20.374C40.9948 20.374 40.6261 20.743 40.6261 21.2013V26.8549C40.6261 27.3132 40.9948 27.6822 41.4531 27.6822H43.9592C44.4175 27.6822 44.7865 27.3132 44.7865 26.8549C44.7865 26.3966 44.4175 26.0277 43.9592 26.0277H42.2804V21.2013C42.2804 20.743 41.9114 20.374 41.4531 20.374Z" fill="#FFE227"/>
<path d="M45.9187 20.374C45.4604 20.374 45.0914 20.743 45.0914 21.2013V26.8549C45.0914 27.3132 45.4604 27.6822 45.9187 27.6822C46.377 27.6822 46.7457 27.3132 46.7457 26.8549V25.1183C46.7543 25.1103 46.7632 25.103 46.7715 25.0945L47.06 24.7992L48.9844 27.3563C49.26 27.7224 49.7765 27.7955 50.1427 27.52C50.5089 27.2444 50.5817 26.7276 50.3062 26.3614L48.2295 23.602L49.9783 21.8119C50.2985 21.4841 50.2925 20.9622 49.9649 20.6417C49.6373 20.3212 49.1157 20.3272 48.7954 20.655L46.7457 22.7531V21.2013C46.7457 20.743 46.377 20.374 45.9187 20.374Z" fill="#FFE227"/>
</svg>
