<svg width="20" height="21" viewBox="0 0 20 21" fill="none" xmlns="http://www.w3.org/2000/svg">
<path d="M17 2.70312H15V1.70312C15 1.43791 14.8946 1.18355 14.7071 0.996018C14.5196 0.808482 14.2652 0.703125 14 0.703125C13.7348 0.703125 13.4804 0.808482 13.2929 0.996018C13.1054 1.18355 13 1.43791 13 1.70312V2.70312H7V1.70312C7 1.43791 6.89464 1.18355 6.70711 0.996018C6.51957 0.808482 6.26522 0.703125 6 0.703125C5.73478 0.703125 5.48043 0.808482 5.29289 0.996018C5.10536 1.18355 5 1.43791 5 1.70312V2.70312H3C2.20435 2.70312 1.44129 3.0192 0.87868 3.5818C0.316071 4.14441 0 4.90748 0 5.70312V17.7031C0 18.4988 0.316071 19.2618 0.87868 19.8244C1.44129 20.3871 2.20435 20.7031 3 20.7031H17C17.7956 20.7031 18.5587 20.3871 19.1213 19.8244C19.6839 19.2618 20 18.4988 20 17.7031V5.70312C20 4.90748 19.6839 4.14441 19.1213 3.5818C18.5587 3.0192 17.7956 2.70312 17 2.70312ZM18 17.7031C18 17.9683 17.8946 18.2227 17.7071 18.4102C17.5196 18.5978 17.2652 18.7031 17 18.7031H3C2.73478 18.7031 2.48043 18.5978 2.29289 18.4102C2.10536 18.2227 2 17.9683 2 17.7031V10.7031H18V17.7031ZM18 8.70312H2V5.70312C2 5.43791 2.10536 5.18355 2.29289 4.99602C2.48043 4.80848 2.73478 4.70312 3 4.70312H5V5.70312C5 5.96834 5.10536 6.2227 5.29289 6.41023C5.48043 6.59777 5.73478 6.70312 6 6.70312C6.26522 6.70312 6.51957 6.59777 6.70711 6.41023C6.89464 6.2227 7 5.96834 7 5.70312V4.70312H13V5.70312C13 5.96834 13.1054 6.2227 13.2929 6.41023C13.4804 6.59777 13.7348 6.70312 14 6.70312C14.2652 6.70312 14.5196 6.59777 14.7071 6.41023C14.8946 6.2227 15 5.96834 15 5.70312V4.70312H17C17.2652 4.70312 17.5196 4.80848 17.7071 4.99602C17.8946 5.18355 18 5.43791 18 5.70312V8.70312Z" fill="#9F9F9F"/>
</svg>
