<svg width="20" height="21" viewBox="0 0 20 21" fill="none" xmlns="http://www.w3.org/2000/svg">
<path d="M10 0.703125C8.02219 0.703125 6.08879 1.28961 4.4443 2.38843C2.79981 3.48724 1.51809 5.04903 0.761209 6.87629C0.00433284 8.70355 -0.193701 10.7142 0.192152 12.654C0.578004 14.5938 1.53041 16.3757 2.92894 17.7742C4.32746 19.1727 6.10929 20.1251 8.0491 20.511C9.98891 20.8968 11.9996 20.6988 13.8268 19.9419C15.6541 19.185 17.2159 17.9033 18.3147 16.2588C19.4135 14.6143 20 12.6809 20 10.7031C20 9.38991 19.7413 8.08955 19.2388 6.87629C18.7363 5.66303 17.9997 4.56064 17.0711 3.63206C16.1425 2.70347 15.0401 1.96688 13.8268 1.46433C12.6136 0.961783 11.3132 0.703125 10 0.703125ZM10 18.7031C8.41775 18.7031 6.87104 18.2339 5.55544 17.3549C4.23985 16.4758 3.21447 15.2264 2.60897 13.7646C2.00347 12.3028 1.84504 10.6943 2.15372 9.1424C2.4624 7.59055 3.22433 6.16509 4.34315 5.04627C5.46197 3.92745 6.88743 3.16552 8.43928 2.85684C9.99113 2.54816 11.5997 2.70659 13.0615 3.31209C14.5233 3.91759 15.7727 4.94297 16.6518 6.25856C17.5308 7.57416 18 9.12087 18 10.7031C18 12.8249 17.1572 14.8597 15.6569 16.36C14.1566 17.8603 12.1217 18.7031 10 18.7031ZM10 4.70312C9.73479 4.70312 9.48043 4.80848 9.2929 4.99602C9.10536 5.18355 9 5.43791 9 5.70312V10.1231L6.9 11.3331C6.70736 11.4423 6.5564 11.6123 6.47078 11.8165C6.38517 12.0207 6.36975 12.2475 6.42695 12.4615C6.48414 12.6754 6.61072 12.8642 6.78682 12.9985C6.96292 13.1327 7.17859 13.2047 7.4 13.2031C7.57518 13.2043 7.7476 13.1595 7.9 13.0731L10.5 11.5731L10.59 11.4831L10.75 11.3531C10.7891 11.3036 10.8226 11.25 10.85 11.1931C10.8826 11.1394 10.9094 11.0825 10.93 11.0231C10.9572 10.9595 10.9741 10.892 10.98 10.8231L11 10.7031V5.70312C11 5.43791 10.8946 5.18355 10.7071 4.99602C10.5196 4.80848 10.2652 4.70312 10 4.70312Z" fill="#9F9F9F"/>
</svg>
