<svg width="25" height="25" viewBox="0 0 25 25" fill="none" xmlns="http://www.w3.org/2000/svg">
<path d="M17.4841 22.0044H15.1428C15.1152 22.0044 15.0928 21.982 15.0928 21.9544V19.5893C15.0928 19.5761 15.098 19.5633 15.1074 19.554L18.648 16.016C18.6676 15.9964 18.6994 15.9965 18.7189 16.0161L21.0637 18.3823C21.083 18.4018 21.083 18.4334 21.0635 18.4528L17.5194 21.9898C17.51 21.9992 17.4973 22.0044 17.4841 22.0044Z" stroke="#70828A" stroke-width="2"/>
<path d="M9.23828 12.1751L11.0413 13.978C11.0609 13.9975 11.0925 13.9975 11.1121 13.978L15.0934 9.99707" stroke="#70828A" stroke-width="1.7" stroke-linecap="round" stroke-linejoin="round"/>
<path d="M21.0436 13.5018C21.9251 7.36183 17.1943 2.99512 12.166 2.99512C7.13771 2.99512 3.15625 7.04597 3.15625 12.1358C3.15625 16.2912 6.44951 20.4429 11.1125 20.9338" stroke="#70828A" stroke-width="2" stroke-linecap="round" stroke-linejoin="round"/>
</svg>
