<svg width="23" height="23" viewBox="0 0 23 23" fill="none" xmlns="http://www.w3.org/2000/svg">
<path d="M10.6713 2.74269L10.6594 2.76249L10.6494 2.78329L8.38138 7.50071C8.30891 7.65145 8.16588 7.75597 8.00025 7.77921L2.86224 8.50034C2.57177 8.50653 2.26997 8.58564 2.04062 8.81471C1.94839 8.90683 1.86564 9.02271 1.81725 9.09047C1.80729 9.10441 1.79879 9.11632 1.79196 9.12556C1.35265 9.71999 1.41296 10.52 1.94645 11.0535L1.94642 11.0535L1.95084 11.0578L5.67299 14.6892C5.79121 14.8045 5.84484 14.9708 5.8163 15.1335L4.92256 20.2278C4.90787 20.3115 4.89936 20.4002 4.90033 20.4923C4.90231 20.6798 4.91426 20.9465 5.05279 21.2235L5.06137 21.2407L5.07125 21.2572C5.488 21.9518 6.37412 22.2891 7.14468 21.8361L11.7661 19.3895C11.9124 19.3121 12.0876 19.3121 12.2339 19.3895L16.7332 21.7715C16.7481 21.7794 16.7556 21.7842 16.7703 21.7936C16.7834 21.8019 16.8021 21.8139 16.8367 21.8349C16.8904 21.8675 16.9806 21.9195 17.0947 21.9518C17.2675 22.0007 17.4633 22.0002 17.5779 22C17.5856 22 17.593 21.9999 17.6 21.9999H17.6003H17.6006H17.6009H17.6012H17.6015H17.6018H17.6021H17.6024H17.6026H17.6029H17.6032H17.6035H17.6038H17.6041H17.6044H17.6047H17.605H17.6052H17.6055H17.6058H17.6061H17.6064H17.6067H17.607H17.6072H17.6075H17.6078H17.6081H17.6084H17.6086H17.6089H17.6092H17.6095H17.6098H17.61H17.6103H17.6106H17.6109H17.6111H17.6114H17.6117H17.612H17.6122H17.6125H17.6128H17.6131H17.6133H17.6136H17.6139H17.6141H17.6144H17.6147H17.6149H17.6152H17.6155H17.6157H17.616H17.6163H17.6165H17.6168H17.6171H17.6173H17.6176H17.6178H17.6181H17.6184H17.6186H17.6189H17.6191H17.6194H17.6197H17.6199H17.6202H17.6204H17.6207H17.6209H17.6212H17.6215H17.6217H17.622H17.6222H17.6225H17.6227H17.623H17.6232H17.6235H17.6237H17.624H17.6242H17.6245H17.6247H17.625H17.6252H17.6255H17.6257H17.626H17.6262H17.6264H17.6267H17.6269H17.6272H17.6274H17.6277H17.6279H17.6282H17.6284H17.6286H17.6289H17.6291H17.6294H17.6296H17.6298H17.6301H17.6303H17.6305H17.6308H17.631H17.6313H17.6315H17.6317H17.632H17.6322H17.6324H17.6327H17.6329H17.6331H17.6334H17.6336H17.6338H17.634H17.6343H17.6345H17.6347H17.635H17.6352H17.6354H17.6356H17.6359H17.6361H17.6363H17.6366H17.6368H17.637H17.6372H17.6375H17.6377H17.6379H17.6381H17.6383H17.6386H17.6388H17.639H17.6392H17.6395H17.6397H17.6399H17.6401H17.6403H17.6405H17.6408H17.641H17.6412H17.6414H17.6416H17.6418H17.6421H17.6423H17.6425H17.6427H17.6429H17.6431H17.6433H17.6436H17.6438H17.644H17.6442H17.6444H17.6446H17.6448H17.645H17.6452H17.6455H17.6457H17.6459H17.6461H17.6463H17.6465H17.6467H17.6469H17.6471H17.6473H17.6475H17.6477H17.6479H17.6481H17.6483H17.6486H17.6488H17.649H17.6492H17.6494H17.6496H17.6498H17.65H17.6502H17.6504H17.6506H17.6508H17.651H17.6512H17.6514H17.6516H17.6518H17.652H17.6522H17.6524H17.6526H17.6528H17.6529H17.6531H17.6533H17.6535H17.6537H17.6539H17.6541H17.6543H17.6545H17.6547H17.6549H17.6551H17.6553H17.6555H17.6557H17.6559H17.656H17.6562H17.6564H17.6566H17.6568H17.657H17.6572H17.6574H17.6576H17.6578H17.6579H17.6581H17.6583H17.6585H17.6587H17.6589H17.6591H17.6592H17.6594H17.6596H17.6598H17.66H17.6602H17.6604H17.6605H17.6607H17.6609H17.6611H17.6613H17.6615H17.6616H17.6618H17.662H17.6622H17.6624H17.6625H17.6627H17.6629H17.6631H17.6633H17.6634H17.6636H17.6638H17.664H17.6642H17.6643H17.6645H17.6647H17.6649H17.665H17.6652H17.6654H17.6656H17.6657H17.6659H17.6661H17.6663H17.6664H17.6666H17.6668H17.667H17.6671H17.6673H17.6675H17.6677H17.6678H17.668H17.6682H17.6684H17.6685H17.6687H17.6689H17.669H17.6692H17.6694H17.6696H17.6697H17.6699H17.6701H17.6702H17.6704H17.6706H17.6707H17.6709H17.6711H17.6713H17.6714H17.6716H17.6718H17.6719H17.6721H17.6723H17.6724H17.6726H17.6728H17.6729H17.6731H17.6733H17.6734H17.6736H17.6738H17.6739H17.6741H17.6742H17.6744H17.6746H17.6747H17.6749H17.6751H17.6752H17.6754H17.6756H17.6757H17.6759H17.676H17.6762H17.6764H17.6765H17.6767H17.6769H17.677H17.6772H17.6773H17.6775H17.6777H17.6778H17.678H17.6781H17.6783H17.6785H17.6786H17.6788H17.6789H17.6791H17.6793H17.6794H17.6796H17.6797H17.6799H17.6801H17.6802H17.6804H17.6805H17.6807H17.6809H17.681H17.6812H17.6813H17.6815H17.6816H17.6818H17.682H17.6821H17.6823H17.6824H17.6826H17.6827H17.6829H17.683H17.6832H17.6834H17.6835H17.6837H17.6838H17.684H17.6841H17.6843H17.6844H17.6846H17.6847H17.6849H17.6851H17.6852H17.6854H17.6855H17.6857H17.6858H17.686H17.6861H17.6863H17.6864H17.6866H17.6867H17.6869H17.6871H17.6872H17.6874H17.6875H17.6877H17.6878H17.688H17.6881H17.6883H17.6884H17.6886H17.6887H17.6889H17.689H17.6892H17.6893H17.6895H17.6896H17.6898H17.6899H17.6901H17.6902H17.6904H17.6905H17.6907H17.6908H17.691H17.6911H17.6913H17.6914H17.6916H17.6917H17.6919H17.692H17.6922H17.6923H17.6925H17.6926H17.6928H17.6929H17.6931H17.6932H17.6934H17.6935H17.6937H17.6938H17.694H17.6941H17.6943H17.6944H17.6946H17.6947H17.6949H17.695H17.6952H17.6953H17.6955H17.6956H17.6958H17.6959H17.6961H17.6962H17.6964H17.6965H17.6967H17.6968H17.697H17.6971H17.6973H17.6974H17.6976H17.6977H17.6979H17.698H17.6982H17.6983H17.6985H17.6986H17.6988H17.6989H17.699H17.6992H17.6993H17.6995H17.6996H17.6998H17.6999H17.7001H17.7002H17.7004H17.7005H17.7007H17.7008H17.701C17.7877 21.9999 17.9116 21.9942 18.0441 21.953C18.7251 21.7417 19.2298 21.0372 19.0932 20.2177L19.0932 20.2177L19.0925 20.2135L18.1837 15.0335C18.1552 14.8708 18.2088 14.7045 18.327 14.5892L21.9375 11.0667C21.9502 11.0544 21.9683 11.0396 22.0117 11.0064L22.0199 11.0001C22.0566 10.972 22.1148 10.9275 22.1701 10.8755C22.3468 10.7094 22.449 10.4958 22.485 10.281L21.9918 10.1985L22.485 10.281C22.4999 10.192 22.5069 10.1068 22.5119 10.038C22.5393 9.66128 22.405 9.29057 22.1889 9.0141C21.9798 8.74661 21.6496 8.51483 21.2398 8.50063L16.0899 7.77783C15.927 7.75497 15.7858 7.65343 15.7122 7.50629L13.3472 2.77633C13.2821 2.64617 13.2035 2.52134 13.0911 2.40889C12.9834 2.30124 12.8644 2.2246 12.7403 2.16116C11.9708 1.71204 11.0872 2.04943 10.6713 2.74269Z" stroke="#0EB5F9"/>
</svg>
