<svg width="19" height="20" viewBox="0 0 19 20" fill="none" xmlns="http://www.w3.org/2000/svg">
<path d="M17.9834 14.7041L15.5634 12.2841C15.4705 12.1904 15.3599 12.116 15.238 12.0652C15.1162 12.0145 14.9854 11.9883 14.8534 11.9883C14.7214 11.9883 14.5907 12.0145 14.4689 12.0652C14.347 12.116 14.2364 12.1904 14.1434 12.2841L10.5634 15.8641C10.4708 15.9576 10.3974 16.0684 10.3477 16.1902C10.2979 16.3121 10.2727 16.4425 10.2734 16.5741V18.9941C10.2734 19.2594 10.3788 19.5137 10.5663 19.7012C10.7539 19.8888 11.0082 19.9941 11.2734 19.9941H13.6934C13.825 19.9949 13.9555 19.9697 14.0773 19.9199C14.1992 19.8701 14.31 19.7968 14.4034 19.7041L17.9834 16.1241C18.0772 16.0312 18.1516 15.9206 18.2023 15.7987C18.2531 15.6769 18.2792 15.5462 18.2792 15.4141C18.2792 15.2821 18.2531 15.1514 18.2023 15.0296C18.1516 14.9077 18.0772 14.7971 17.9834 14.7041ZM13.2734 17.9941H12.2734V16.9941L14.8534 14.4141L15.8534 15.4141L13.2734 17.9941ZM7.27344 17.9941H3.27344C3.00822 17.9941 2.75387 17.8888 2.56633 17.7012C2.37879 17.5137 2.27344 17.2594 2.27344 16.9941V2.99414C2.27344 2.72892 2.37879 2.47457 2.56633 2.28703C2.75387 2.0995 3.00822 1.99414 3.27344 1.99414H8.27344V4.99414C8.27344 5.78979 8.58951 6.55285 9.15212 7.11546C9.71473 7.67807 10.4778 7.99414 11.2734 7.99414H14.2734V8.99414C14.2734 9.25936 14.3788 9.51371 14.5663 9.70125C14.7539 9.88878 15.0082 9.99414 15.2734 9.99414C15.5387 9.99414 15.793 9.88878 15.9805 9.70125C16.1681 9.51371 16.2734 9.25936 16.2734 8.99414V6.99414C16.2734 6.99414 16.2734 6.99414 16.2734 6.93414C16.263 6.84228 16.2429 6.75177 16.2134 6.66414V6.57414C16.1654 6.47132 16.1012 6.37681 16.0234 6.29414L10.0234 0.294141C9.94077 0.216357 9.84626 0.152222 9.74344 0.104141C9.71359 0.0999007 9.68329 0.0999007 9.65344 0.104141L9.33344 -0.00585938H3.27344C2.47779 -0.00585937 1.71473 0.310211 1.15212 0.87282C0.589508 1.43543 0.273438 2.19849 0.273438 2.99414V16.9941C0.273438 17.7898 0.589508 18.5529 1.15212 19.1155C1.71473 19.6781 2.47779 19.9941 3.27344 19.9941H7.27344C7.53865 19.9941 7.79301 19.8888 7.98054 19.7012C8.16808 19.5137 8.27344 19.2594 8.27344 18.9941C8.27344 18.7289 8.16808 18.4746 7.98054 18.287C7.79301 18.0995 7.53865 17.9941 7.27344 17.9941ZM10.2734 3.40414L12.8634 5.99414H11.2734C11.0082 5.99414 10.7539 5.88878 10.5663 5.70125C10.3788 5.51371 10.2734 5.25936 10.2734 4.99414V3.40414ZM5.27344 11.9941H11.2734C11.5387 11.9941 11.793 11.8888 11.9805 11.7012C12.1681 11.5137 12.2734 11.2594 12.2734 10.9941C12.2734 10.7289 12.1681 10.4746 11.9805 10.287C11.793 10.0995 11.5387 9.99414 11.2734 9.99414H5.27344C5.00822 9.99414 4.75387 10.0995 4.56633 10.287C4.37879 10.4746 4.27344 10.7289 4.27344 10.9941C4.27344 11.2594 4.37879 11.5137 4.56633 11.7012C4.75387 11.8888 5.00822 11.9941 5.27344 11.9941ZM5.27344 7.99414H6.27344C6.53865 7.99414 6.79301 7.88878 6.98054 7.70125C7.16808 7.51371 7.27344 7.25936 7.27344 6.99414C7.27344 6.72892 7.16808 6.47457 6.98054 6.28703C6.79301 6.0995 6.53865 5.99414 6.27344 5.99414H5.27344C5.00822 5.99414 4.75387 6.0995 4.56633 6.28703C4.37879 6.47457 4.27344 6.72892 4.27344 6.99414C4.27344 7.25936 4.37879 7.51371 4.56633 7.70125C4.75387 7.88878 5.00822 7.99414 5.27344 7.99414ZM7.27344 13.9941H5.27344C5.00822 13.9941 4.75387 14.0995 4.56633 14.287C4.37879 14.4746 4.27344 14.7289 4.27344 14.9941C4.27344 15.2594 4.37879 15.5137 4.56633 15.7012C4.75387 15.8888 5.00822 15.9941 5.27344 15.9941H7.27344C7.53865 15.9941 7.79301 15.8888 7.98054 15.7012C8.16808 15.5137 8.27344 15.2594 8.27344 14.9941C8.27344 14.7289 8.16808 14.4746 7.98054 14.287C7.79301 14.0995 7.53865 13.9941 7.27344 13.9941Z" fill="#0EB5F9"/>
</svg>
