<svg width="10" height="10" viewBox="0 0 10 10" fill="#FFFFFF" xmlns="http://www.w3.org/2000/svg">
<path d="M6.17495 4.99999L9.75828 1.42499C9.9152 1.26807 10.0034 1.05524 10.0034 0.833325C10.0034 0.611407 9.9152 0.398578 9.75828 0.241658C9.60136 0.0847387 9.38853 -0.00341797 9.16662 -0.00341797C8.9447 -0.00341797 8.73187 0.0847387 8.57495 0.241658L4.99995 3.82499L1.42495 0.241658C1.26803 0.0847387 1.0552 -0.00341797 0.833283 -0.00341797C0.611364 -0.00341797 0.398536 0.0847387 0.241616 0.241658C0.084696 0.398578 -0.00346064 0.611407 -0.00346065 0.833325C-0.00346065 1.05524 0.084696 1.26807 0.241616 1.42499L3.82495 4.99999L0.241616 8.57499C0.163509 8.65246 0.101514 8.74463 0.0592065 8.84618C0.0168993 8.94773 -0.00488281 9.05665 -0.00488281 9.16666C-0.00488281 9.27667 0.0168993 9.38559 0.0592065 9.48714C0.101514 9.58869 0.163509 9.68086 0.241616 9.75832C0.319085 9.83643 0.411252 9.89843 0.512802 9.94074C0.614351 9.98304 0.723273 10.0048 0.833283 10.0048C0.943292 10.0048 1.05221 9.98304 1.15376 9.94074C1.25531 9.89843 1.34748 9.83643 1.42495 9.75832L4.99995 6.17499L8.57495 9.75832C8.65242 9.83643 8.74459 9.89843 8.84614 9.94074C8.94768 9.98304 9.05661 10.0048 9.16662 10.0048C9.27663 10.0048 9.38555 9.98304 9.4871 9.94074C9.58865 9.89843 9.68081 9.83643 9.75828 9.75832C9.83639 9.68086 9.89839 9.58869 9.94069 9.48714C9.983 9.38559 10.0048 9.27667 10.0048 9.16666C10.0048 9.05665 9.983 8.94773 9.94069 8.84618C9.89839 8.74463 9.83639 8.65246 9.75828 8.57499L6.17495 4.99999Z" fill="#F2F4F6"/>
</svg>
