<svg width="55" height="71" viewBox="0 0 55 71" fill="none" xmlns="http://www.w3.org/2000/svg">
<ellipse cx="27.5" cy="63.8258" rx="27" ry="7" fill="#B8CAD2" fill-opacity="0.3"/>
<ellipse cx="22" cy="63.3258" rx="16.5" ry="4.5" fill="#B8CAD2" fill-opacity="0.5"/>
<ellipse cx="19.5" cy="63.3258" rx="9" ry="2.5" fill="#B8CAD2" fill-opacity="0.7"/>
<path fill-rule="evenodd" clip-rule="evenodd" d="M9.50005 21.5966C9.50005 10.1252 18.6782 0.825806 30 0.825806C41.3218 0.825806 50.5 10.1252 50.5 21.5966C50.5 33.0681 41.3218 42.3675 30 42.3675C28.0514 42.3675 26.1664 42.092 24.3806 41.5774L12.7562 57.0961C11.7063 58.4976 9.5 57.7453 9.5 55.9858V22.2137C9.5 22.1648 9.50177 22.1166 9.50525 22.0691C9.50179 21.912 9.50005 21.7545 9.50005 21.5966ZM30.1618 30.2868C34.9665 30.2868 38.8615 26.3404 38.8615 21.4722C38.8615 16.604 34.9665 12.6575 30.1618 12.6575C25.3571 12.6575 21.4621 16.604 21.4621 21.4722C21.4621 26.3404 25.3571 30.2868 30.1618 30.2868Z" fill="#14B4F9"/>
</svg>
