<svg width="33" height="44" viewBox="0 0 33 44" fill="none" xmlns="http://www.w3.org/2000/svg">
<path fill-rule="evenodd" clip-rule="evenodd" d="M0 16.4663C0 7.37221 7.3722 0 16.4663 0C25.5604 0 32.9326 7.37221 32.9326 16.4663C32.9326 25.5604 25.5604 32.9326 16.4663 32.9326C14.9011 32.9326 13.387 32.7142 11.9526 32.3063L4.12991 42.6133C2.79841 44.3677 0.000144831 43.4261 0.000144831 41.2236V18.7134C0.000144831 18.4973 0.0281437 18.2921 0.0799833 18.0996C0.0270804 17.5623 0 17.0175 0 16.4663ZM16.5959 23.3553C20.4552 23.3553 23.5838 20.2267 23.5838 16.3674C23.5838 12.5081 20.4552 9.3795 16.5959 9.3795C12.7366 9.3795 9.60801 12.5081 9.60801 16.3674C9.60801 20.2267 12.7366 23.3553 16.5959 23.3553Z" fill="#0EB5F9"/>
</svg>
