<svg width="25" height="25" viewBox="0 0 25 25" fill="none" xmlns="http://www.w3.org/2000/svg">
<path d="M13.4121 17.375C13.4121 17.5975 13.3461 17.815 13.2225 18C13.0989 18.185 12.9232 18.3292 12.7176 18.4144C12.5121 18.4995 12.2859 18.5218 12.0676 18.4784C11.8494 18.435 11.649 18.3278 11.4916 18.1705C11.3343 18.0132 11.2271 17.8127 11.1837 17.5945C11.1403 17.3762 11.1626 17.1501 11.2477 16.9445C11.3329 16.7389 11.4771 16.5632 11.6621 16.4396C11.8471 16.316 12.0646 16.25 12.2871 16.25C12.5855 16.25 12.8716 16.3685 13.0826 16.5795C13.2936 16.7905 13.4121 17.0766 13.4121 17.375ZM12.2871 7.25C10.219 7.25 8.53711 8.76406 8.53711 10.625V11C8.53711 11.1989 8.61613 11.3897 8.75678 11.5303C8.89744 11.671 9.0882 11.75 9.28711 11.75C9.48603 11.75 9.67679 11.671 9.81744 11.5303C9.9581 11.3897 10.0371 11.1989 10.0371 11V10.625C10.0371 9.59375 11.0468 8.75 12.2871 8.75C13.5274 8.75 14.5371 9.59375 14.5371 10.625C14.5371 11.6563 13.5274 12.5 12.2871 12.5C12.0882 12.5 11.8974 12.579 11.7568 12.7197C11.6161 12.8603 11.5371 13.0511 11.5371 13.25V14C11.5371 14.1989 11.6161 14.3897 11.7568 14.5303C11.8974 14.671 12.0882 14.75 12.2871 14.75C12.486 14.75 12.6768 14.671 12.8174 14.5303C12.9581 14.3897 13.0371 14.1989 13.0371 14V13.9325C14.7471 13.6184 16.0371 12.2544 16.0371 10.625C16.0371 8.76406 14.3552 7.25 12.2871 7.25ZM22.0371 12.5C22.0371 14.4284 21.4653 16.3134 20.3939 17.9168C19.3226 19.5202 17.7999 20.7699 16.0183 21.5078C14.2367 22.2458 12.2763 22.4389 10.385 22.0627C8.49367 21.6865 6.75638 20.7579 5.39282 19.3943C4.02926 18.0307 3.10066 16.2934 2.72446 14.4021C2.34825 12.5108 2.54133 10.5504 3.27929 8.76884C4.01724 6.98726 5.26692 5.46452 6.8703 4.39317C8.47368 3.32183 10.3587 2.75 12.2871 2.75C14.8721 2.75273 17.3505 3.78084 19.1784 5.60872C21.0063 7.43661 22.0344 9.91498 22.0371 12.5ZM20.5371 12.5C20.5371 10.8683 20.0533 9.27325 19.1467 7.91655C18.2402 6.55984 16.9517 5.50242 15.4443 4.87799C13.9368 4.25357 12.278 4.09019 10.6776 4.40852C9.07728 4.72685 7.60727 5.51259 6.45348 6.66637C5.2997 7.82015 4.51396 9.29016 4.19564 10.8905C3.87731 12.4908 4.04068 14.1496 4.66511 15.6571C5.28953 17.1646 6.34695 18.4531 7.70366 19.3596C9.06036 20.2661 10.6554 20.75 12.2871 20.75C14.4744 20.7475 16.5714 19.8775 18.118 18.3309C19.6646 16.7843 20.5346 14.6873 20.5371 12.5Z" fill="#70828A"/>
</svg>
