<svg width="20" height="20" viewBox="0 0 20 20" fill="none" xmlns="http://www.w3.org/2000/svg">
<rect width="20" height="20" rx="10" fill="#EDFAFF"/>
<path d="M5.76586 6.77633L9.82394 10.1892C10.0228 10.3565 10.0584 10.6591 9.90417 10.8719L5.8461 16.4708C5.5733 16.8471 5 16.6451 5 16.1726V7.16083C5 6.74688 5.45765 6.51712 5.76586 6.77633Z" fill="#0EB5F9"/>
<path fill-rule="evenodd" clip-rule="evenodd" d="M10.5 1.66675C7.46243 1.66675 5 4.12918 5 7.16675C5 10.2043 7.46243 12.6667 10.5 12.6667C13.5376 12.6667 16 10.2043 16 7.16675C16 4.12918 13.5376 1.66675 10.5 1.66675ZM10.5434 9.46786C11.8325 9.46786 12.8775 8.42286 12.8775 7.13379C12.8775 5.84471 11.8325 4.79971 10.5434 4.79971C9.25435 4.79971 8.20935 5.84471 8.20935 7.13379C8.20935 8.42286 9.25435 9.46786 10.5434 9.46786Z" fill="#0EB5F9"/>
</svg>
