<svg width="15" height="15" viewBox="0 0 15 15" fill="none" xmlns="http://www.w3.org/2000/svg">
<path d="M10.1279 8.00276C10.1924 7.93539 10.243 7.85596 10.2767 7.76901C10.3475 7.59656 10.3475 7.40313 10.2767 7.23067C10.243 7.14373 10.1924 7.06429 10.1279 6.99692L8.00294 4.87192C7.86956 4.73854 7.68865 4.66361 7.50002 4.66361C7.31139 4.66361 7.13049 4.73854 6.99711 4.87192C6.86373 5.00531 6.78879 5.18621 6.78879 5.37484C6.78879 5.56347 6.86373 5.74438 6.99711 5.87776L7.91794 6.79151H5.37502C5.18716 6.79151 5.00699 6.86614 4.87416 6.99897C4.74132 7.13181 4.66669 7.31198 4.66669 7.49984C4.66669 7.6877 4.74132 7.86787 4.87416 8.00071C5.00699 8.13355 5.18716 8.20817 5.37502 8.20817H7.91794L6.99711 9.12192C6.93072 9.18777 6.87802 9.26612 6.84206 9.35243C6.8061 9.43875 6.78758 9.53133 6.78758 9.62484C6.78758 9.71835 6.8061 9.81093 6.84206 9.89725C6.87802 9.98357 6.93072 10.0619 6.99711 10.1278C7.06296 10.1941 7.1413 10.2468 7.22762 10.2828C7.31393 10.3188 7.40652 10.3373 7.50002 10.3373C7.59353 10.3373 7.68612 10.3188 7.77243 10.2828C7.85875 10.2468 7.93709 10.1941 8.00294 10.1278L10.1279 8.00276ZM14.5834 7.49984C14.5834 6.09889 14.1679 4.7294 13.3896 3.56455C12.6113 2.3997 11.505 1.49181 10.2107 0.955694C8.91639 0.419573 7.49217 0.279299 6.11813 0.552611C4.7441 0.825923 3.48197 1.50055 2.49135 2.49117C1.50073 3.48179 0.826106 4.74392 0.552794 6.11795C0.279482 7.49198 0.419756 8.91621 0.955877 10.2105C1.492 11.5048 2.39989 12.6111 3.56473 13.3894C4.72958 14.1677 6.09907 14.5832 7.50002 14.5832C9.37864 14.5832 11.1803 13.8369 12.5087 12.5085C13.8371 11.1801 14.5834 9.37846 14.5834 7.49984V7.49984ZM1.83336 7.49984C1.83336 6.37908 2.1657 5.28349 2.78836 4.35161C3.41102 3.41973 4.29604 2.69342 5.33148 2.26452C6.36693 1.83563 7.50631 1.72341 8.60554 1.94206C9.70476 2.16071 10.7145 2.7004 11.507 3.4929C12.2995 4.2854 12.8392 5.2951 13.0578 6.39433C13.2765 7.49356 13.1642 8.63293 12.7353 9.66838C12.3064 10.7038 11.5801 11.5888 10.6483 12.2115C9.71638 12.8342 8.62078 13.1665 7.50002 13.1665C5.99713 13.1665 4.55579 12.5695 3.49309 11.5068C2.43038 10.4441 1.83336 9.00273 1.83336 7.49984V7.49984Z" fill="#9F9F9F"/>
</svg>
