<svg width="21" height="21" viewBox="0 0 21 21" fill="none" xmlns="http://www.w3.org/2000/svg">
<path d="M20.7099 19.0399L16.9999 15.3599C18.44 13.5643 19.1374 11.2852 18.9487 8.9912C18.76 6.69721 17.6996 4.56269 15.9854 3.02655C14.2713 1.49041 12.0337 0.669414 9.73283 0.732375C7.43194 0.795335 5.24263 1.73747 3.61505 3.36505C1.98747 4.99263 1.04534 7.18194 0.982375 9.48283C0.919414 11.7837 1.74041 14.0213 3.27655 15.7354C4.81269 17.4496 6.94721 18.51 9.2412 18.6987C11.5352 18.8874 13.8143 18.19 15.6099 16.7499L19.2899 20.4299C19.3829 20.5236 19.4935 20.598 19.6153 20.6488C19.7372 20.6996 19.8679 20.7257 19.9999 20.7257C20.1319 20.7257 20.2626 20.6996 20.3845 20.6488C20.5063 20.598 20.6169 20.5236 20.7099 20.4299C20.8901 20.2434 20.9909 19.9942 20.9909 19.7349C20.9909 19.4756 20.8901 19.2264 20.7099 19.0399ZM9.9999 16.7499C8.61544 16.7499 7.26206 16.3394 6.11091 15.5702C4.95977 14.801 4.06256 13.7078 3.53275 12.4287C3.00293 11.1496 2.86431 9.74214 3.13441 8.38427C3.4045 7.02641 4.07119 5.77912 5.05016 4.80016C6.02912 3.82119 7.27641 3.1545 8.63427 2.88441C9.99214 2.61431 11.3996 2.75293 12.6787 3.28275C13.9578 3.81256 15.051 4.70977 15.8202 5.86091C16.5894 7.01206 16.9999 8.36544 16.9999 9.7499C16.9999 11.6064 16.2624 13.3869 14.9497 14.6997C13.6369 16.0124 11.8564 16.7499 9.9999 16.7499Z" fill="#70828A"/>
</svg>
