<svg width="23" height="23" viewBox="0 0 23 23" fill="none" xmlns="http://www.w3.org/2000/svg">
<path d="M9.67125 2.24281L9.65938 2.26261L9.64937 2.28341L7.26538 7.24212L1.8621 8.00048C1.48596 8.00883 1.11053 8.14315 0.894159 8.50128C0.351727 9.09682 0.369156 9.97632 0.946447 10.5536L0.94642 10.5536L0.950838 10.558L4.86191 14.3736L3.90752 19.8137L3.9 19.8565V19.9001C3.9 19.9077 3.89999 19.9155 3.89998 19.9236C3.89968 20.1132 3.89922 20.4165 4.05279 20.7237L4.06137 20.7408L4.07125 20.7573C4.488 21.4519 5.37412 21.7892 6.14468 21.3363L11 18.7658L15.8189 21.317C15.9688 21.4314 16.1362 21.4674 16.2418 21.4825C16.3653 21.5002 16.4963 21.5001 16.5869 21.5001L16.6 21.5001H16.6006H16.6012H16.6017H16.6023H16.6029H16.6035H16.604H16.6046H16.6052H16.6057H16.6063H16.6069H16.6074H16.608H16.6085H16.6091H16.6096H16.6102H16.6107H16.6113H16.6118H16.6124H16.6129H16.6134H16.614H16.6145H16.615H16.6155H16.6161H16.6166H16.6171H16.6176H16.6181H16.6187H16.6192H16.6197H16.6202H16.6207H16.6212H16.6217H16.6222H16.6227H16.6232H16.6237H16.6242H16.6247H16.6252H16.6257H16.6261H16.6266H16.6271H16.6276H16.6281H16.6285H16.629H16.6295H16.63H16.6304H16.6309H16.6314H16.6318H16.6323H16.6327H16.6332H16.6337H16.6341H16.6346H16.635H16.6355H16.6359H16.6364H16.6368H16.6373H16.6377H16.6381H16.6386H16.639H16.6394H16.6399H16.6403H16.6407H16.6412H16.6416H16.642H16.6425H16.6429H16.6433H16.6437H16.6441H16.6446H16.645H16.6454H16.6458H16.6462H16.6466H16.647H16.6474H16.6478H16.6482H16.6486H16.649H16.6494H16.6498H16.6502H16.6506H16.651H16.6514H16.6518H16.6522H16.6526H16.653H16.6534H16.6537H16.6541H16.6545H16.6549H16.6553H16.6557H16.656H16.6564H16.6568H16.6572H16.6575H16.6579H16.6583H16.6586H16.659H16.6594H16.6597H16.6601H16.6605H16.6608H16.6612H16.6616H16.6619H16.6623H16.6626H16.663H16.6633H16.6637H16.664H16.6644H16.6647H16.6651H16.6654H16.6658H16.6661H16.6665H16.6668H16.6672H16.6675H16.6679H16.6682H16.6685H16.6689H16.6692H16.6696H16.6699H16.6702H16.6706H16.6709H16.6712H16.6716H16.6719H16.6722H16.6725H16.6729H16.6732H16.6735H16.6739H16.6742H16.6745H16.6748H16.6752H16.6755H16.6758H16.6761H16.6764H16.6768H16.6771H16.6774H16.6777H16.678H16.6784H16.6787H16.679H16.6793H16.6796H16.6799H16.6802H16.6805H16.6809H16.6812H16.6815H16.6818H16.6821H16.6824H16.6827H16.683H16.6833H16.6836H16.6839H16.6843H16.6846H16.6849H16.6852H16.6855H16.6858H16.6861H16.6864H16.6867H16.687H16.6873H16.6876H16.6879H16.6882H16.6885H16.6888H16.6891H16.6894H16.6897H16.69H16.6903H16.6906H16.6909H16.6912H16.6915H16.6918H16.6921H16.6924H16.6927H16.6929H16.6932H16.6935H16.6938H16.6941H16.6944H16.6947H16.695H16.6953H16.6956H16.6959H16.6962H16.6965H16.6968H16.6971H16.6974H16.6977H16.6979H16.6982H16.6985H16.6988H16.6991H16.6994H16.6997H16.7H16.7003H16.7006H16.7009H16.7012H16.7015H16.7018H16.7021H16.7023H16.7026H16.7029H16.7032H16.7035H16.7038H16.7041H16.7044H16.7047H16.705H16.7053H16.7056H16.7059H16.7062H16.7065H16.7068H16.7071H16.7073H16.7076H16.7079H16.7082H16.7085H16.7088H16.7091H16.7094H16.7097H16.71H16.7103H16.7106H16.7109H16.7112H16.7115H16.7118H16.7121H16.7124H16.7127H16.713H16.7133H16.7136H16.7139H16.7142H16.7145H16.7148H16.7151H16.7154H16.7157H16.7161H16.7164H16.7167H16.717H16.7173H16.7176H16.7179H16.7182H16.7185H16.7188H16.7191H16.7195H16.7198H16.7201H16.7204H16.7207H16.721H16.7213H16.7216H16.722H16.7223H16.7226H16.7229H16.7232H16.7236H16.7239H16.7242H16.7245H16.7248H16.7252H16.7255H16.7258H16.7261H16.7265H16.7268H16.7271H16.7275H16.7278H16.7281H16.7284H16.7288H16.7291H16.7294H16.7298H16.7301H16.7304H16.7308H16.7311H16.7315H16.7318H16.7321H16.7325H16.7328H16.7332H16.7335H16.7339H16.7342H16.7346H16.7349H16.7353H16.7356H16.736H16.7363H16.7367H16.737H16.7374H16.7377H16.7381H16.7384H16.7388H16.7392H16.7395H16.7399H16.7403H16.7406H16.741H16.7414H16.7417H16.7421H16.7425H16.7428H16.7432H16.7436H16.744H16.7443H16.7447H16.7451H16.7455H16.7459H16.7463H16.7466H16.747H16.7474H16.7478H16.7482H16.7486H16.749H16.7494H16.7498H16.7502H16.7506H16.751H16.7514H16.7518H16.7522H16.7526H16.753H16.7534H16.7538H16.7542H16.7546H16.755H16.7554H16.7559H16.7563H16.7567H16.7571H16.7575H16.758H16.7584H16.7588H16.7593H16.7597H16.7601H16.7606H16.761H16.7614H16.7619H16.7623H16.7627H16.7632H16.7636H16.7641H16.7645H16.765H16.7654H16.7659H16.7663H16.7668H16.7673H16.7677H16.7682H16.7686H16.7691H16.7696H16.77H16.7705H16.771H16.7715H16.7719H16.7724H16.7729H16.7734H16.7739H16.7743H16.7748H16.7753H16.7758H16.7763H16.7768H16.7773H16.7778H16.7783H16.7788H16.7793H16.7798H16.7803H16.7808H16.7813H16.7819H16.7824H16.7829H16.7834H16.7839H16.7845H16.785H16.7855H16.786H16.7866H16.7871H16.7876H16.7882H16.7887H16.7893H16.7898H16.7904H16.7909H16.7915H16.792H16.7926H16.7931H16.7937H16.7943H16.7948H16.7954H16.796H16.7965H16.7971H16.7977H16.7983H16.7988H16.7994H16.8H16.8495L16.8981 21.4904C17.653 21.3394 18.2392 20.5936 18.0932 19.7179L18.0932 19.7179L18.0925 19.7137L17.1381 14.2736L21.0022 10.5038C21.3239 10.3075 21.4835 9.97262 21.4988 9.6511C21.5621 9.25913 21.4398 8.86655 21.2335 8.57422C21.0257 8.27984 20.6788 8.01588 20.2398 8.00075L14.8297 7.24143L12.3472 2.27645C12.2821 2.1463 12.2035 2.02147 12.0911 1.90901C11.9834 1.80137 11.8644 1.72472 11.7403 1.66128C10.9708 1.21217 10.0872 1.54955 9.67125 2.24281Z" fill="#0EB5F9" stroke="#0EB5F9"/>
</svg>
