<svg width="29" height="29" viewBox="0 0 29 29" fill="none" xmlns="http://www.w3.org/2000/svg">
<path d="M25.7642 28.1594L25.7642 28.1594L25.7654 28.1606C26.0606 28.4457 26.4561 28.6035 26.8665 28.5999C27.2769 28.5964 27.6695 28.4318 27.9598 28.1415C28.25 27.8513 28.4146 27.4587 28.4182 27.0483C28.4217 26.6379 28.264 26.2425 27.9788 25.9473L27.9776 25.946L22.6887 20.6574C24.1161 18.8201 25.0052 16.6218 25.256 14.3076C25.51 11.964 25.099 9.59624 24.07 7.47528C23.0411 5.35432 21.4358 3.56587 19.4379 2.31462C17.44 1.06336 15.1301 0.399842 12.7727 0.4C10.7706 0.400171 8.79756 0.879107 7.01821 1.79685C5.23886 2.71459 3.70479 4.04453 2.54398 5.67571C1.38318 7.30689 0.629301 9.192 0.345248 11.1738C0.0611952 13.1556 0.255204 15.1765 0.911089 17.0681C1.56697 18.9596 2.66571 20.6669 4.11564 22.0475C5.56557 23.428 7.32464 24.4419 9.24609 25.0044C11.1675 25.5669 13.1957 25.6617 15.1612 25.281C17.0977 24.906 18.9182 24.0801 20.4753 22.8707L25.7642 28.1594ZM3.34789 12.9551C3.34789 10.4555 4.34086 8.05839 6.10835 6.29096C7.87585 4.52353 10.2731 3.5306 12.7727 3.5306C15.2723 3.5306 17.6696 4.52353 19.4371 6.29096C21.2045 8.05839 22.1975 10.4555 22.1975 12.9551C22.1975 15.4546 21.2045 17.8517 19.4371 19.6191C17.6696 21.3866 15.2723 22.3795 12.7727 22.3795C10.2731 22.3795 7.87585 21.3866 6.10835 19.6191C4.34086 17.8517 3.34789 15.4546 3.34789 12.9551Z" fill="#B8CAD2" stroke="#B8CAD2" stroke-width="0.2"/>
</svg>
