<svg width="30" height="30" viewBox="0 0 30 30" fill="none" xmlns="http://www.w3.org/2000/svg">
<path d="M26.4459 28.6594L26.4459 28.6594L26.4472 28.6606C26.7424 28.9457 27.1378 29.1035 27.5482 29.0999C27.9587 29.0964 28.3513 28.9318 28.6415 28.6415C28.9317 28.3513 29.0964 27.9587 29.0999 27.5483C29.1035 27.1379 28.9457 26.7425 28.6606 26.4473L28.6594 26.446L23.3705 21.1574C24.7978 19.3201 25.687 17.1218 25.9377 14.8076C26.1917 12.464 25.7807 10.0962 24.7518 7.97528C23.7229 5.85432 22.1176 4.06588 20.1197 2.81462C18.1217 1.56336 15.8119 0.899842 13.4545 0.9C11.4524 0.900171 9.47933 1.37911 7.69998 2.29685C5.92062 3.21459 4.38655 4.54453 3.22575 6.17571C2.06494 7.80689 1.31106 9.692 1.02701 11.6738C0.742958 13.6556 0.936967 15.6765 1.59285 17.5681C2.24874 19.4596 3.34748 21.1669 4.7974 22.5475C6.24733 23.928 8.0064 24.9419 9.92785 25.5044C11.8493 26.0669 13.8774 26.1617 15.843 25.781C17.7795 25.406 19.5999 24.5801 21.1571 23.3707L26.4459 28.6594ZM4.02965 13.4551C4.02965 10.9555 5.02262 8.55839 6.79011 6.79096C8.55761 5.02353 10.9548 4.0306 13.4545 4.0306C15.9541 4.0306 18.3513 5.02353 20.1188 6.79096C21.8863 8.55839 22.8793 10.9555 22.8793 13.4551C22.8793 15.9546 21.8863 18.3517 20.1188 20.1191C18.3513 21.8866 15.9541 22.8795 13.4545 22.8795C10.9548 22.8795 8.55761 21.8866 6.79011 20.1191C5.02262 18.3517 4.02965 15.9546 4.02965 13.4551Z" fill="#0EB5F9" stroke="#B8CAD2" stroke-width="0.2"/>
</svg>
