<svg width="31" height="29" viewBox="0 0 31 29" fill="none" xmlns="http://www.w3.org/2000/svg">
<path d="M20.6896 8.64719L20.5787 8.45684L16.6043 1.63427C16.4918 1.44128 16.3307 1.28115 16.1371 1.16986L16.3844 0.739524L16.1371 1.16986C15.9434 1.05857 15.7239 1 15.5006 1C15.2772 1 15.0577 1.05857 14.8641 1.16986C14.6704 1.28115 14.5093 1.44128 14.3968 1.63427L10.4225 8.45684L10.3116 8.64719L10.0963 8.69383L2.37782 10.3661C2.15942 10.4134 1.95726 10.5172 1.79152 10.667C1.62577 10.8169 1.50224 11.0076 1.43325 11.2202C1.36426 11.4327 1.35224 11.6597 1.39837 11.8783C1.4445 12.097 1.54718 12.2997 1.69616 12.4662L1.6963 12.4664L6.9576 18.3534L7.10447 18.5177L7.08225 18.737L6.28594 26.5934L6.28593 26.5935C6.26335 26.8158 6.2995 27.0402 6.39075 27.2442C6.48201 27.4482 6.62519 27.6247 6.80598 27.756C6.98678 27.8874 7.19888 27.969 7.42109 27.9928C7.64331 28.0165 7.86787 27.9816 8.07234 27.8914L8.07244 27.8913L15.2989 24.7061L15.5006 24.6172L15.7022 24.7061L22.9287 27.8913L22.9288 27.8914C23.1333 27.9816 23.3578 28.0165 23.5801 27.9928C23.8023 27.969 24.0144 27.8874 24.1952 27.756C24.376 27.6247 24.5191 27.4482 24.6104 27.2442C24.7017 27.0402 24.7378 26.8158 24.7152 26.5935L24.7152 26.5934L23.9189 18.737L23.8967 18.5177L24.0435 18.3534L29.3047 12.4651C29.4534 12.2986 29.5559 12.0959 29.6019 11.8774C29.6478 11.6589 29.6358 11.4322 29.5668 11.2198L30.0423 11.0654L29.5668 11.2198C29.4978 11.0074 29.3744 10.8168 29.2088 10.667C29.0433 10.5173 28.8414 10.4135 28.6233 10.3661L20.6896 8.64719ZM20.6896 8.64719L20.9049 8.69383L28.623 10.366L20.6896 8.64719Z" fill="#B8CAD2" stroke="#B8CAD2"/>
</svg>
