<svg width="29" height="29" viewBox="0 0 29 29" fill="none" xmlns="http://www.w3.org/2000/svg">
<path d="M4.10023 20.0419L4.09368 20.4764C3.08 18.7163 2.5 16.6754 2.5 14.5C2.5 7.87657 7.87657 2.5 14.5 2.5C21.1234 2.5 26.5 7.87657 26.5 14.5C26.5 16.6754 25.92 18.7163 24.9063 20.4764L24.8998 20.0419C24.8784 18.6252 24.145 17.5267 23.3278 16.7623C22.5187 16.0055 21.4954 15.4418 20.5001 15.0259C19.6331 14.6636 18.6956 14.3761 17.7757 14.1672C19.5326 13.0737 20.7 11.1252 20.7 8.9C20.7 5.47143 17.9286 2.7 14.5 2.7C11.0714 2.7 8.3 5.47143 8.3 8.9C8.3 11.1246 9.46671 13.0725 11.2226 14.1662C10.3009 14.3752 9.36199 14.6631 8.49402 15.0261C7.49913 15.4423 6.47692 16.0063 5.66887 16.7636C4.85237 17.5287 4.12156 18.627 4.10023 20.0419Z" fill="#B8CAD2" stroke="#B8CAD2" stroke-width="4"/>
</svg>
