<svg width="239" height="34" viewBox="0 0 239 34" fill="none" xmlns="http://www.w3.org/2000/svg">
<g filter="url(#filter0_d_4430_82439)">
<path fill-rule="evenodd" clip-rule="evenodd" d="M17 3C9.8203 3 4 8.8203 4 16C4 23.1797 9.8203 29 17 29H214.191C219.88 29 224.716 25.3458 226.479 20.2567L233.984 16.8379C234.765 16.4823 234.765 15.3734 233.984 15.0179L226.418 11.5713C224.606 6.57203 219.816 3 214.191 3H17Z" fill="white"/>
</g>
<path d="M20.3164 11.1406V12.1719H19.3906V14.8262C19.8535 14.791 20.3047 14.7441 20.7383 14.6914L20.832 15.6641C18.7109 16.0039 16.2441 16.0449 14.4688 16.0508L14.3281 14.9727C14.709 14.9727 15.1191 14.9727 15.5469 14.9668V12.1719H14.6094V11.1406H20.3164ZM15.8398 20.9141V16.7422H17.1406V17.7852H21.4062V16.7422H22.707V20.9141H15.8398ZM16.8008 14.9492C17.2344 14.9375 17.6797 14.9199 18.125 14.9023V12.1719H16.8008V14.9492ZM17.1406 19.8594H21.4062V18.8047H17.1406V19.8594ZM21.4062 16.332V10.4492H22.707V12.793H24.1836V13.8828H22.707V16.332H21.4062ZM33.5469 10.4609V18.2539H32.2344V10.4609H33.5469ZM24.8984 15.7227C25.2793 15.7227 25.6836 15.7227 26.1055 15.7168V12.418H25.1797V11.375H30.9336V12.418H29.9844V15.5762C30.459 15.541 30.9277 15.4941 31.3789 15.4414L31.4609 16.4023C29.3105 16.748 26.8906 16.7773 25.0391 16.7773L24.8984 15.7227ZM26.4922 20.832V17.5391H27.8047V19.7773H33.793V20.832H26.4922ZM27.3594 15.6992C27.8164 15.6875 28.2793 15.6699 28.7422 15.6465V12.418H27.3594V15.6992ZM46.332 10.4492V13.0273H47.7617V14.1172H46.332V16.6836H45.0312V10.4492H46.332ZM37.8477 15.6172C38.6445 15.6172 39.5645 15.6172 40.5195 15.5938V15.0605C39.3301 14.9375 38.5918 14.4512 38.5977 13.6719C38.5918 12.8164 39.5996 12.3125 41.1523 12.3125C42.7051 12.3125 43.707 12.8164 43.707 13.6719C43.707 14.4395 42.9863 14.9316 41.8203 15.0547V15.5469C42.7227 15.5 43.6309 15.4297 44.4805 15.3125L44.5859 16.1328C42.3184 16.5137 39.834 16.5312 37.9883 16.5312L37.8477 15.6172ZM38.1172 12.0547V11.1641H40.5195V10.3672H41.8203V11.1641H44.1992V12.0547H38.1172ZM39.2539 17.9844V17.1055H46.332V19.3906H40.5781V20.0703H46.707V20.9492H39.2773V18.582H45.0312V17.9844H39.2539ZM39.8516 13.6719C39.8398 14.0527 40.332 14.2578 41.1523 14.2578C41.9727 14.2578 42.4648 14.0527 42.4648 13.6719C42.4648 13.3203 41.9727 13.1387 41.1523 13.1328C40.332 13.1387 39.8398 13.3203 39.8516 13.6719ZM57.9688 15.5469V16.5898H48.3125V15.5469H50.5625V14.2051C49.7598 13.8652 49.3086 13.332 49.3086 12.6406C49.3086 11.3691 50.791 10.625 53.1289 10.625C55.4609 10.625 56.9434 11.3691 56.9492 12.6406C56.9434 13.3379 56.4863 13.8711 55.6836 14.2051V15.5469H57.9688ZM49.4375 19.1211C49.4375 17.9023 50.8145 17.2227 53.1289 17.2344C55.4082 17.2227 56.791 17.9023 56.7969 19.1211C56.791 20.3516 55.4082 21.0195 53.1289 21.0195C50.8145 21.0195 49.4375 20.3516 49.4375 19.1211ZM50.668 12.6406C50.6562 13.2852 51.5645 13.6309 53.1289 13.625C54.6875 13.6309 55.6016 13.2852 55.6016 12.6406C55.6016 11.9902 54.6875 11.627 53.1289 11.6328C51.5645 11.627 50.6562 11.9902 50.668 12.6406ZM50.7617 19.1211C50.7559 19.7188 51.5879 20.041 53.1289 20.0352C54.6465 20.041 55.4844 19.7188 55.4961 19.1211C55.4844 18.5293 54.6465 18.2246 53.1289 18.2188C51.5879 18.2246 50.7559 18.5293 50.7617 19.1211ZM51.875 15.5469H54.3828V14.5391C54.002 14.5918 53.5801 14.6211 53.1289 14.6211C52.6777 14.6211 52.2559 14.5918 51.875 14.5391V15.5469ZM67.2383 11.0117V12.043H63.4414V13.0156H66.9336V14.0469H63.4414V15.0547C65.4219 15.0371 66.6289 14.9844 68.0234 14.75L68.1523 15.793C66.6348 16.0391 65.3047 16.0801 63.0195 16.0742H62.1172V11.0117H67.2383ZM63.3477 20.9141V16.8125H64.6367V17.8203H69.0547V16.8125H70.3555V20.9141H63.3477ZM64.6367 19.8594H69.0547V18.8281H64.6367V19.8594ZM69.043 16.3555V10.4492H70.3555V16.3555H69.043ZM76.7188 11.0469C78.9512 11.0469 80.6738 12.2363 80.668 14.0352C80.6738 15.8574 78.9512 17.0469 76.7188 17.0469C74.498 17.0469 72.7871 15.8574 72.793 14.0352C72.7871 12.2363 74.498 11.0469 76.7188 11.0469ZM71.9023 19.707V18.6406H81.582V19.707H71.9023ZM74.0469 14.0352C74.041 15.2363 75.1777 15.9746 76.7188 15.9805C78.2656 15.9746 79.3906 15.2363 79.3906 14.0352C79.3906 12.8633 78.2656 12.0898 76.7188 12.1016C75.1777 12.0898 74.041 12.8633 74.0469 14.0352ZM91.9531 18.7344V19.8125H82.2734V18.7344H86.4453V17.0117H83.4219V13.543H89.5156V12.2305H83.3984V11.1758H90.8047V14.5742H84.7227V15.9453H91.0508V17.0117H87.7344V18.7344H91.9531ZM101.457 11.1406V12.1719H100.531V14.8262C100.994 14.791 101.445 14.7441 101.879 14.6914L101.973 15.6641C99.8516 16.0039 97.3848 16.0449 95.6094 16.0508L95.4688 14.9727C95.8496 14.9727 96.2598 14.9727 96.6875 14.9668V12.1719H95.75V11.1406H101.457ZM96.9805 20.9141V16.7422H98.2812V17.7852H102.547V16.7422H103.848V20.9141H96.9805ZM97.9414 14.9492C98.375 14.9375 98.8203 14.9199 99.2656 14.9023V12.1719H97.9414V14.9492ZM98.2812 19.8594H102.547V18.8047H98.2812V19.8594ZM102.547 16.332V10.4492H103.848V12.793H105.324V13.8828H103.848V16.332H102.547ZM108.805 10.918C110.176 10.9121 111.254 11.7031 111.518 12.8633H113.434V10.4492H114.734V16.1328H113.434V13.918H111.529C111.277 15.1074 110.188 15.9102 108.805 15.9102C107.182 15.9102 106.004 14.8672 106.004 13.4023C106.004 11.9551 107.182 10.9121 108.805 10.918ZM107.246 13.4023C107.246 14.252 107.891 14.8145 108.805 14.8086C109.695 14.8145 110.334 14.252 110.34 13.4023C110.334 12.5527 109.695 12.002 108.805 12.0078C107.891 12.002 107.246 12.5527 107.246 13.4023ZM107.75 20.9141V16.625H109.039V17.75H113.434V16.625H114.734V20.9141H107.75ZM109.039 19.8594H113.434V18.7578H109.039V19.8594ZM121.051 10.6133C123.465 10.6191 124.865 11.2578 124.871 12.4297C124.865 13.6133 123.465 14.252 121.051 14.2578C118.643 14.252 117.23 13.6133 117.23 12.4297C117.23 11.2578 118.643 10.6191 121.051 10.6133ZM116.234 15.8633V14.8203H125.891V15.8633H116.234ZM117.371 17.5391V16.5781H124.684V19.168H118.66V19.9531H124.977V20.9492H117.383V18.2422H123.406V17.5391H117.371ZM118.602 12.4297C118.596 13.0156 119.439 13.2852 121.051 13.2852C122.686 13.2852 123.523 13.0156 123.523 12.4297C123.523 11.8848 122.686 11.5742 121.051 11.5742C119.439 11.5742 118.596 11.8848 118.602 12.4297ZM137.961 14.2812V15.3125H130.707V11.0352H137.844V12.0781H132.043V14.2812H137.961ZM129.441 17.5391V16.4844H139.121V17.5391H134.902V21.0195H133.613V17.5391H129.441ZM141.383 11.4219V13.8711H143.105V11.4219H144.312V18.4766H140.152V11.4219H141.383ZM141.383 17.4219H143.105V14.9023H141.383V17.4219ZM145.355 20.5273V10.6367H146.586V14.5391H147.711V10.4492H148.965V21.043H147.711V15.6172H146.586V20.5273H145.355ZM159.875 18.7344V19.8125H150.195V18.7344H154.367V17.0117H151.344V13.543H157.438V12.2305H151.32V11.1758H158.727V14.5742H152.645V15.9453H158.973V17.0117H155.656V18.7344H159.875ZM173.07 14.8203V15.8633H163.414V14.8203H173.07ZM163.883 13.4492C165.857 13.3203 167.141 12.623 167.416 11.8438H164.293V10.8125H172.203V11.8438H169.051C169.314 12.6289 170.615 13.3203 172.613 13.4492L172.203 14.457C170.305 14.2988 168.869 13.6602 168.23 12.7168C167.592 13.6602 166.174 14.2988 164.293 14.457L163.883 13.4492ZM164.551 17.5391V16.5781H171.863V19.1797H165.84V19.9531H172.156V20.9492H164.562V18.2539H170.586V17.5391H164.551ZM179.188 11.5742C179.188 12.1426 179.146 12.6992 179.053 13.2383H181.355V10.4492H182.656V21.0312H181.355V17.1523H178.66V16.0977H181.355V14.2812H178.812C178.221 16.2441 176.873 17.9316 174.395 19.1445L173.715 18.1133C176.34 16.8008 177.635 15.002 177.869 12.6055H174.207V11.5742H179.188ZM193.836 18.6992V19.7656H184.156V18.6992H188.328V16.6367H185.223V11.1523H186.523V12.8867H191.434V11.1523H192.734V16.6367H189.617V18.6992H193.836ZM186.523 15.582H191.434V13.9297H186.523V15.582ZM197.832 13.2266C197.838 14.9375 198.424 16.7188 199.859 17.6211L199.145 18.6172C198.189 18.043 197.568 17.0586 197.217 15.9043C196.836 17.1758 196.156 18.2539 195.16 18.8633L194.352 17.8906C195.893 16.959 196.572 15.0898 196.578 13.2852V11.3867H197.832V13.2266ZM198.723 15.1719V14.0938H200.234V10.6367H201.465V20.5273H200.234V15.1719H198.723ZM202.414 21.043V10.4492H203.668V21.043H202.414ZM214.578 18.6875V19.7539H204.898V18.6875H207.137V16.0098C206.293 15.5234 205.783 14.7617 205.789 13.8242C205.783 12.1367 207.436 11.0234 209.715 11.0234C212.006 11.0234 213.67 12.1367 213.664 13.8242C213.67 14.75 213.172 15.4941 212.352 15.9805V18.6875H214.578ZM207.066 13.8242C207.061 14.9082 208.133 15.5996 209.715 15.5938C211.291 15.5996 212.387 14.9082 212.387 13.8242C212.387 12.7227 211.291 12.0488 209.715 12.0547C208.133 12.0488 207.061 12.7227 207.066 13.8242ZM208.426 18.6875H211.027V16.4785C210.623 16.5664 210.184 16.6133 209.715 16.6133C209.258 16.6133 208.824 16.5664 208.426 16.4844V18.6875ZM217.449 11.5156L217.32 17.5039H215.996L215.855 11.5156H217.449ZM215.75 19.1797C215.744 18.6875 216.16 18.2832 216.664 18.2773C217.15 18.2832 217.566 18.6875 217.566 19.1797C217.566 19.6836 217.15 20.0938 216.664 20.0938C216.16 20.0938 215.744 19.6836 215.75 19.1797Z" fill="#C37CD2"/>
<defs>
<filter id="filter0_d_4430_82439" x="0" y="0" width="238.569" height="34" filterUnits="userSpaceOnUse" color-interpolation-filters="sRGB">
<feFlood flood-opacity="0" result="BackgroundImageFix"/>
<feColorMatrix in="SourceAlpha" type="matrix" values="0 0 0 0 0 0 0 0 0 0 0 0 0 0 0 0 0 0 127 0" result="hardAlpha"/>
<feOffset dy="1"/>
<feGaussianBlur stdDeviation="2"/>
<feComposite in2="hardAlpha" operator="out"/>
<feColorMatrix type="matrix" values="0 0 0 0 0 0 0 0 0 0 0 0 0 0 0 0 0 0 0.25 0"/>
<feBlend mode="normal" in2="BackgroundImageFix" result="effect1_dropShadow_4430_82439"/>
<feBlend mode="normal" in="SourceGraphic" in2="effect1_dropShadow_4430_82439" result="shape"/>
</filter>
</defs>
</svg>
