<svg width="81" height="24" viewBox="0 0 81 24" fill="none" xmlns="http://www.w3.org/2000/svg">
<path d="M14 11.333C13.6 11.333 13.3334 11.5997 13.3334 11.9997C13.3334 13.933 12.3334 15.6663 10.6667 16.5997C8.13337 18.0663 4.86671 17.1997 3.40004 14.6663C1.93337 12.133 2.80004 8.86634 5.33337 7.39967C7.53337 6.13301 10.2 6.59967 11.8667 8.33301H10.2667C9.86671 8.33301 9.60004 8.59967 9.60004 8.99967C9.60004 9.39967 9.86671 9.66634 10.2667 9.66634H13.2667C13.6667 9.66634 13.9334 9.39967 13.9334 8.99967V5.99967C13.9334 5.59967 13.6667 5.33301 13.2667 5.33301C12.8667 5.33301 12.6 5.59967 12.6 5.99967V7.19967C11.3334 5.99967 9.73337 5.33301 8.00004 5.33301C4.33337 5.33301 1.33337 8.33301 1.33337 11.9997C1.33337 15.6663 4.33337 18.6663 8.00004 18.6663C11.6667 18.6663 14.6667 15.6663 14.6667 11.9997C14.6667 11.5997 14.4 11.333 14 11.333Z" fill="#0EB5F9"/>
<path d="M30.9375 5.95312V18.1074H29.8984V11.791H28.2441V17.4922H27.2188V6.21289H28.2441V10.875H29.8984V5.95312H30.9375ZM24.0879 9.27539C24.0879 11.5039 25.0039 13.459 26.7402 14.3477L26.0977 15.1816C24.8672 14.5117 24.0264 13.3086 23.5957 11.8184C23.1787 13.5137 22.3242 14.8398 21.0391 15.5918L20.3691 14.7715C22.1191 13.8145 23.0488 11.7363 23.0488 9.27539V8.30469H20.6562V7.40234H26.3438V8.30469H24.0879V9.27539ZM42.668 5.9668V14.8809H41.5879V10.2188H39.0859V9.33008H41.5879V5.9668H42.668ZM43.0098 16.9453V17.8477H34.8613V14.0742H35.9414V16.9453H43.0098ZM36.8164 8.46875C36.8164 10.041 38.0332 11.5723 39.8105 12.1738L39.25 13.0352C37.876 12.543 36.8164 11.5176 36.2969 10.2598C35.7705 11.6611 34.6494 12.7822 33.207 13.3223L32.6465 12.4473C34.4375 11.8184 35.7363 10.2188 35.7363 8.46875V7.83984H32.9883V6.95117H39.5371V7.83984H36.8164V8.46875ZM50.748 10.2051V11.9961H55.7656V12.8711H44.6914V11.9961H49.6953V10.2051H50.748ZM50.7617 6.71875C50.7617 8.33203 52.9492 9.68555 55.0957 9.98633L54.6582 10.8477C52.8125 10.5264 50.9873 9.54883 50.2285 8.14062C49.4629 9.55566 47.6309 10.5264 45.7715 10.8477L45.3613 9.98633C47.5078 9.68555 49.6816 8.33203 49.6816 6.71875V6.14453H50.7617V6.71875ZM50.2285 13.8828C52.8398 13.8828 54.3984 14.6348 54.4121 15.9883C54.3984 17.3418 52.8398 18.0801 50.2285 18.0801C47.5898 18.0801 46.0312 17.3418 46.0312 15.9883C46.0312 14.6348 47.5898 13.8828 50.2285 13.8828ZM50.2285 14.7305C48.2598 14.7305 47.1113 15.1816 47.125 15.9883C47.1113 16.7812 48.2598 17.2461 50.2285 17.2461C52.1699 17.2461 53.332 16.7812 53.332 15.9883C53.332 15.1816 52.1699 14.7305 50.2285 14.7305ZM66.1973 5.95312V10.9707H68.2344V11.8594H66.1973V18.1074H65.1309V5.95312H66.1973ZM63.9551 7.9082V8.79688H56.7227V7.9082H59.8535V6.10352H60.9199V7.9082H63.9551ZM60.4004 9.80859C62.123 9.80859 63.3672 10.957 63.3809 12.5977C63.3672 14.2383 62.123 15.3867 60.4004 15.3867C58.6641 15.3867 57.4062 14.2383 57.4199 12.5977C57.4062 10.957 58.6641 9.80859 60.4004 9.80859ZM60.4004 10.7109C59.2656 10.7109 58.4316 11.5039 58.4453 12.5977C58.4316 13.7051 59.2656 14.4844 60.4004 14.4707C61.5215 14.4844 62.3418 13.7051 62.3555 12.5977C62.3418 11.5039 61.5215 10.7109 60.4004 10.7109ZM78.9395 5.95312V18.1074H77.8594V5.95312H78.9395ZM75.3438 7.2793C75.3301 10.7793 73.7031 13.8691 69.6289 15.8242L69.041 14.9492C72.3291 13.3906 74.0039 11.0596 74.25 8.1543H69.6016V7.2793H75.3438Z" fill="#0EB5F9"/>
</svg>
