<svg width="28" height="28" viewBox="0 0 28 28" fill="none" xmlns="http://www.w3.org/2000/svg">
<rect width="28" height="28" rx="14" fill="#F2F4F6"/>
<path d="M14.0352 21.1758C11.5039 21.1758 9.69336 19.8223 9.60547 17.8008H11.2051C11.293 19.0137 12.5059 19.7695 14.0176 19.7695C15.6875 19.7695 16.918 18.8555 16.918 17.5371C16.918 16.1484 15.8105 15.1641 13.8242 15.1641H12.7871V13.7754H13.8242C15.3711 13.7754 16.4434 12.9141 16.4434 11.5957C16.4434 10.3301 15.5117 9.46875 14.0703 9.46875C12.7168 9.46875 11.4688 10.2246 11.3984 11.4727H9.86914C9.95703 9.45117 11.8203 8.09766 14.0879 8.09766C16.5137 8.09766 17.9902 9.67969 17.9727 11.5078C17.9902 12.9492 17.1465 14.0215 15.8105 14.3906V14.4785C17.4629 14.7422 18.4824 15.9199 18.4648 17.5371C18.4824 19.6289 16.5664 21.1758 14.0352 21.1758Z" fill="#9F9F9F"/>
</svg>
