<svg width="30" height="28" viewBox="0 0 30 28" fill="none" xmlns="http://www.w3.org/2000/svg">
<path d="M13.094 0.882528C13.2505 0.614002 13.4746 0.391199 13.7441 0.236345C14.0136 0.0814914 14.3189 0 14.6297 0C14.9405 0 15.2459 0.0814914 15.5154 0.236345C15.7848 0.391199 16.009 0.614002 16.1655 0.882528L20.1399 7.70516L27.8584 9.37741C28.162 9.44338 28.443 9.58779 28.6734 9.79623C28.9038 10.0047 29.0755 10.2699 29.1715 10.5654C29.2674 10.8609 29.2843 11.1764 29.2203 11.4804C29.1563 11.7844 29.0137 12.0664 28.8068 12.2981L23.5455 18.1865L24.3418 26.043C24.3732 26.3523 24.3229 26.6645 24.196 26.9483C24.069 27.2322 23.8698 27.4778 23.6182 27.6605C23.3667 27.8433 23.0715 27.9569 22.7624 27.9899C22.4532 28.023 22.1407 27.9743 21.8562 27.8489L14.6297 24.6636L7.40325 27.8489C7.11874 27.9743 6.80629 28.023 6.4971 27.9899C6.18791 27.9569 5.89281 27.8433 5.64124 27.6605C5.38968 27.4778 5.19046 27.2322 5.06349 26.9483C4.93651 26.6645 4.88622 26.3523 4.91764 26.043L5.71394 18.1865L0.452636 12.2996C0.245352 12.0678 0.102483 11.7858 0.0382923 11.4815C-0.025898 11.1773 -0.00916387 10.8616 0.0868241 10.5658C0.182812 10.2701 0.354696 10.0047 0.585315 9.79618C0.815935 9.58764 1.09722 9.44324 1.40109 9.37741L9.11958 7.70516L13.094 0.882528Z" fill="#0EB5F9"/>
</svg>
