<svg width="23" height="18" viewBox="0 0 23 18" fill="none" xmlns="http://www.w3.org/2000/svg">
<path d="M19.0833 0.333008H3.91663C3.05467 0.333008 2.22802 0.675418 1.61853 1.28491C1.00904 1.8944 0.666626 2.72105 0.666626 3.58301V14.4163C0.666626 15.2783 1.00904 16.1049 1.61853 16.7144C2.22802 17.3239 3.05467 17.6663 3.91663 17.6663H19.0833C19.9452 17.6663 20.7719 17.3239 21.3814 16.7144C21.9909 16.1049 22.3333 15.2783 22.3333 14.4163V3.58301C22.3333 2.72105 21.9909 1.8944 21.3814 1.28491C20.7719 0.675418 19.9452 0.333008 19.0833 0.333008V0.333008ZM3.91663 2.49967H19.0833C19.3706 2.49967 19.6462 2.61381 19.8493 2.81698C20.0525 3.02014 20.1666 3.29569 20.1666 3.58301L11.5 8.86967L2.83329 3.58301C2.83329 3.29569 2.94743 3.02014 3.15059 2.81698C3.35376 2.61381 3.62931 2.49967 3.91663 2.49967V2.49967ZM20.1666 14.4163C20.1666 14.7037 20.0525 14.9792 19.8493 15.1824C19.6462 15.3855 19.3706 15.4997 19.0833 15.4997H3.91663C3.62931 15.4997 3.35376 15.3855 3.15059 15.1824C2.94743 14.9792 2.83329 14.7037 2.83329 14.4163V6.05301L10.9366 11.0038C11.1013 11.0989 11.2881 11.149 11.4783 11.149C11.6685 11.149 11.8553 11.0989 12.02 11.0038L20.1666 6.05301V14.4163Z" fill="white"/>
</svg>
