<svg width="343" height="52" viewBox="0 0 343 52" fill="none" xmlns="http://www.w3.org/2000/svg">
<rect width="343" height="52" rx="26" fill="#0EB5F9"/>
<path d="M129.165 18.6796V34.5912H127.194V18.6796H129.165ZM116.454 25.442C116.448 22.011 118.194 19.8356 120.606 19.8294C122.986 19.8356 124.739 22.011 124.739 25.442C124.739 28.8978 122.986 31.0732 120.606 31.067C118.194 31.0732 116.448 28.8978 116.454 25.442ZM118.337 25.442C118.337 27.8847 119.251 29.3018 120.606 29.3018C121.936 29.3018 122.85 27.8847 122.85 25.442C122.85 23.018 121.936 21.5946 120.606 21.5946C119.251 21.5946 118.337 23.018 118.337 25.442ZM138.232 20.395V24.5283H140.085V18.953H141.943V33.7956H140.085V26.1133H138.232V30.4703H131.992V20.395H138.232ZM133.826 28.9289H136.399V21.9365H133.826V28.9289ZM143.329 34.5539V18.6796H145.206V34.5539H143.329ZM151.564 19.183C153.969 19.1892 155.759 20.6809 155.765 22.7756C155.759 24.8702 153.969 26.3494 151.564 26.3557C149.134 26.3494 147.337 24.8702 147.344 22.7756C147.337 20.6809 149.134 19.1892 151.564 19.183ZM149.245 22.7756C149.233 24 150.221 24.7707 151.564 24.7707C152.894 24.7707 153.87 24 153.87 22.7756C153.87 21.5635 152.894 20.7928 151.564 20.799C150.221 20.7928 149.233 21.5635 149.245 22.7756ZM149.736 28.9164V27.3936H160.284V31.5456H151.688V32.8198H160.763V34.3674H149.786V30.1036H158.339V28.9164H149.736ZM158.326 26.6975V18.6796H160.284V26.6975H158.326ZM177.14 31.1043V32.7203H162.614V31.1043H168.873V28.5124H164.336V23.3163H173.485V21.3398H164.311V19.761H175.418V24.8639H166.288V26.9151H175.785V28.5124H170.812V31.1043H177.14ZM196.968 31.1043V32.7203H182.442V31.1043H188.701V28.5124H184.164V23.3163H193.313V21.3398H184.139V19.761H195.246V24.8639H186.116V26.9151H195.613V28.5124H190.641V31.1043H196.968ZM210.635 20.2148V22.0173C210.635 24.1367 210.635 26.3308 210.057 29.6685L208.074 29.5007C208.69 26.3805 208.69 24.0746 208.696 22.0173V21.7997H199.528V20.2148H210.635ZM197.999 32.3909V30.7811H212.475V32.3909H197.999ZM226.782 18.692V30.172H224.824V18.692H226.782ZM213.842 23.7017C213.835 21.3895 215.706 19.7362 218.124 19.7362C220.542 19.7362 222.4 21.3895 222.4 23.7017C222.4 26.0511 220.542 27.692 218.124 27.6858C215.706 27.692 213.835 26.0511 213.842 23.7017ZM215.75 23.7017C215.744 25.1126 216.763 25.9827 218.124 25.9827C219.448 25.9827 220.48 25.1126 220.48 23.7017C220.48 22.328 219.448 21.4392 218.124 21.4392C216.763 21.4392 215.744 22.328 215.75 23.7017ZM216.272 34.2555V29.0035H218.242V32.6706H227.23V34.2555H216.272Z" fill="white"/>
<path d="M104.583 17.333H89.4167C88.5548 17.333 87.7281 17.6754 87.1187 18.2849C86.5092 18.8944 86.1667 19.7211 86.1667 20.583V31.4163C86.1667 32.2783 86.5092 33.1049 87.1187 33.7144C87.7281 34.3239 88.5548 34.6663 89.4167 34.6663H104.583C105.445 34.6663 106.272 34.3239 106.882 33.7144C107.491 33.1049 107.833 32.2783 107.833 31.4163V20.583C107.833 19.7211 107.491 18.8944 106.882 18.2849C106.272 17.6754 105.445 17.333 104.583 17.333V17.333ZM89.4167 19.4997H104.583C104.871 19.4997 105.146 19.6138 105.349 19.817C105.553 20.0201 105.667 20.2957 105.667 20.583L97.0001 25.8697L88.3334 20.583C88.3334 20.2957 88.4476 20.0201 88.6507 19.817C88.8539 19.6138 89.1294 19.4997 89.4167 19.4997V19.4997ZM105.667 31.4163C105.667 31.7037 105.553 31.9792 105.349 32.1824C105.146 32.3855 104.871 32.4997 104.583 32.4997H89.4167C89.1294 32.4997 88.8539 32.3855 88.6507 32.1824C88.4476 31.9792 88.3334 31.7037 88.3334 31.4163V23.053L96.4367 28.0038C96.6014 28.0989 96.7882 28.149 96.9784 28.149C97.1686 28.149 97.3554 28.0989 97.5201 28.0038L105.667 23.053V31.4163Z" fill="white"/>
</svg>
